<svg width="208" height="64" viewBox="0 0 208 64" fill="none" xmlns="http://www.w3.org/2000/svg">
<path d="M56.0035 23.2579H34.3473V29.6839H49.7073C48.9462 38.6785 41.4513 42.5392 34.3732 42.5392C32.1309 42.5491 29.9091 42.1122 27.8376 41.2539C25.766 40.3957 23.8861 39.1334 22.3077 37.5407C20.7294 35.948 19.4841 34.0568 18.6446 31.9775C17.8051 29.8983 17.3883 27.6726 17.4184 25.4305C17.4184 15.7025 24.9497 8.21276 34.394 8.21276C41.6796 8.21276 45.9728 12.8571 45.9728 12.8571L50.4701 8.19719C50.4701 8.19719 44.6928 1.76778 34.1587 1.76778C20.7447 1.76778 10.368 13.0889 10.368 25.3163C10.368 37.2982 20.1289 48.9825 34.4978 48.9825C47.1369 48.9825 56.3892 40.3235 56.3892 27.52C56.3892 24.8182 55.9966 23.2579 55.9966 23.2579H56.0035Z" fill="#4885ED"/>
<path d="M73.7452 18.6032C64.8579 18.6032 58.489 25.5516 58.489 33.6519C58.489 41.875 64.6642 48.9513 73.849 48.9513C82.1621 48.9513 88.972 42.5981 88.972 33.8283C88.972 23.7959 81.0499 18.6015 73.7452 18.6015V18.6032ZM73.8317 24.5639C78.201 24.5639 82.342 28.0977 82.342 33.7903C82.342 39.36 78.2183 42.9959 73.811 42.9959C68.9677 42.9959 65.1623 39.1178 65.1623 33.7453C65.1623 28.4869 68.9331 24.5639 73.8456 24.5639H73.8317Z" fill="#DB3236"/>
<path d="M106.923 18.6032C98.0359 18.6032 91.667 25.5516 91.667 33.6519C91.667 41.875 97.8421 48.9513 107.027 48.9513C115.34 48.9513 122.15 42.5981 122.15 33.8283C122.15 23.7959 114.228 18.6015 106.923 18.6015V18.6032ZM107.01 24.5639C111.379 24.5639 115.52 28.0977 115.52 33.7903C115.52 39.36 111.396 42.9959 106.989 42.9959C102.146 42.9959 98.3403 39.1178 98.3403 33.7453C98.3403 28.4869 102.111 24.5639 107.024 24.5639H107.01Z" fill="#F4C20D"/>
<path d="M139.465 18.6205C131.307 18.6205 124.897 25.7643 124.897 33.7833C124.897 42.9163 132.33 48.9738 139.323 48.9738C143.647 48.9738 145.948 47.2562 147.626 45.286V48.2785C147.626 53.5144 144.446 56.6504 139.648 56.6504C135.012 56.6504 132.688 53.203 131.864 51.2484L126.032 53.67C128.1 58.0463 132.266 62.6076 139.697 62.6076C147.826 62.6076 153.988 57.4997 153.988 46.7857V19.5321H147.65V22.1025C145.695 19.9922 143.018 18.6205 139.468 18.6205H139.465ZM140.053 24.5708C144.052 24.5708 148.158 27.9853 148.158 33.8162C148.158 39.744 144.059 43.0097 139.965 43.0097C135.616 43.0097 131.57 39.4811 131.57 33.8716C131.57 28.0458 135.774 24.5708 140.053 24.5708Z" fill="#4885ED"/>
<path d="M182.314 18.5842C174.62 18.5842 168.159 24.7075 168.159 33.7366C168.159 43.2951 175.36 48.9635 183.035 48.9635C189.456 48.9635 193.413 45.4521 195.748 42.304L190.502 38.8134C189.141 40.9237 186.864 42.9907 183.068 42.9907C178.802 42.9907 176.841 40.6556 175.625 38.3896L195.971 29.9485L194.934 27.475C192.969 22.6318 188.381 18.5842 182.314 18.5842ZM182.578 24.4203C185.351 24.4203 187.345 25.8941 188.193 27.6618L174.604 33.3405C174.016 28.9436 178.185 24.4203 182.561 24.4203H182.578Z" fill="#DB3236"/>
<path d="M158.443 48.064H165.127V3.33838H158.443V48.064Z" fill="#3CBA54"/>
</svg>
