<svg width="521" height="388" viewBox="0 0 521 388" fill="none" xmlns="http://www.w3.org/2000/svg">
<path d="M260.12 387.069C371.537 387.069 461.859 381.796 461.859 375.291C461.859 368.786 371.537 363.512 260.12 363.512C148.703 363.512 58.3813 368.786 58.3813 375.291C58.3813 381.796 148.703 387.069 260.12 387.069Z" fill="#F5F5F5"/>
<path d="M316.764 362.087V372.024C316.764 377.455 288.556 381.856 253.763 381.856C218.969 381.856 190.751 377.455 190.751 372.024V362.087C190.751 367.508 218.959 371.909 253.763 371.909C288.567 371.909 316.764 367.549 316.764 362.087Z" fill="#263238"/>
<path d="M316.764 362.087C316.764 367.508 288.556 371.909 253.763 371.909C218.969 371.909 190.751 367.508 190.751 362.087C190.751 356.666 218.959 352.254 253.763 352.254C288.567 352.254 316.764 356.697 316.764 362.087Z" fill="#263238"/>
<path opacity="0.2" d="M316.764 362.087C316.764 367.508 288.556 371.909 253.763 371.909C218.969 371.909 190.751 367.508 190.751 362.087C190.751 356.666 218.959 352.254 253.763 352.254C288.567 352.254 316.764 356.697 316.764 362.087Z" fill="white"/>
<path d="M379.224 284.55V376.737H374.49L368.538 284.55H379.224Z" fill="#4E6EF2"/>
<path opacity="0.4" d="M379.224 284.55V376.737H374.49L368.538 284.55H379.224Z" fill="white"/>
<path d="M146.708 286.985V376.768H151.442L157.393 286.985H146.708Z" fill="#4E6EF2"/>
<g opacity="0.6">
<path opacity="0.4" d="M146.708 286.985V376.768H151.442L157.393 286.985H146.708Z" fill="white"/>
</g>
<path d="M439.8 272.616H87.2026V280.586H439.8V272.616Z" fill="#4E6EF2"/>
<path opacity="0.6" d="M439.8 272.616H87.2026V280.586H439.8V272.616Z" fill="white"/>
<path d="M110.395 289.118H414.829L427.179 280.586H98.0444L110.395 289.118Z" fill="#4E6EF2"/>
<path opacity="0.4" d="M110.395 289.118H414.829L427.179 280.586H98.0444L110.395 289.118Z" fill="white"/>
<path d="M403.665 279.556V376.716H398.941L392.979 279.556H403.665Z" fill="#4E6EF2"/>
<path opacity="0.6" d="M403.665 279.556V376.716H398.941L392.979 279.556H403.665Z" fill="white"/>
<path d="M119.884 278.339V376.737H124.618L130.57 278.339H119.884Z" fill="#4E6EF2"/>
<path opacity="0.6" d="M119.884 278.339V376.737H124.618L130.57 278.339H119.884Z" fill="white"/>
<path d="M123.266 257.144L123.827 258.185C124.147 258.742 124.316 259.373 124.317 260.016V265.811C124.317 269.349 128.187 272.242 132.942 272.242H134.222C137.697 272.242 140.662 270.712 142.036 268.506C142.412 268.42 142.766 268.257 143.076 268.028L146.437 265.52C146.667 265.366 146.857 265.159 146.991 264.916C147.125 264.674 147.199 264.403 147.207 264.126V261.004C147.207 259.964 146.021 259.038 144.564 259.038H142.795C142.702 258.83 142.899 258.497 143.16 258.164L143.222 258.101C143.501 257.781 143.807 257.485 144.138 257.217L144.21 257.155C144.21 257.155 144.054 256.426 142.286 256.801C141.776 256.905 141.245 257.03 140.85 257.155L140.652 257.217H140.517C139.035 256.697 137.424 256.675 135.928 257.155C134.545 256.728 133.066 256.728 131.683 257.155C131.579 257.155 131.787 257.155 131.683 257.155C130.221 256.721 128.66 256.758 127.219 257.259H126.606C126.158 257.134 125.669 257.009 125.149 256.905C123.411 256.416 123.266 257.144 123.266 257.144ZM142.733 267.122C142.733 267.05 142.806 262.471 142.816 260.526C142.816 260.047 143.336 259.662 143.992 259.662H144.72C145.636 259.662 146.385 260.234 146.385 260.911V263.762C146.385 264.698 146.385 264.656 145.438 265.333L142.733 267.122Z" fill="#4E6EF2"/>
<path d="M125.773 238.52C126.21 240.767 128.01 242.484 129.831 243.878C131.652 245.272 133.639 246.583 134.773 248.581C135.907 250.579 135.814 253.513 133.847 254.73C134.87 254.17 135.733 253.358 136.355 252.371C136.976 251.384 137.336 250.255 137.399 249.09C137.463 247.926 137.228 246.764 136.718 245.716C136.207 244.667 135.438 243.766 134.482 243.098C132.838 241.943 130.684 241.516 129.28 239.976C128.708 239.278 128.302 238.459 128.091 237.582C127.881 236.705 127.871 235.791 128.062 234.909C128.45 233.444 128.958 232.014 129.581 230.633C127.209 231.299 125.295 236.002 125.773 238.52Z" fill="#4E6EF2"/>
<path d="M131.527 232.485C132.574 230.787 133.297 228.91 133.66 226.949C133.889 224.983 131.579 221.747 131.579 221.747C132.566 222.382 133.408 223.218 134.049 224.202C134.69 225.185 135.116 226.293 135.299 227.452C135.482 228.612 135.417 229.797 135.11 230.929C134.802 232.062 134.258 233.117 133.514 234.025C132.507 235.215 131.329 236.249 130.018 237.094C129.665 235.492 130.768 233.9 131.527 232.485Z" fill="#4E6EF2"/>
<path opacity="0.6" d="M125.773 238.52C126.21 240.767 128.01 242.484 129.831 243.878C131.652 245.272 133.639 246.583 134.773 248.581C135.907 250.579 135.814 253.513 133.847 254.73C134.87 254.17 135.733 253.358 136.355 252.371C136.976 251.384 137.336 250.255 137.399 249.09C137.463 247.926 137.228 246.764 136.718 245.716C136.207 244.667 135.438 243.766 134.482 243.098C132.838 241.943 130.684 241.516 129.28 239.976C128.708 239.278 128.302 238.459 128.091 237.582C127.881 236.705 127.871 235.791 128.062 234.909C128.45 233.444 128.958 232.014 129.581 230.633C127.209 231.299 125.295 236.002 125.773 238.52Z" fill="white"/>
<path opacity="0.6" d="M131.527 232.485C132.574 230.787 133.297 228.91 133.66 226.949C133.889 224.983 131.579 221.747 131.579 221.747C132.566 222.382 133.408 223.218 134.049 224.202C134.69 225.185 135.116 226.293 135.299 227.452C135.482 228.612 135.417 229.797 135.11 230.929C134.802 232.062 134.258 233.117 133.514 234.025C132.507 235.215 131.329 236.249 130.018 237.094C129.665 235.492 130.768 233.9 131.527 232.485Z" fill="white"/>
<path d="M130.06 222.299C129.389 221.206 128.923 220 128.687 218.74C128.583 217.46 130.06 215.379 130.06 215.379C129.428 215.789 128.889 216.327 128.478 216.959C128.068 217.591 127.796 218.302 127.679 219.046C127.562 219.79 127.603 220.551 127.8 221.278C127.997 222.005 128.345 222.683 128.822 223.266C129.465 224.032 130.219 224.699 131.059 225.243C131.298 224.223 130.58 223.204 130.06 222.299Z" fill="#4E6EF2"/>
<path opacity="0.6" d="M130.06 222.299C129.389 221.206 128.923 220 128.687 218.74C128.583 217.46 130.06 215.379 130.06 215.379C129.428 215.789 128.889 216.327 128.478 216.959C128.068 217.591 127.796 218.302 127.679 219.046C127.562 219.79 127.603 220.551 127.8 221.278C127.997 222.005 128.345 222.683 128.822 223.266C129.465 224.032 130.219 224.699 131.059 225.243C131.298 224.223 130.58 223.204 130.06 222.299Z" fill="white"/>
<path d="M399.981 269.796H339.686C339.686 269.796 341.08 262.513 341.881 262.305C342.682 262.097 352.92 254.044 364.272 258.59C366.759 259.569 368.548 260.318 369.839 260.859C371.118 260.318 372.96 259.569 375.395 258.59C386.757 254.044 397.006 262.139 397.796 262.305C398.587 262.471 399.981 269.796 399.981 269.796Z" fill="#4E6EF2"/>
<path opacity="0.6" d="M399.981 269.796H339.686V269.62C339.914 268.485 341.121 262.461 341.85 262.336C341.897 262.326 341.943 262.309 341.985 262.284C343.421 261.577 353.316 254.241 364.241 258.611C366.728 259.652 368.517 260.338 369.797 260.89C371.087 260.338 372.918 259.6 375.364 258.611C386.726 254.075 396.974 262.17 397.765 262.336C398.556 262.503 399.981 269.796 399.981 269.796Z" fill="white"/>
<path d="M406.828 269.796H345.845C345.845 269.796 347.25 262.388 348.061 262.211C348.873 262.034 359.236 254.98 370.723 259.569C373.241 260.609 376.352 264.448 376.352 264.448C376.352 264.448 379.473 260.567 381.981 259.569C393.478 254.98 403.831 262.045 404.663 262.211C405.496 262.378 406.828 269.796 406.828 269.796Z" fill="#4E6EF2"/>
<path opacity="0.8" d="M406.828 269.796H345.845C345.845 269.796 347.25 262.388 348.061 262.211C348.873 262.034 359.236 254.98 370.723 259.569C373.241 260.609 376.352 264.448 376.352 264.448C376.352 264.448 379.473 260.567 381.981 259.569C393.478 254.98 403.831 262.045 404.663 262.211C405.496 262.378 406.828 269.796 406.828 269.796Z" fill="white"/>
<path d="M376.633 266.488L374.687 270.004H379.276L376.633 266.488Z" fill="#4E6EF2"/>
<g opacity="0.3">
<path d="M376.633 266.488L374.687 270.004H379.276L376.633 266.488Z" fill="black"/>
</g>
<path opacity="0.1" d="M347.978 262.253C347.567 263.088 347.242 263.963 347.011 264.865C346.438 267.091 345.845 269.796 345.845 269.796H339.686V269.62C339.914 268.485 341.121 262.461 341.85 262.336C341.897 262.326 341.943 262.309 341.985 262.284L347.978 262.253Z" fill="black"/>
<path d="M409.2 272.054L379.276 272.751L379.213 272.689C378.599 272.146 377.807 271.846 376.987 271.846C376.166 271.846 375.374 272.146 374.76 272.689L374.698 272.751L343.879 272.346L336.096 272.252L336.678 269.588H374.698C375.318 269.008 376.137 268.684 376.987 268.684C377.837 268.684 378.655 269.008 379.276 269.588H408.409L409.2 272.054Z" fill="#4E6EF2"/>
<g opacity="0.3">
<path d="M344.482 269.588L343.879 272.346L336.096 272.252L336.689 269.588H344.482Z" fill="black"/>
</g>
<path d="M379.276 264.844C379.276 264.844 383.968 259.454 389.681 260.453C389.66 260.453 385.675 259.953 379.276 264.844Z" fill="#4E6EF2"/>
<path opacity="0.4" d="M379.276 264.844C379.276 264.844 383.968 259.454 389.681 260.453C389.66 260.453 385.675 259.953 379.276 264.844Z" fill="white"/>
<path d="M368.101 267.32C368.101 267.32 361.858 263.907 356.833 266.831C356.885 266.831 360.391 264.969 368.101 267.32Z" fill="#4E6EF2"/>
<path opacity="0.4" d="M368.101 267.32C368.101 267.32 361.858 263.907 356.833 266.831C356.885 266.831 360.391 264.969 368.101 267.32Z" fill="white"/>
<path d="M374.042 265.478C374.042 265.478 369.017 260.39 363.398 261.743C363.398 261.743 367.352 260.994 374.042 265.478Z" fill="#4E6EF2"/>
<path opacity="0.4" d="M374.042 265.478C374.042 265.478 369.017 260.39 363.398 261.743C363.398 261.743 367.352 260.994 374.042 265.478Z" fill="white"/>
<path d="M386.757 264.761C386.757 264.761 393 261.317 398.025 264.209C398.025 264.209 394.446 262.367 386.757 264.761Z" fill="#4E6EF2"/>
<path opacity="0.4" d="M386.757 264.761C386.757 264.761 393 261.317 398.025 264.209C398.025 264.209 394.446 262.367 386.757 264.761Z" fill="white"/>
<path d="M440.778 364.803H440.831C440.928 364.792 441.018 364.744 441.08 364.668C441.142 364.592 441.172 364.495 441.163 364.397C441.163 364.334 441.163 363.606 441.163 362.316C441.163 360.453 441.163 356.552 441.476 351.328C441.47 351.256 441.47 351.183 441.476 351.11C441.809 345.273 442.381 339.55 443.172 334.077C443.91 328.979 444.868 324.037 445.991 319.386C446.967 315.388 448.148 311.442 449.529 307.566C449.737 306.994 449.945 306.421 450.164 305.849C450.382 305.277 450.528 304.923 450.715 304.455C451.194 303.258 451.641 302.103 452.026 301.032C452.879 298.67 453.649 296.308 454.315 294.019C454.711 292.645 455.075 291.282 455.356 289.992C456.579 285.072 457.379 280.056 457.749 274.999C457.884 273.011 457.946 271.024 457.926 269.089C457.91 267.062 457.785 265.037 457.551 263.023C457.551 262.877 457.551 262.752 457.551 262.617V262.43C457.554 262.357 457.536 262.286 457.498 262.224C457.46 262.162 457.405 262.113 457.339 262.082C457.273 262.052 457.199 262.042 457.128 262.054C457.056 262.066 456.99 262.099 456.937 262.149C456.891 262.194 456.857 262.25 456.837 262.312C456.817 262.373 456.812 262.439 456.823 262.503V262.7C456.823 262.836 456.823 262.971 456.875 263.117C457.101 265.103 457.222 267.1 457.239 269.099C457.239 271.014 457.239 272.98 457.062 274.947C456.695 279.965 455.901 284.942 454.69 289.826C454.378 291.116 454.024 292.458 453.649 293.821C452.994 296.1 452.224 298.441 451.371 300.782C450.986 301.822 450.549 302.998 450.07 304.195C449.883 304.663 449.695 305.131 449.519 305.599C449.342 306.068 449.082 306.744 448.873 307.316C447.48 311.219 446.293 315.192 445.315 319.219C444.181 323.891 443.234 328.864 442.485 333.984C441.684 339.477 441.111 345.221 440.778 351.058C440.773 351.144 440.773 351.231 440.778 351.318C440.477 356.52 440.456 360.464 440.466 362.337C440.466 363.606 440.466 364.418 440.466 364.418C440.465 364.508 440.495 364.597 440.552 364.667C440.609 364.737 440.689 364.785 440.778 364.803Z" fill="#4E6EF2"/>
<path d="M457.156 262.555C456.564 261.932 455.904 261.377 455.189 260.9C454.404 260.391 453.558 259.982 452.671 259.683" fill="#4E6EF2"/>
<path d="M457.145 262.919C457.193 262.933 457.243 262.933 457.291 262.919C457.38 262.884 457.452 262.815 457.491 262.728C457.53 262.64 457.533 262.54 457.499 262.451C457.483 262.405 457.458 262.362 457.426 262.326C456.796 261.684 456.098 261.112 455.345 260.619C454.53 260.094 453.653 259.671 452.734 259.36C452.642 259.337 452.545 259.349 452.463 259.394C452.38 259.439 452.317 259.514 452.287 259.603C452.256 259.693 452.261 259.79 452.299 259.876C452.338 259.962 452.408 260.031 452.494 260.068C453.357 260.353 454.178 260.748 454.939 261.244C455.63 261.7 456.265 262.234 456.833 262.836C456.875 262.873 456.925 262.899 456.979 262.914C457.034 262.928 457.09 262.93 457.145 262.919Z" fill="#4E6EF2"/>
<path d="M457.572 269.484C457.658 269.491 457.743 269.465 457.811 269.411L460.391 267.466C460.438 267.439 460.478 267.403 460.509 267.36C460.541 267.317 460.562 267.268 460.573 267.216C460.584 267.164 460.583 267.11 460.572 267.058C460.56 267.006 460.537 266.957 460.505 266.915C460.473 266.872 460.432 266.837 460.386 266.811C460.339 266.786 460.287 266.771 460.234 266.767C460.181 266.763 460.128 266.77 460.078 266.788C460.028 266.807 459.982 266.835 459.944 266.873L457.364 268.818C457.324 268.847 457.29 268.884 457.265 268.926C457.24 268.968 457.223 269.014 457.216 269.063C457.21 269.112 457.213 269.161 457.225 269.208C457.238 269.256 457.261 269.3 457.291 269.339C457.324 269.382 457.366 269.418 457.415 269.444C457.463 269.469 457.517 269.483 457.572 269.484Z" fill="#4E6EF2"/>
<path d="M451.662 301.323C451.76 301.321 451.853 301.282 451.924 301.215C451.996 301.148 452.039 301.056 452.047 300.959C451.987 300.252 451.848 299.553 451.631 298.878C451.349 297.942 450.929 297.055 450.382 296.245C449.971 295.638 449.497 295.077 448.967 294.57C448.932 294.535 448.891 294.508 448.845 294.489C448.8 294.47 448.751 294.46 448.702 294.46C448.652 294.46 448.604 294.47 448.558 294.489C448.513 294.508 448.471 294.535 448.436 294.57C448.402 294.604 448.374 294.645 448.356 294.689C448.337 294.734 448.327 294.782 448.327 294.83C448.327 294.879 448.337 294.927 448.356 294.971C448.374 295.016 448.402 295.057 448.436 295.09C448.927 295.56 449.366 296.079 449.747 296.641C450.252 297.394 450.642 298.218 450.902 299.086C451.097 299.677 451.226 300.288 451.287 300.907C451.283 300.954 451.288 301.001 451.303 301.045C451.318 301.09 451.341 301.131 451.373 301.166C451.404 301.201 451.442 301.23 451.485 301.249C451.527 301.269 451.573 301.28 451.62 301.281L451.662 301.323Z" fill="#4E6EF2"/>
<path d="M449.154 307.847C449.225 307.848 449.295 307.829 449.356 307.793C449.417 307.756 449.466 307.702 449.498 307.639C449.891 306.884 450.435 306.218 451.095 305.681C451.755 305.145 452.518 304.748 453.337 304.517C453.43 304.488 453.508 304.424 453.555 304.339C453.601 304.253 453.613 304.153 453.587 304.059C453.574 304.013 453.551 303.969 453.521 303.931C453.491 303.893 453.453 303.861 453.411 303.838C453.368 303.815 453.321 303.8 453.273 303.795C453.224 303.791 453.175 303.795 453.129 303.81C452.209 304.073 451.354 304.523 450.617 305.131C449.879 305.74 449.275 306.494 448.842 307.347C448.798 307.435 448.789 307.535 448.819 307.629C448.848 307.722 448.912 307.8 448.998 307.847H449.154Z" fill="#4E6EF2"/>
<path d="M442.037 340.466C442.922 339.571 443.848 335.96 444.347 334.015C444.472 333.557 444.576 333.162 444.659 332.87" fill="#4E6EF2"/>
<path d="M442.017 340.84C442.069 340.843 442.121 340.834 442.17 340.814C442.218 340.794 442.262 340.764 442.298 340.726C443.182 339.842 444.004 336.845 444.712 334.108C444.826 333.651 444.93 333.255 445.013 332.974C445.039 332.879 445.026 332.778 444.977 332.692C444.929 332.606 444.848 332.543 444.753 332.517C444.658 332.491 444.557 332.504 444.471 332.553C444.385 332.601 444.322 332.682 444.295 332.777L443.994 333.932C443.536 335.7 442.589 339.384 441.767 340.174C441.721 340.228 441.69 340.292 441.679 340.362C441.667 340.431 441.674 340.502 441.7 340.567C441.726 340.633 441.769 340.69 441.825 340.732C441.88 340.775 441.947 340.802 442.017 340.809V340.84Z" fill="#4E6EF2"/>
<path d="M451.88 325.264C452.619 328.76 444.732 334.566 444.732 334.566C444.732 334.566 435.15 332.485 434.411 329C433.672 325.514 436.606 320.176 441.434 319.146C446.262 318.116 451.131 321.779 451.88 325.264Z" fill="#4E6EF2"/>
<path d="M463.68 284.79C462.431 288.317 455.272 290.263 455.272 290.263C455.272 290.263 450.944 284.238 452.151 280.711C453.358 277.184 457.582 273.563 460.756 274.687C463.929 275.81 464.928 281.273 463.68 284.79Z" fill="#4E6EF2"/>
<path d="M444.389 294.706C445.196 295.528 446.153 296.189 447.209 296.651C447.738 296.881 448.32 296.96 448.891 296.88C449.463 296.799 450 296.561 450.445 296.193C451.485 295.205 451.371 293.519 450.902 292.177C449.966 289.514 446.064 284.779 442.662 285.726C437.751 287.11 442.402 292.947 444.389 294.706Z" fill="#4E6EF2"/>
<path d="M453.524 302.103C452.838 302.821 452.089 303.737 452.349 304.705C452.507 305.116 452.797 305.464 453.173 305.693C453.549 305.923 453.991 306.022 454.43 305.974C455.309 305.853 456.149 305.533 456.885 305.037C458.664 303.997 462.327 301.916 460.329 299.398C458.331 296.88 454.991 300.595 453.524 302.103Z" fill="#4E6EF2"/>
<path d="M452.609 258.133C451.568 258.133 450.528 257.675 449.487 257.654C448.447 257.633 447.229 258.351 447.406 259.381C447.583 260.411 448.676 260.755 449.623 260.9C451.248 261.148 452.899 261.183 454.534 261.004C454.922 261.009 455.296 260.859 455.574 260.588C456.053 260.016 455.46 259.121 454.762 258.84C454.045 258.68 453.348 258.443 452.682 258.133H452.609Z" fill="#4E6EF2"/>
<path d="M462.077 266.155C463.118 266.269 464.158 265.926 465.199 266.009C466.239 266.092 467.373 266.966 467.123 267.976C466.874 268.985 465.708 269.193 464.751 269.235C463.105 269.301 461.456 269.147 459.85 268.777C459.47 268.736 459.119 268.549 458.872 268.257C458.467 267.632 459.153 266.81 459.913 266.613C460.656 266.533 461.388 266.376 462.098 266.144L462.077 266.155Z" fill="#4E6EF2"/>
<path d="M457.385 263.949C457.482 263.946 457.575 263.906 457.643 263.836C457.711 263.766 457.749 263.672 457.749 263.574C457.749 261.545 457.998 259.61 458.394 259.517C458.488 259.492 458.57 259.431 458.62 259.348C458.671 259.264 458.687 259.164 458.664 259.069C458.64 258.975 458.579 258.893 458.496 258.843C458.412 258.792 458.312 258.776 458.217 258.799C457.02 259.09 456.979 262.243 457.01 263.595C457.011 263.643 457.022 263.69 457.042 263.734C457.061 263.777 457.089 263.817 457.124 263.85C457.159 263.883 457.2 263.908 457.244 263.925C457.289 263.942 457.337 263.95 457.385 263.949Z" fill="#4E6EF2"/>
<path d="M456.906 259.173C457.55 257.759 458.546 256.534 459.798 255.615C461.12 254.824 463.128 254.938 463.96 256.26C464.793 257.581 463.648 259.766 462.025 260.37C460.345 260.81 458.572 260.748 456.927 260.193C456.927 259.943 456.927 259.683 456.927 259.433L456.906 259.173Z" fill="#4E6EF2"/>
<path d="M432.84 376.529H449.685L451.558 374.209C455.911 369.09 458.427 362.662 458.706 355.948V355.397H423.798C423.798 362.212 426.43 368.923 431.466 374.895L432.84 376.529Z" fill="#4E6EF2"/>
<path opacity="0.4" d="M432.84 376.529H449.685L451.558 374.209C455.911 369.09 458.427 362.662 458.706 355.948V355.397H423.798C423.798 362.212 426.43 368.923 431.466 374.895L432.84 376.529Z" fill="white"/>
<path d="M99.6468 334.878L101.728 334.015C102.017 334.444 102.425 334.781 102.901 334.984C103.377 335.187 103.902 335.248 104.412 335.159C104.412 335.159 104.672 335.388 104.662 335.399C104.767 335.065 104.767 334.707 104.661 334.373C104.554 334.04 104.348 333.748 104.069 333.536C103.493 333.133 102.793 332.945 102.092 333.006C102.203 332.57 102.21 332.114 102.112 331.674C102.015 331.235 101.815 330.825 101.53 330.477C101.313 330.657 101.135 330.878 101.006 331.129C100.877 331.379 100.801 331.653 100.781 331.934C100.75 332.194 100.777 332.457 100.86 332.705C100.943 332.953 101.079 333.18 101.26 333.37C100.45 333.539 99.6911 333.896 99.0433 334.41C99.2514 334.608 99.3763 334.722 99.6468 334.878Z" fill="#4E6EF2"/>
<path opacity="0.1" d="M99.6468 334.878L101.728 334.015C102.017 334.444 102.425 334.781 102.901 334.984C103.377 335.187 103.902 335.248 104.412 335.159C104.412 335.159 104.672 335.388 104.662 335.399C104.767 335.065 104.767 334.707 104.661 334.373C104.554 334.04 104.348 333.748 104.069 333.536C103.493 333.133 102.793 332.945 102.092 333.006C102.203 332.57 102.21 332.114 102.112 331.674C102.015 331.235 101.815 330.825 101.53 330.477C101.313 330.657 101.135 330.878 101.006 331.129C100.877 331.379 100.801 331.653 100.781 331.934C100.75 332.194 100.777 332.457 100.86 332.705C100.943 332.953 101.079 333.18 101.26 333.37C100.45 333.539 99.6911 333.896 99.0433 334.41C99.2514 334.608 99.3763 334.722 99.6468 334.878Z" fill="white"/>
<path d="M74.2695 340.029C71.0941 336.632 67.1154 334.088 62.6994 332.631C62.5641 332.132 62.0022 331.799 61.8566 331.299C67.0456 332.399 71.8263 334.921 75.6637 338.583C75.2892 339.269 74.6441 339.384 74.2695 340.029Z" fill="#263238"/>
<g opacity="0.3">
<path d="M74.2695 340.029C71.0941 336.632 67.1154 334.088 62.6994 332.631C62.5641 332.132 62.0022 331.799 61.8566 331.299C67.0456 332.399 71.8263 334.921 75.6637 338.583C75.2892 339.269 74.6441 339.384 74.2695 340.029Z" fill="white"/>
</g>
<path d="M78.421 304.351C77.8799 305.703 78.7019 307.649 80.4083 307.608C79.6695 306.005 75.1435 305.599 73.8741 307.014C73.333 307.628 73.9573 308.731 74.6128 309.231C75.3027 309.626 76.0506 309.911 76.829 310.073C74.3527 309.189 70.5861 312.154 70.5861 314.391C70.1223 314.194 69.6002 314.182 69.1277 314.358C68.6552 314.534 68.2685 314.885 68.0474 315.338C67.7769 316.379 68.4428 317.554 70.2532 317.315C69.5688 317.845 69.0816 318.588 68.8694 319.427C68.3699 320.998 68.5364 322.476 70.2948 322.871C70.6108 322.925 70.9343 322.916 71.2467 322.845C71.5592 322.773 71.8545 322.641 72.1157 322.455C70.0347 323.183 68.3699 324.775 68.9942 326.336C69.3168 327.189 71.0752 326.856 71.0752 326.856C67.6416 329.666 69.7954 329.926 70.3676 330.175C69.2647 331.216 70.1283 332.891 71.7515 333.016C73.718 333.172 73.1665 332.725 74.4463 332.85C74.3436 333.109 74.3156 333.391 74.3656 333.665C74.4157 333.939 74.5416 334.194 74.7292 334.4C74.9168 334.606 75.1585 334.755 75.4267 334.831C75.6949 334.906 75.9789 334.905 76.2464 334.826C78.0761 334.346 79.6807 333.242 80.7829 331.705C80.4499 332.444 80.6788 333.588 81.636 333.453C83.4049 333.588 84.4349 332.236 85.465 331.258C86.3286 332.86 88.0038 333.588 90.0223 333.838C90.6719 333.936 91.3359 333.843 91.9341 333.572C92.5323 333.3 93.0392 332.862 93.3935 332.309C93.7244 331.778 93.8459 331.143 93.7344 330.527C93.6228 329.912 93.2862 329.36 92.79 328.979C93.4259 329.375 94.1326 329.643 94.8709 329.77C95.0651 329.799 95.2634 329.766 95.4384 329.678C95.6135 329.589 95.7566 329.448 95.848 329.274C95.9394 329.1 95.9746 328.903 95.9487 328.708C95.9228 328.514 95.837 328.332 95.7033 328.188C95.3999 327.881 95.1439 327.53 94.9438 327.148C95.9638 327.424 97.0365 327.442 98.0652 327.2C98.3897 327.14 98.6932 326.997 98.9463 326.785C99.1994 326.574 99.3935 326.3 99.5097 325.991C99.6259 325.682 99.6603 325.349 99.6096 325.023C99.5588 324.697 99.4247 324.389 99.2202 324.13C98.7388 323.556 98.1346 323.097 97.452 322.787C96.7695 322.477 96.0261 322.325 95.2767 322.341C97.8363 322.049 98.4606 322.07 100.479 320.561C101.083 319.687 101.239 318.366 100.333 317.752C99.8315 317.451 99.2552 317.298 98.6702 317.309C98.0851 317.32 97.515 317.495 97.0247 317.815C97.6171 317.244 98.0698 316.544 98.3477 315.77C98.6257 314.996 98.7212 314.168 98.6271 313.351C98.5959 312.982 98.4575 312.631 98.2289 312.34C98.0002 312.049 97.6915 311.832 97.3407 311.715C96.9899 311.597 96.6124 311.585 96.2549 311.68C95.8973 311.775 95.5754 311.972 95.3288 312.248C94.9117 312.642 94.5985 313.134 94.417 313.678C94.2355 314.223 94.1913 314.804 94.2883 315.369C94.9559 313.86 95.2349 312.207 95.0999 310.562C95.0687 310.024 94.8597 309.511 94.5057 309.105C94.1517 308.698 93.6726 308.42 93.1437 308.315C90.8443 307.857 88.1598 308.211 87.9413 310.001C88.5552 304.861 80.8037 303.04 78.421 304.351Z" fill="#4E6EF2"/>
<path opacity="0.2" d="M78.421 304.351C77.8799 305.703 78.7019 307.649 80.4083 307.608C79.6695 306.005 75.1435 305.599 73.8741 307.014C73.333 307.628 73.9573 308.731 74.6128 309.231C75.3027 309.626 76.0506 309.911 76.829 310.073C74.3527 309.189 70.5861 312.154 70.5861 314.391C70.1223 314.194 69.6002 314.182 69.1277 314.358C68.6552 314.534 68.2685 314.885 68.0474 315.338C67.7769 316.379 68.4428 317.554 70.2532 317.315C69.5688 317.845 69.0816 318.588 68.8694 319.427C68.3699 320.998 68.5364 322.476 70.2948 322.871C70.6108 322.925 70.9343 322.916 71.2467 322.845C71.5592 322.773 71.8545 322.641 72.1157 322.455C70.0347 323.183 68.3699 324.775 68.9942 326.336C69.3168 327.189 71.0752 326.856 71.0752 326.856C67.6416 329.666 69.7954 329.926 70.3676 330.175C69.2647 331.216 70.1283 332.891 71.7515 333.016C73.718 333.172 73.1665 332.725 74.4463 332.85C74.3436 333.109 74.3156 333.391 74.3656 333.665C74.4157 333.939 74.5416 334.194 74.7292 334.4C74.9168 334.606 75.1585 334.755 75.4267 334.831C75.6949 334.906 75.9789 334.905 76.2464 334.826C78.0761 334.346 79.6807 333.242 80.7829 331.705C80.4499 332.444 80.6788 333.588 81.636 333.453C83.4049 333.588 84.4349 332.236 85.465 331.258C86.3286 332.86 88.0038 333.588 90.0223 333.838C90.6719 333.936 91.3359 333.843 91.9341 333.572C92.5323 333.3 93.0392 332.862 93.3935 332.309C93.7244 331.778 93.8459 331.143 93.7344 330.527C93.6228 329.912 93.2862 329.36 92.79 328.979C93.4259 329.375 94.1326 329.643 94.8709 329.77C95.0651 329.799 95.2634 329.766 95.4384 329.678C95.6135 329.589 95.7566 329.448 95.848 329.274C95.9394 329.1 95.9746 328.903 95.9487 328.708C95.9228 328.514 95.837 328.332 95.7033 328.188C95.3999 327.881 95.1439 327.53 94.9438 327.148C95.9638 327.424 97.0365 327.442 98.0652 327.2C98.3897 327.14 98.6932 326.997 98.9463 326.785C99.1994 326.574 99.3935 326.3 99.5097 325.991C99.6259 325.682 99.6603 325.349 99.6096 325.023C99.5588 324.697 99.4247 324.389 99.2202 324.13C98.7388 323.556 98.1346 323.097 97.452 322.787C96.7695 322.477 96.0261 322.325 95.2767 322.341C97.8363 322.049 98.4606 322.07 100.479 320.561C101.083 319.687 101.239 318.366 100.333 317.752C99.8315 317.451 99.2552 317.298 98.6702 317.309C98.0851 317.32 97.515 317.495 97.0247 317.815C97.6171 317.244 98.0698 316.544 98.3477 315.77C98.6257 314.996 98.7212 314.168 98.6271 313.351C98.5959 312.982 98.4575 312.631 98.2289 312.34C98.0002 312.049 97.6915 311.832 97.3407 311.715C96.9899 311.597 96.6124 311.585 96.2549 311.68C95.8973 311.775 95.5754 311.972 95.3288 312.248C94.9117 312.642 94.5985 313.134 94.417 313.678C94.2355 314.223 94.1913 314.804 94.2883 315.369C94.9559 313.86 95.2349 312.207 95.0999 310.562C95.0687 310.024 94.8597 309.511 94.5057 309.105C94.1517 308.698 93.6726 308.42 93.1437 308.315C90.8443 307.857 88.1598 308.211 87.9413 310.001C88.5552 304.861 80.8037 303.04 78.421 304.351Z" fill="black"/>
<path d="M88.2016 332.121C87.685 333.6 86.8356 334.941 85.7189 336.039C84.6022 337.138 83.2481 337.965 81.761 338.458C80.6645 338.681 79.6107 339.078 78.6396 339.633C78.3747 339.852 78.1733 340.137 78.0564 340.46C77.9396 340.782 77.9116 341.13 77.9755 341.467C78.0393 341.805 78.1925 342.118 78.4192 342.376C78.6458 342.634 78.9376 342.826 79.2638 342.932C81.0103 343.449 82.6394 344.3 84.0605 345.439C85.7668 346.938 86.8177 349.695 86.027 351.828C84.6743 352.941 82.146 352.442 80.9286 351.193C80.502 348.915 78.0985 347.676 75.9863 346.74C73.4788 345.637 70.607 343.972 71.2417 340.83C71.4569 340.073 71.8537 339.379 72.3976 338.81C72.9416 338.24 73.6163 337.812 74.3632 337.563C84.279 334.577 85.2986 329.791 85.2986 329.791C86.4327 329.791 86.6616 329.385 87.7958 329.385C88.0928 329.768 88.2862 330.22 88.3573 330.7C88.4284 331.179 88.3747 331.669 88.2016 332.121Z" fill="#263238"/>
<path opacity="0.3" d="M88.2016 332.121C87.685 333.6 86.8356 334.941 85.7189 336.039C84.6022 337.138 83.2481 337.965 81.761 338.458C80.6645 338.681 79.6107 339.078 78.6396 339.633C78.3747 339.852 78.1733 340.137 78.0564 340.46C77.9396 340.782 77.9116 341.13 77.9755 341.467C78.0393 341.805 78.1925 342.118 78.4192 342.376C78.6458 342.634 78.9376 342.826 79.2638 342.932C81.0103 343.449 82.6394 344.3 84.0605 345.439C85.7668 346.938 86.8177 349.695 86.027 351.828C84.6743 352.941 82.146 352.442 80.9286 351.193C80.502 348.915 78.0985 347.676 75.9863 346.74C73.4788 345.637 70.607 343.972 71.2417 340.83C71.4569 340.073 71.8537 339.379 72.3976 338.81C72.9416 338.24 73.6163 337.812 74.3632 337.563C84.279 334.577 85.2986 329.791 85.2986 329.791C86.4327 329.791 86.6616 329.385 87.7958 329.385C88.0928 329.768 88.2862 330.22 88.3573 330.7C88.4284 331.179 88.3747 331.669 88.2016 332.121Z" fill="white"/>
<path d="M62.3456 357.02L75.4556 352.036C80.6308 350.078 86.3265 349.987 91.5622 351.776L106.826 356.978C92.4268 362.097 76.7032 362.097 62.304 356.978L62.3456 357.02Z" fill="#263238"/>
<path d="M110.52 372.169V372.305C110.018 373.748 109.08 375 107.834 375.886C106.588 376.771 105.098 377.247 103.569 377.247H65.6127C64.0817 377.247 62.5886 376.77 61.3411 375.882C60.0936 374.995 59.1536 373.741 58.6519 372.294V372.169C57.4548 368.752 57.4255 365.034 58.5687 361.598L60.3479 356H108.73L110.572 361.598C111.72 365.031 111.702 368.748 110.52 372.169Z" fill="#4E6EF2"/>
<g opacity="0.4">
<path d="M110.52 372.169V372.305C110.018 373.748 109.08 375 107.834 375.886C106.588 376.771 105.098 377.247 103.569 377.247H65.6127C64.0817 377.247 62.5886 376.77 61.3411 375.882C60.0936 374.995 59.1536 373.741 58.6519 372.294V372.169C57.4548 368.752 57.4255 365.034 58.5687 361.598L60.3479 356H108.73L110.572 361.598C111.72 365.031 111.702 368.748 110.52 372.169Z" fill="white"/>
</g>
<path d="M83.7275 348.498C86.0664 345.348 89.29 342.965 92.9878 341.652C93.2687 341.548 93.6953 340.851 93.4456 340.684C90.1947 341.399 87.0929 342.673 84.2789 344.451C83.1483 345.119 82.2538 346.123 81.7194 347.323C82.3645 348.207 82.6246 348.561 83.7275 348.498Z" fill="#263238"/>
<path opacity="0.3" d="M83.7275 348.498C86.0664 345.348 89.29 342.965 92.9878 341.652C93.2687 341.548 93.6953 340.851 93.4456 340.684C90.1947 341.399 87.0929 342.673 84.2789 344.451C83.1483 345.119 82.2538 346.123 81.7194 347.323C82.3645 348.207 82.6246 348.561 83.7275 348.498Z" fill="white"/>
<path d="M80.8765 301.146C80.7247 301.488 80.658 301.862 80.6819 302.235C80.7059 302.609 80.8198 302.971 81.014 303.291C81.2082 303.611 81.4769 303.879 81.7972 304.073C82.1175 304.266 82.4799 304.38 82.8534 304.403C82.1251 302.8 77.651 302.395 76.3296 303.81C75.7782 304.424 76.4129 305.527 77.0684 306.026C77.7582 306.422 78.5061 306.706 79.2846 306.869C76.7978 305.984 73.0417 308.95 73.0417 311.187C72.576 310.991 72.0533 310.98 71.5798 311.156C71.1063 311.332 70.7175 311.681 70.4925 312.134C70.222 313.174 70.8983 314.35 72.6983 314.111C72.005 314.667 71.5179 315.44 71.3145 316.306C70.8255 317.877 70.9815 319.355 72.7504 319.75C73.3884 319.856 74.0428 319.707 74.5712 319.334C72.4902 320.062 70.8255 321.654 71.4498 323.215C71.7619 324.068 73.5307 323.735 73.5307 323.735C70.1075 326.544 72.2509 326.804 72.8336 327.054C71.7203 328.095 72.5943 329.77 74.2174 329.895C76.1735 330.051 75.6325 329.603 76.9123 329.728C76.8063 329.986 76.7756 330.269 76.8236 330.544C76.8716 330.819 76.9965 331.074 77.1837 331.281C77.3709 331.488 77.6128 331.637 77.8815 331.712C78.1502 331.787 78.4346 331.785 78.7019 331.705C80.5332 331.222 82.1403 330.119 83.2488 328.584C82.9159 329.322 83.1344 330.467 84.0916 330.332C85.8604 330.467 86.8905 329.114 87.931 328.136C88.7946 329.749 90.4697 330.467 92.4779 330.717C93.1289 330.814 93.7942 330.721 94.3939 330.45C94.9937 330.179 95.5025 329.74 95.8594 329.187C96.188 328.656 96.3082 328.021 96.1968 327.406C96.0853 326.792 95.7502 326.24 95.2559 325.857C95.8897 326.258 96.5973 326.527 97.3369 326.648C97.531 326.677 97.7293 326.645 97.9044 326.556C98.0794 326.467 98.2226 326.326 98.314 326.153C98.4054 325.979 98.4406 325.781 98.4146 325.587C98.3887 325.392 98.303 325.21 98.1693 325.067C97.8599 324.762 97.6001 324.411 97.3993 324.026C98.4196 324.301 99.4919 324.318 100.521 324.078C100.844 324.017 101.147 323.873 101.399 323.661C101.65 323.448 101.843 323.175 101.958 322.866C102.073 322.558 102.107 322.224 102.055 321.899C102.004 321.574 101.87 321.267 101.665 321.009C101.203 320.426 100.617 319.954 99.9489 319.626C99.2812 319.299 98.5488 319.124 97.8051 319.115C100.375 318.824 100.989 318.845 103.008 317.336C103.611 316.462 103.767 315.141 102.862 314.527C102.361 314.228 101.787 314.076 101.204 314.087C100.621 314.098 100.053 314.272 99.5635 314.589C100.152 314.016 100.602 313.316 100.88 312.542C101.157 311.769 101.255 310.942 101.166 310.125C101.127 309.764 100.985 309.421 100.757 309.137C100.529 308.854 100.225 308.641 99.8801 308.525C99.5352 308.409 99.1644 308.394 98.8114 308.482C98.4585 308.571 98.1381 308.758 97.8884 309.023C97.4728 309.418 97.1607 309.909 96.9793 310.454C96.7978 310.998 96.7527 311.578 96.8479 312.144C97.5104 310.633 97.7892 308.982 97.6594 307.337C97.6277 306.802 97.4211 306.292 97.0715 305.886C96.7218 305.48 96.2484 305.2 95.7242 305.09C93.4247 304.632 90.7299 304.985 90.5218 306.775C91.0004 301.625 83.2384 299.835 80.8765 301.146Z" fill="#4E6EF2"/>
<path d="M92.1657 335.607C91.6826 335.337 91.1435 335.184 90.591 335.159C90.0384 335.134 89.4876 335.237 88.9819 335.461C89.0575 335.967 89.2673 336.443 89.5894 336.84C89.9114 337.237 90.334 337.541 90.8131 337.719C90.4021 337.665 89.9844 337.736 89.6136 337.921C89.2429 338.107 88.9359 338.398 88.7321 338.759C88.5623 339.11 88.5061 339.505 88.5714 339.889C88.6367 340.274 88.8202 340.628 89.0963 340.903H89.3252C89.1061 341.182 88.9871 341.527 88.9875 341.881C88.9879 342.236 89.1076 342.581 89.3273 342.859C89.5471 343.138 89.8541 343.334 90.1991 343.417C90.544 343.5 90.9069 343.465 91.2293 343.317C91.4527 343.613 91.7358 343.858 92.0603 344.037C92.3847 344.217 92.7432 344.326 93.1126 344.357C93.4792 344.361 93.8422 344.284 94.1764 344.133C94.5106 343.982 94.808 343.761 95.0479 343.483C94.923 344.066 95.6305 344.825 96.182 345.034C96.4661 345.124 96.7671 345.15 97.0625 345.108C97.3579 345.067 97.6401 344.96 97.8884 344.794C98.3781 344.457 98.7955 344.026 99.1161 343.525C99.6836 342.578 99.9276 341.472 99.8113 340.374C99.6949 339.276 99.2245 338.245 98.471 337.438C97.004 335.815 94.3507 335.388 92.1657 335.607Z" fill="#4E6EF2"/>
<path opacity="0.2" d="M92.1657 335.607C91.6826 335.337 91.1435 335.184 90.591 335.159C90.0384 335.134 89.4876 335.237 88.9819 335.461C89.0575 335.967 89.2673 336.443 89.5894 336.84C89.9114 337.237 90.334 337.541 90.8131 337.719C90.4021 337.665 89.9844 337.736 89.6136 337.921C89.2429 338.107 88.9359 338.398 88.7321 338.759C88.5623 339.11 88.5061 339.505 88.5714 339.889C88.6367 340.274 88.8202 340.628 89.0963 340.903H89.3252C89.1061 341.182 88.9871 341.527 88.9875 341.881C88.9879 342.236 89.1076 342.581 89.3273 342.859C89.5471 343.138 89.8541 343.334 90.1991 343.417C90.544 343.5 90.9069 343.465 91.2293 343.317C91.4527 343.613 91.7358 343.858 92.0603 344.037C92.3847 344.217 92.7432 344.326 93.1126 344.357C93.4792 344.361 93.8422 344.284 94.1764 344.133C94.5106 343.982 94.808 343.761 95.0479 343.483C94.923 344.066 95.6305 344.825 96.182 345.034C96.4661 345.124 96.7671 345.15 97.0625 345.108C97.3579 345.067 97.6401 344.96 97.8884 344.794C98.3781 344.457 98.7955 344.026 99.1161 343.525C99.6836 342.578 99.9276 341.472 99.8113 340.374C99.6949 339.276 99.2245 338.245 98.471 337.438C97.004 335.815 94.3507 335.388 92.1657 335.607Z" fill="black"/>
<path d="M95.7241 333.245C95.5926 332.917 95.5466 332.562 95.5904 332.211C95.6342 331.861 95.7663 331.528 95.9744 331.243C96.1825 330.958 96.4598 330.73 96.78 330.582C97.1003 330.433 97.453 330.369 97.8051 330.394C98.7519 330.675 100.261 331.559 100.344 332.548C100.372 333.045 100.254 333.539 100.004 333.97C99.7549 334.401 99.3845 334.749 98.9392 334.972C99.8861 334.109 102.591 334.764 102.976 336.013C103.361 337.261 101.853 338.614 100.729 338.01C102.612 337.958 104.776 340.58 104.579 342.453C104.284 342.752 103.932 342.988 103.544 343.148C103.156 343.308 102.74 343.387 102.32 343.382C101.901 343.378 101.486 343.288 101.102 343.12C100.718 342.951 100.371 342.707 100.084 342.401C100.999 343.015 101.863 344.68 101.291 345.627C100.982 346.085 100.515 346.413 99.979 346.548C99.443 346.682 98.8761 346.614 98.3878 346.355C96.9207 345.512 96.1299 343.775 97.2432 342.495C96.4879 342.417 95.7262 342.564 95.0542 342.917C94.3821 343.271 93.8297 343.815 93.4663 344.482C92.8004 343.317 93.6224 341.527 94.7981 340.882C93.1125 339.998 91.531 339.144 89.679 339.581C90.0847 338.333 91.042 336.772 92.3218 336.46C92.9674 336.332 93.6348 336.371 94.2611 336.574C94.8874 336.776 95.4518 337.134 95.901 337.615C94.8054 337.446 93.7988 336.912 93.0437 336.1C92.2886 335.288 91.829 334.246 91.7391 333.141C92.7067 332.194 95.9739 333.432 95.7241 333.245Z" fill="#4E6EF2"/>
<path d="M56.9143 325.296C56.7151 325.212 56.497 325.183 56.2828 325.212C56.0687 325.242 55.8663 325.328 55.6969 325.462C55.58 325.626 55.5171 325.823 55.5171 326.024C55.5171 326.225 55.58 326.422 55.6969 326.586C55.9275 326.915 56.2254 327.192 56.5709 327.397C56.3702 327.407 56.1745 327.464 55.9994 327.562C55.8244 327.661 55.6748 327.799 55.5626 327.966C55.4504 328.133 55.3787 328.323 55.3533 328.523C55.3278 328.722 55.3493 328.925 55.416 329.114C55.5751 329.496 55.8441 329.821 56.1887 330.049C56.5334 330.277 56.9381 330.397 57.3513 330.394C57.2568 330.537 57.195 330.699 57.1703 330.868C57.1456 331.038 57.1585 331.211 57.2082 331.375C57.2578 331.539 57.343 331.689 57.4577 331.817C57.5723 331.944 57.7136 332.044 57.8715 332.111C58.2006 332.228 58.5507 332.273 58.8987 332.244C59.2466 332.216 59.5846 332.113 59.8901 331.944C60.4952 331.604 61.1246 331.308 61.7733 331.06C61.832 331.426 61.9553 331.778 62.1375 332.1C62.233 332.253 62.3667 332.379 62.5254 332.465C62.6841 332.55 62.8624 332.593 63.0427 332.589C63.1321 332.583 63.219 332.557 63.2974 332.513C63.3759 332.47 63.4441 332.41 63.4974 332.338C63.5507 332.266 63.5879 332.183 63.6064 332.096C63.6249 332.008 63.6242 331.917 63.6046 331.83C64.0881 332.306 64.6759 332.662 65.3214 332.87C65.5027 332.937 65.7019 332.937 65.8832 332.87C66.1954 332.735 66.2266 332.288 66.0809 331.986C65.9352 331.684 65.6751 331.445 65.5295 331.143C65.442 330.999 65.4116 330.827 65.4443 330.661C65.4771 330.496 65.5705 330.349 65.7063 330.248C66.9847 329.728 68.094 328.864 68.911 327.751C69.0775 327.512 69.2336 327.189 69.0671 326.95C68.9856 326.864 68.8838 326.8 68.7711 326.764C68.6584 326.727 68.5383 326.72 68.422 326.742C67.5565 326.773 66.7051 326.971 65.9144 327.325C65.8981 326.759 65.9972 326.196 66.2058 325.67C66.3075 325.405 66.3408 325.118 66.3026 324.836C66.2644 324.554 66.156 324.286 65.9873 324.057C65.7453 323.859 65.4419 323.75 65.1289 323.75C64.8158 323.75 64.5124 323.859 64.2705 324.057C63.803 324.482 63.4459 325.014 63.23 325.608C62.9755 324.969 62.4938 324.446 61.8774 324.141C61.5694 323.993 61.2259 323.937 60.8869 323.977C60.5479 324.018 60.2274 324.154 59.9629 324.37C59.7133 324.599 59.5596 324.914 59.5325 325.251C59.5055 325.589 59.6072 325.925 59.8172 326.19C59.1305 326.378 58.9224 326.534 58.371 326.128C57.9442 325.758 57.4494 325.476 56.9143 325.296Z" fill="#4E6EF2"/>
<path opacity="0.2" d="M56.9143 325.296C56.7151 325.212 56.497 325.183 56.2828 325.212C56.0687 325.242 55.8663 325.328 55.6969 325.462C55.58 325.626 55.5171 325.823 55.5171 326.024C55.5171 326.225 55.58 326.422 55.6969 326.586C55.9275 326.915 56.2254 327.192 56.5709 327.397C56.3702 327.407 56.1745 327.464 55.9994 327.562C55.8244 327.661 55.6748 327.799 55.5626 327.966C55.4504 328.133 55.3787 328.323 55.3533 328.523C55.3278 328.722 55.3493 328.925 55.416 329.114C55.5751 329.496 55.8441 329.821 56.1887 330.049C56.5334 330.277 56.9381 330.397 57.3513 330.394C57.2568 330.537 57.195 330.699 57.1703 330.868C57.1456 331.038 57.1585 331.211 57.2082 331.375C57.2578 331.539 57.343 331.689 57.4577 331.817C57.5723 331.944 57.7136 332.044 57.8715 332.111C58.2006 332.228 58.5507 332.273 58.8987 332.244C59.2466 332.216 59.5846 332.113 59.8901 331.944C60.4952 331.604 61.1246 331.308 61.7733 331.06C61.832 331.426 61.9553 331.778 62.1375 332.1C62.233 332.253 62.3667 332.379 62.5254 332.465C62.6841 332.55 62.8624 332.593 63.0427 332.589C63.1321 332.583 63.219 332.557 63.2974 332.513C63.3759 332.47 63.4441 332.41 63.4974 332.338C63.5507 332.266 63.5879 332.183 63.6064 332.096C63.6249 332.008 63.6242 331.917 63.6046 331.83C64.0881 332.306 64.6759 332.662 65.3214 332.87C65.5027 332.937 65.7019 332.937 65.8832 332.87C66.1954 332.735 66.2266 332.288 66.0809 331.986C65.9352 331.684 65.6751 331.445 65.5295 331.143C65.442 330.999 65.4116 330.827 65.4443 330.661C65.4771 330.496 65.5705 330.349 65.7063 330.248C66.9847 329.728 68.094 328.864 68.911 327.751C69.0775 327.512 69.2336 327.189 69.0671 326.95C68.9856 326.864 68.8838 326.8 68.7711 326.764C68.6584 326.727 68.5383 326.72 68.422 326.742C67.5565 326.773 66.7051 326.971 65.9144 327.325C65.8981 326.759 65.9972 326.196 66.2058 325.67C66.3075 325.405 66.3408 325.118 66.3026 324.836C66.2644 324.554 66.156 324.286 65.9873 324.057C65.7453 323.859 65.4419 323.75 65.1289 323.75C64.8158 323.75 64.5124 323.859 64.2705 324.057C63.803 324.482 63.4459 325.014 63.23 325.608C62.9755 324.969 62.4938 324.446 61.8774 324.141C61.5694 323.993 61.2259 323.937 60.8869 323.977C60.5479 324.018 60.2274 324.154 59.9629 324.37C59.7133 324.599 59.5596 324.914 59.5325 325.251C59.5055 325.589 59.6072 325.925 59.8172 326.19C59.1305 326.378 58.9224 326.534 58.371 326.128C57.9442 325.758 57.4494 325.476 56.9143 325.296Z" fill="black"/>
<path d="M64.2705 331.632C63.7919 329.551 63.23 329.27 64.9468 328.011C65.6437 328.114 66.3551 328.044 67.0189 327.808C67.6826 327.572 68.2787 327.178 68.7549 326.659C69.2334 326.104 69.5765 325.446 69.7571 324.737C69.9377 324.027 69.9508 323.285 69.7954 322.57C68.5127 323.012 67.3321 323.708 66.324 324.616C65.3158 325.524 64.5007 326.626 63.9271 327.855C64.2507 327.283 64.4268 326.639 64.4395 325.981C64.4523 325.324 64.3012 324.673 63.9999 324.089C63.7743 323.589 63.406 323.167 62.9413 322.877C62.4766 322.586 61.9363 322.439 61.3883 322.455V322.674C61.3407 323.126 61.3965 323.582 61.5516 324.01C61.7066 324.437 61.9568 324.823 62.2832 325.14C62.6647 325.582 62.9186 326.12 63.0176 326.695C63.1166 327.271 63.0569 327.862 62.845 328.407C62.2415 329.926 63.1051 329.156 61.7213 330.019C61.9369 329.718 62.0839 329.373 62.152 329.009C62.2201 328.644 62.2076 328.27 62.1154 327.911C62.0232 327.552 61.8535 327.217 61.6182 326.931C61.383 326.644 61.0879 326.413 60.7536 326.253C59.9617 326.776 59.3644 327.546 59.054 328.443C58.7437 329.341 58.7376 330.315 59.0369 331.216C58.4022 329.832 56.9559 328.76 55.9154 328.989C55.2287 329.135 52.794 330.633 53.0021 332.652C54.4796 331.674 54.9166 331.819 56.5501 332.475C57.3713 332.814 58.0998 333.344 58.6752 334.02C59.2506 334.697 59.6564 335.501 59.8588 336.366C62.2936 336.387 64.8427 334.098 64.2705 331.632Z" fill="#4E6EF2"/>
<path d="M58.5686 323.766C58.5208 324.383 58.631 325.003 58.889 325.565C59.147 326.128 59.5441 326.616 60.0429 326.982C60.5418 327.349 61.1258 327.582 61.7399 327.66C62.354 327.738 62.9778 327.659 63.5525 327.429C63.178 326.794 62.793 326.211 62.4184 325.629C62.0079 325.004 61.4366 324.501 60.7647 324.173C60.0927 323.846 59.3449 323.705 58.5999 323.766H58.5686Z" fill="#4E6EF2"/>
<path opacity="0.1" d="M58.5686 323.766C58.5208 324.383 58.631 325.003 58.889 325.565C59.147 326.128 59.5441 326.616 60.0429 326.982C60.5418 327.349 61.1258 327.582 61.7399 327.66C62.354 327.738 62.9778 327.659 63.5525 327.429C63.178 326.794 62.793 326.211 62.4184 325.629C62.0079 325.004 61.4366 324.501 60.7647 324.173C60.0927 323.846 59.3449 323.705 58.5999 323.766H58.5686Z" fill="white"/>
<path d="M63.5941 329.291C63.6918 330.025 64.0295 330.705 64.5547 331.227C65.0798 331.748 65.7628 332.081 66.4971 332.173C66.683 331.464 66.6025 330.711 66.2708 330.057C65.9391 329.404 65.3792 328.894 64.697 328.625C64.2808 328.49 63.5525 328.854 63.5941 329.291Z" fill="#4E6EF2"/>
<path d="M64.2392 333.463C63.7996 333.648 63.4301 333.968 63.1843 334.377C62.9385 334.786 62.8291 335.262 62.872 335.737C62.9149 336.212 63.1078 336.661 63.4228 337.019C63.7378 337.378 64.1585 337.626 64.6242 337.729C65.8832 336.564 65.4774 334.639 64.2392 333.463Z" fill="#4E6EF2"/>
<path d="M56.727 336.731C56.6467 336.01 56.8331 335.285 57.2511 334.693C57.669 334.1 58.2895 333.681 58.9952 333.515C59.3205 333.851 59.5134 334.293 59.5382 334.759C59.5631 335.226 59.4183 335.686 59.1305 336.054C58.8848 336.445 58.5029 336.73 58.0589 336.855C57.6148 336.98 57.1402 336.935 56.727 336.731Z" fill="#4E6EF2"/>
<path opacity="0.1" d="M56.727 336.731C56.6467 336.01 56.8331 335.285 57.2511 334.693C57.669 334.1 58.2895 333.681 58.9952 333.515C59.3205 333.851 59.5134 334.293 59.5382 334.759C59.5631 335.226 59.4183 335.686 59.1305 336.054C58.8848 336.445 58.5029 336.73 58.0589 336.855C57.6148 336.98 57.1402 336.935 56.727 336.731Z" fill="white"/>
<path opacity="0.1" d="M89.9496 308.492C89.7322 307.878 89.3761 307.323 88.9091 306.869C88.6741 306.647 88.3735 306.508 88.0525 306.472C87.7316 306.437 87.4077 306.506 87.1299 306.671C86.9209 306.878 86.7581 307.127 86.6523 307.401C86.5465 307.676 86.5 307.969 86.516 308.263C86.4651 308.688 86.4934 309.118 86.5992 309.532C86.6568 309.74 86.7635 309.93 86.9101 310.088C87.0568 310.245 87.2392 310.365 87.442 310.438C86.8799 310.232 86.2801 310.151 85.6836 310.198C85.4158 310.211 85.1604 310.315 84.9598 310.493C84.7592 310.671 84.6255 310.912 84.5807 311.176C84.5871 311.402 84.6596 311.621 84.789 311.806C84.9184 311.991 85.0992 312.133 85.309 312.217C85.7265 312.378 86.1727 312.453 86.62 312.435C86.2679 312.597 85.9633 312.846 85.7355 313.16C85.5077 313.473 85.3644 313.84 85.3194 314.225C85.2828 314.358 85.2798 314.498 85.3107 314.632C85.3416 314.767 85.4054 314.891 85.4963 314.995C85.6076 315.062 85.7323 315.105 85.8617 315.119C85.9911 315.134 86.122 315.12 86.2455 315.078C87.07 314.906 87.8452 314.55 88.5137 314.038C88.3786 314.428 88.3393 314.846 88.3992 315.255C88.4471 315.471 88.5628 315.666 88.7293 315.812C88.8959 315.958 89.1046 316.047 89.3253 316.067C89.521 316.04 89.7051 315.959 89.8562 315.832C90.0072 315.704 90.119 315.537 90.1785 315.349C90.2806 314.962 90.3053 314.559 90.2513 314.162C90.6051 314.162 90.6987 314.568 90.8548 314.891C91.0735 315.329 91.4156 315.693 91.839 315.939C92.2624 316.185 92.7486 316.302 93.2375 316.275C93.7243 316.231 94.1831 316.028 94.5425 315.697C94.902 315.366 95.1418 314.925 95.2248 314.443C95.2828 313.957 95.1616 313.465 94.884 313.062C94.6064 312.658 94.1913 312.368 93.7161 312.248C94.2493 312.074 94.816 312.028 95.3705 312.113C95.6561 312.194 95.958 312.199 96.2463 312.128C96.5346 312.057 96.7994 311.912 97.0144 311.707C97.1741 311.478 97.248 311.201 97.2233 310.923C97.1986 310.645 97.0767 310.385 96.8792 310.188C96.6782 309.996 96.439 309.849 96.1773 309.755C95.9155 309.662 95.6371 309.625 95.3601 309.647C94.8036 309.685 94.2563 309.808 93.7369 310.011C94.278 310.011 94.3404 309.095 94.1219 308.596C93.9905 308.359 93.7851 308.171 93.537 308.062C93.2889 307.953 93.0119 307.929 92.7485 307.992C92.2074 308.065 90.2097 307.982 89.9496 308.492Z" fill="white"/>
<path opacity="0.1" d="M82.3852 318.044C81.649 317.956 80.9025 318.063 80.221 318.356C79.8872 318.514 79.6256 318.794 79.4887 319.137C79.3517 319.48 79.3494 319.863 79.4823 320.208C79.6341 320.433 79.8464 320.611 80.0948 320.722C80.3433 320.832 80.6178 320.87 80.887 320.832C81.4246 320.743 81.9402 320.553 82.4061 320.27C82.2443 320.557 82.1801 320.889 82.2233 321.215C82.2665 321.542 82.4146 321.846 82.6454 322.081C82.7722 322.173 82.9182 322.235 83.0725 322.263C83.2268 322.291 83.3855 322.284 83.5366 322.242C83.6876 322.2 83.8273 322.124 83.945 322.021C84.0628 321.917 84.1556 321.788 84.2165 321.644C84.543 322.122 84.7923 322.649 84.9552 323.204C85.1289 323.763 85.4984 324.239 85.9957 324.547C86.1206 324.614 86.2578 324.654 86.399 324.666C86.5402 324.679 86.6824 324.662 86.8169 324.617C86.9513 324.572 87.0752 324.5 87.1809 324.406C87.2866 324.311 87.3719 324.196 87.4316 324.068C87.4474 323.923 87.4898 323.782 87.5564 323.652C87.7125 323.433 88.0767 323.485 88.3056 323.652C88.5011 323.848 88.7174 324.022 88.9507 324.172C89.0888 324.211 89.2335 324.22 89.3755 324.2C89.5176 324.18 89.654 324.131 89.7761 324.056C89.8982 323.98 90.0035 323.881 90.0853 323.763C90.167 323.645 90.2236 323.512 90.2513 323.371C90.3372 322.791 90.2542 322.198 90.012 321.664C89.8705 321.152 89.6262 320.674 89.294 320.26C89.1227 320.057 88.8932 319.911 88.6365 319.842C88.3798 319.773 88.1082 319.785 87.8582 319.875C87.74 319.927 87.6366 320.008 87.5569 320.11C87.4772 320.212 87.4237 320.332 87.4011 320.459C87.3785 320.586 87.3875 320.717 87.4273 320.84C87.467 320.963 87.5364 321.075 87.6293 321.165C87.5044 320.634 86.9113 320.374 86.3807 320.218C85.8435 320.085 85.2865 320.049 84.7367 320.114C84.9122 319.802 84.9788 319.44 84.9261 319.086C84.8733 318.732 84.7042 318.405 84.4454 318.158C84.1608 317.918 83.806 317.777 83.4344 317.757C83.0629 317.736 82.6946 317.837 82.3852 318.044Z" fill="white"/>
<path opacity="0.1" d="M93.3623 319.136C92.8219 319.532 92.3991 320.068 92.1389 320.685C91.8787 321.302 91.7909 321.979 91.8848 322.642C91.892 322.879 91.9586 323.109 92.0787 323.313C92.1987 323.517 92.3682 323.687 92.5715 323.808C92.8267 323.878 93.0989 323.848 93.3328 323.724C93.5667 323.6 93.7447 323.392 93.8305 323.142C93.9849 322.639 94.01 322.106 93.9034 321.592C94.0182 321.924 94.2517 322.201 94.5589 322.372C94.738 322.504 94.955 322.576 95.1779 322.576C95.4009 322.576 95.6179 322.504 95.797 322.372C95.8703 322.291 95.9215 322.192 95.9455 322.086C95.9696 321.979 95.9658 321.868 95.9344 321.764C95.903 321.659 95.8451 321.564 95.7664 321.488C95.6876 321.413 95.5907 321.359 95.4849 321.331C96.4102 321.632 97.4116 321.599 98.315 321.238C98.5959 321.123 98.9081 320.946 98.9705 320.645C99.0329 320.343 98.7 319.937 98.3462 319.771C97.9551 319.664 97.5972 319.46 97.3057 319.178C97.7531 319.022 97.9092 318.543 98.0861 318.137C98.1705 317.917 98.1774 317.674 98.1055 317.449C98.0337 317.224 97.8874 317.03 97.6907 316.899C97.4409 316.822 97.176 316.806 96.9188 316.853C96.6615 316.9 96.4195 317.009 96.2132 317.169C95.2179 317.757 94.2652 318.414 93.3623 319.136Z" fill="white"/>
<path opacity="0.1" d="M83.332 309.366C81.812 309.024 80.2197 309.242 78.8475 309.98C78.5018 310.14 78.2067 310.392 77.9943 310.708C77.8946 310.867 77.848 311.053 77.8611 311.24C77.8741 311.427 77.9463 311.605 78.0672 311.749C77.7638 311.559 77.3991 311.493 77.0486 311.565C76.698 311.636 76.3885 311.84 76.1839 312.134C76.1262 312.286 76.1014 312.449 76.1113 312.612C76.1211 312.775 76.1653 312.934 76.241 313.078C76.3167 313.223 76.4221 313.35 76.5504 313.45C76.6786 313.551 76.8268 313.624 76.9851 313.663C76.8135 313.705 76.6534 313.785 76.5162 313.896C76.3791 314.007 76.2682 314.147 76.1916 314.306C76.115 314.466 76.0746 314.64 76.0733 314.816C76.0719 314.993 76.1097 315.168 76.1839 315.328C76.3406 315.664 76.5843 315.952 76.8898 316.163C77.1953 316.373 77.5515 316.498 77.9215 316.524C78.6605 316.587 79.4047 316.513 80.1169 316.306C80.2169 316.106 80.2746 315.887 80.2865 315.664C80.2985 315.44 80.2644 315.216 80.1863 315.007C80.1083 314.797 79.9879 314.605 79.8328 314.444C79.6777 314.283 79.4911 314.155 79.2845 314.069C79.6487 314.235 79.9192 313.923 80.1377 313.59C80.2413 313.418 80.2824 313.215 80.2539 313.016C80.2255 312.817 80.1294 312.634 79.9817 312.498C80.6563 312.733 81.3935 312.715 82.0559 312.447C82.7182 312.179 83.2605 311.679 83.5817 311.041C83.8522 310.51 83.8939 309.501 83.332 309.366Z" fill="white"/>
<path d="M339.04 234.597C339.04 234.597 350.798 243.961 351.526 243.795C355.688 242.942 356.458 242.577 360.984 241.714C361.618 241.587 362.209 241.302 362.702 240.884C363.196 240.467 363.575 239.931 363.805 239.327C364.035 238.723 364.107 238.07 364.016 237.431C363.925 236.791 363.673 236.185 363.284 235.669L362.753 234.961C362.332 234.395 361.761 233.957 361.105 233.696C360.449 233.435 359.734 233.361 359.038 233.484L352.411 234.639L342.807 228.469L339.04 234.597Z" fill="#FF8B7B"/>
<path d="M283.937 162.669C287.058 161.243 292.115 166.997 293.665 170.077C297.744 178.203 313.122 203.82 313.122 203.82C314.922 204.86 338.27 223.36 343.899 226.263C346.823 227.771 341.049 238.103 338.229 236.407C332.808 233.14 327.304 230.019 321.768 226.949C319.948 225.909 318.127 224.921 316.295 223.942L310.739 220.935C306.566 218.664 302.749 215.793 299.409 212.414C296.008 209.035 293.116 205.18 290.825 200.969L289.982 199.398L289.264 198.014L287.818 195.236C286.86 193.384 285.882 191.538 284.883 189.7C281.96 184.227 278.973 178.786 275.842 173.406C275.431 172.704 275.172 171.923 275.082 171.114C274.992 170.305 275.072 169.487 275.318 168.711C275.565 167.935 275.971 167.22 276.511 166.611C277.051 166.002 277.712 165.513 278.453 165.176L283.937 162.669Z" fill="#263238"/>
<path d="M333.089 318.189C318.387 328.927 276.768 309.595 256.707 299.346C236.605 309.595 194.986 328.927 180.315 318.189C156.166 300.501 189.294 273.615 197.889 268.163C206.483 262.711 216.066 259.059 225.586 255.459C235.107 251.859 246.396 257.862 256.707 258.081C266.987 257.852 278.214 251.838 287.817 255.459C297.421 259.079 306.931 262.742 315.515 268.163C324.099 273.584 357.249 300.491 333.089 318.189Z" fill="#4E6EF2"/>
<path opacity="0.2" d="M261.161 279.483C246.417 280.056 230.133 284.134 215.65 286.892C213.569 287.297 206.015 291.532 205.641 293.644C262.846 279.483 205.682 293.644 261.161 279.483Z" fill="black"/>
<path opacity="0.2" d="M258.58 279.962C273.313 280.545 289.607 284.623 304.091 287.381C306.172 287.776 313.726 292.011 314.1 294.123C256.936 279.962 314.1 294.123 258.58 279.962Z" fill="black"/>
<path d="M267.133 285.341L265.135 289.659L263.262 293.696L262.94 294.393L260.661 292.885L260.484 292.76L259.079 291.823L257.259 290.616L256.572 290.169L251.63 286.881L249.601 282.49L246.875 283.645H246.791L245.605 282.854L253.034 277.725L254.949 278.765L256.447 279.577L256.822 279.775L260.442 281.72L261.192 282.136L263.106 283.177L267.133 285.341Z" fill="#FF8B7B"/>
<path opacity="0.2" d="M262.929 294.414L257.009 291.126L261.223 282.043L267.133 285.331L262.929 294.414Z" fill="black"/>
<path d="M262.003 303.747C259.726 302.339 257.37 301.061 254.949 299.918L265.187 278.609L272.47 281.158L262.003 303.747Z" fill="#4E6EF2"/>
<path opacity="0.2" d="M262.003 303.747C259.726 302.339 257.37 301.061 254.949 299.918L265.187 278.609L272.47 281.158L262.003 303.747Z" fill="white"/>
<path d="M256.915 279.369L256.666 279.473L256.426 279.577L249.58 282.48L246.854 283.635H246.771C246.487 283.748 246.189 283.824 245.886 283.864C245.723 283.874 245.56 283.874 245.397 283.864C245.273 283.879 245.147 283.879 245.023 283.864H244.95C244.797 283.874 244.644 283.874 244.492 283.864H244.305L243.576 283.76L242.588 283.624C236.075 282.782 234.347 283.219 226.981 284.592C225.233 284.925 224.536 280.721 228.313 279.119C234.555 276.466 234.712 276.747 240.049 274.489C244.606 272.564 249.746 270.129 253.347 268.527C253.55 268.439 253.77 268.396 253.992 268.403C254.214 268.409 254.431 268.463 254.629 268.562C254.828 268.662 255.002 268.803 255.14 268.977C255.278 269.15 255.376 269.352 255.427 269.568L257.363 278.401C257.413 278.589 257.396 278.789 257.314 278.966C257.233 279.143 257.091 279.285 256.915 279.369Z" fill="#263238"/>
<path d="M263.876 277.891L271.305 283.021L253.95 294.57L249.746 285.497L263.876 277.891Z" fill="#FF8B7B"/>
<path opacity="0.2" d="M253.96 294.57L259.87 291.282L255.667 282.209L249.757 285.487L253.96 294.57Z" fill="black"/>
<path d="M260.349 297.473C260.349 297.473 258.205 299.023 256.02 300.522L253.94 301.937L247.166 287.297L245.085 282.906L244.357 281.315L250.443 279.234L251.65 278.807L252.181 279.941L252.316 280.243L253.731 283.302V283.354L255.032 286.142L256.218 288.723L257.758 292.042L257.914 292.375L258.747 294.175L260.349 297.473Z" fill="#4E6EF2"/>
<path opacity="0.2" d="M260.349 297.473C260.349 297.473 258.205 299.023 256.02 300.522L253.94 301.937L247.166 287.297L245.085 282.906L244.357 281.315L250.443 279.234L251.65 278.807L252.181 279.941L252.316 280.243L253.731 283.302V283.354L255.032 286.142L256.218 288.723L257.758 292.042L257.914 292.375L258.747 294.175L260.349 297.473Z" fill="white"/>
<path d="M270.036 283.78L259.974 279.525C259.794 279.451 259.645 279.315 259.556 279.141C259.466 278.968 259.441 278.768 259.485 278.578L261.421 269.734C261.47 269.517 261.568 269.314 261.705 269.14C261.843 268.965 262.017 268.823 262.216 268.724C262.415 268.624 262.633 268.57 262.855 268.565C263.078 268.56 263.298 268.603 263.501 268.694C267.102 270.296 272.252 272.72 276.809 274.655C282.136 276.913 282.293 276.632 288.546 279.286C292.323 280.878 291.615 285.091 289.878 284.759C281.949 283.26 280.576 282.886 272.595 284.03C271.735 284.186 270.849 284.1 270.036 283.78Z" fill="#263238"/>
<path d="M238.738 160.494C251.286 158.954 269.089 159.089 280.909 161.15C283.83 161.67 286.496 163.146 288.488 165.346C290.481 167.545 291.687 170.344 291.917 173.302C293.395 191.323 289.399 222.829 285.965 254.533C258.164 263.897 229.956 254.408 229.956 254.408C229.623 251.057 230.414 243.712 231.548 235.866C233.685 221.279 233.198 206.427 230.113 192.01C229.01 186.87 227.928 181.449 227.085 175.737C226.829 173.968 226.929 172.166 227.379 170.437C227.829 168.707 228.62 167.085 229.706 165.665C230.791 164.245 232.149 163.056 233.7 162.168C235.251 161.28 236.964 160.711 238.738 160.494Z" fill="#263238"/>
<path opacity="0.2" d="M228.531 184.269C228.531 184.269 231.528 198.836 231.944 202.894C232.36 206.951 237.552 177.589 237.552 177.589L228.531 184.269Z" fill="black"/>
<path d="M179.098 236.189C179.098 236.189 167.091 245.761 166.29 245.553C162.055 244.679 161.254 244.305 156.634 243.379C155.986 243.249 155.382 242.957 154.878 242.53C154.373 242.104 153.985 241.556 153.749 240.939C153.513 240.322 153.438 239.656 153.529 239.002C153.62 238.347 153.876 237.727 154.272 237.198L154.823 236.47C155.257 235.895 155.841 235.45 156.511 235.186C157.181 234.922 157.912 234.847 158.621 234.972L165.436 236.189L175.238 229.884L179.098 236.189Z" fill="#FF8B7B"/>
<path d="M235.409 162.669C232.204 161.212 227.085 167.101 225.472 170.243C221.31 178.567 205.588 204.735 205.588 204.735C203.747 205.776 179.889 224.702 174.135 227.626C171.149 229.166 177.048 239.727 179.93 238.031C185.466 234.691 191.095 231.496 196.744 228.365C198.607 227.324 200.469 226.284 202.342 225.243L208.023 222.174C212.289 219.849 216.19 216.911 219.604 213.454C223.08 209.995 226.035 206.048 228.375 201.739L229.239 200.136L229.946 198.732L231.424 195.891C232.402 193.997 233.4 192.114 234.42 190.241C237.406 184.644 240.465 179.087 243.67 173.594C244.088 172.875 244.351 172.077 244.441 171.251C244.532 170.425 244.449 169.589 244.197 168.797C243.945 168.005 243.53 167.275 242.979 166.653C242.428 166.031 241.752 165.532 240.996 165.187L235.409 162.669Z" fill="#263238"/>
<path d="M249.715 135.668C251.442 143.108 253.305 156.759 247.811 161.847C252.244 165.8 258.653 169.806 263.689 169.068C270.025 168.131 273.355 163.605 272.491 161.389C263.522 159.568 263.814 153.377 265.208 147.55L249.715 135.668Z" fill="#FF8B7B"/>
<path opacity="0.2" d="M255.958 140.517L265.145 147.54C264.789 148.903 264.563 150.296 264.469 151.702C261.056 151.307 256.728 148.705 255.313 145.241C254.46 143.056 255.115 140.787 255.958 140.517Z" fill="black"/>
<path d="M268.017 113.475C272.335 108.48 279.275 101.769 271.503 95.7866C269.83 96.2079 268.081 96.2228 266.401 95.83C264.721 95.4372 263.16 94.6482 261.847 93.5287C257.914 90.272 252.358 90.4073 249.226 90.272C250.083 91.4674 250.545 92.9007 250.548 94.3715C249.85 102.695 243.004 110.728 240.403 118.511C239.559 120.819 239.559 123.351 240.403 125.659C241.719 128.414 243.957 130.622 246.729 131.902C252.422 128.017 258.327 124.453 264.417 121.226C264.802 121.226 264.896 120.602 264.948 120.238C265.324 117.742 266.386 115.401 268.017 113.475Z" fill="#263238"/>
<path d="M246.708 124.462C247.749 134.461 247.863 140.371 253.159 145.272C261.119 152.68 273.303 147.55 275.259 137.427C277.017 128.322 274.999 113.496 265 109.927C262.797 109.128 260.427 108.906 258.115 109.283C255.802 109.661 253.625 110.624 251.791 112.082C249.957 113.539 248.527 115.442 247.637 117.61C246.747 119.777 246.427 122.136 246.708 124.462Z" fill="#FF8B7B"/>
<path d="M269.11 112.372C267.362 111.695 267.58 111.737 265.884 112.517C261.66 110.437 256.426 111.924 254.72 112.424C255.197 114.123 255.504 115.866 255.636 117.626C255.818 118.675 255.614 119.754 255.063 120.664C254.429 121.528 253.305 121.861 252.452 122.516C251.803 123.097 251.304 123.826 250.998 124.642C250.692 125.457 250.587 126.334 250.693 127.199C250.839 128.926 248.8 129.925 246.791 130.164C245.565 128.309 244.89 126.144 244.846 123.921C242.494 115.597 252.441 108.73 252.254 108.314C257.388 107.08 262.768 107.343 267.757 109.073C268.432 110.067 268.893 111.19 269.11 112.372Z" fill="#263238"/>
<path d="M242.765 133.025C243.583 135.418 245.315 137.389 247.582 138.509C250.61 139.965 252.701 137.406 252.358 134.243C252.046 131.402 250.09 127.219 246.823 127.084C243.556 126.949 241.787 130.06 242.765 133.025Z" fill="#FF8B7B"/>
<path d="M267.976 126.939C267.976 126.939 270.452 131.371 272.793 133.348C271.544 134.877 269.016 134.596 269.016 134.596L267.976 126.939Z" fill="#FF5652"/>
<path d="M266.623 138.894C265.706 138.828 264.813 138.574 263.998 138.148C263.184 137.722 262.466 137.133 261.889 136.417C261.852 136.366 261.837 136.302 261.846 136.24C261.856 136.178 261.89 136.122 261.941 136.084C261.992 136.047 262.056 136.032 262.118 136.042C262.18 136.052 262.236 136.086 262.274 136.136C262.928 136.916 263.758 137.53 264.694 137.93C265.63 138.329 266.648 138.503 267.663 138.436C267.695 138.434 267.726 138.439 267.756 138.45C267.785 138.461 267.813 138.477 267.836 138.499C267.859 138.52 267.878 138.545 267.891 138.574C267.904 138.602 267.912 138.633 267.913 138.665C267.916 138.697 267.912 138.729 267.902 138.759C267.892 138.789 267.875 138.817 267.854 138.84C267.832 138.864 267.806 138.883 267.777 138.895C267.748 138.908 267.716 138.915 267.684 138.914C267.33 138.934 266.976 138.927 266.623 138.894Z" fill="#263238"/>
<path d="M264.854 128.458C261.858 129.373 260.339 128.25 260.234 128.187C260.181 128.153 260.143 128.098 260.129 128.036C260.115 127.973 260.127 127.908 260.162 127.854C260.196 127.8 260.251 127.762 260.313 127.749C260.375 127.735 260.441 127.747 260.495 127.781C260.495 127.781 262.399 129.134 265.697 127.646C265.754 127.621 265.818 127.619 265.876 127.64C265.934 127.662 265.982 127.705 266.009 127.761C266.025 127.789 266.034 127.82 266.037 127.852C266.039 127.885 266.035 127.917 266.024 127.948C266.014 127.978 265.996 128.006 265.974 128.029C265.952 128.053 265.925 128.071 265.895 128.083C265.558 128.234 265.21 128.359 264.854 128.458Z" fill="#263238"/>
<path d="M274.739 127.292C271.898 128.624 270.712 127.729 270.577 127.677C270.519 127.652 270.474 127.605 270.45 127.547C270.427 127.488 270.428 127.423 270.452 127.365C270.464 127.335 270.483 127.308 270.506 127.286C270.529 127.263 270.556 127.245 270.587 127.234C270.617 127.222 270.649 127.217 270.681 127.218C270.714 127.219 270.745 127.227 270.775 127.24C270.775 127.24 272.377 128.281 275.384 126.366C275.438 126.332 275.503 126.32 275.565 126.334C275.628 126.347 275.682 126.385 275.717 126.439C275.751 126.493 275.763 126.558 275.749 126.621C275.736 126.683 275.698 126.738 275.644 126.772C275.356 126.968 275.053 127.142 274.739 127.292Z" fill="#263238"/>
<path d="M260.391 123.141C260.309 123.132 260.23 123.103 260.162 123.058C260.109 123.022 260.065 122.977 260.031 122.924C259.996 122.871 259.973 122.811 259.962 122.749C259.952 122.687 259.954 122.623 259.968 122.562C259.983 122.5 260.01 122.442 260.047 122.392C260.466 121.754 261.031 121.226 261.695 120.852C262.36 120.477 263.104 120.267 263.866 120.238C263.992 120.243 264.111 120.297 264.198 120.388C264.285 120.479 264.334 120.601 264.334 120.727C264.333 120.791 264.319 120.853 264.293 120.912C264.267 120.97 264.229 121.022 264.183 121.066C264.136 121.11 264.081 121.144 264.022 121.166C263.962 121.188 263.898 121.198 263.835 121.195C263.233 121.226 262.647 121.399 262.126 121.701C261.605 122.003 261.163 122.426 260.838 122.933C260.787 123.002 260.719 123.058 260.641 123.094C260.563 123.131 260.477 123.147 260.391 123.141Z" fill="#263238"/>
<path d="M275.113 122.849C275.035 122.842 274.96 122.815 274.895 122.771C274.83 122.728 274.776 122.669 274.739 122.6C274.475 122.052 274.083 121.577 273.595 121.215C273.108 120.852 272.54 120.613 271.94 120.519C271.814 120.506 271.698 120.444 271.616 120.347C271.535 120.25 271.494 120.125 271.503 119.999C271.505 119.936 271.521 119.874 271.548 119.817C271.576 119.76 271.615 119.71 271.662 119.669C271.71 119.628 271.766 119.597 271.826 119.579C271.887 119.56 271.95 119.554 272.013 119.562C272.769 119.667 273.489 119.954 274.11 120.398C274.732 120.842 275.236 121.429 275.582 122.111C275.612 122.166 275.631 122.226 275.638 122.289C275.645 122.352 275.638 122.415 275.62 122.475C275.601 122.536 275.571 122.591 275.531 122.64C275.49 122.688 275.44 122.727 275.384 122.756C275.305 122.813 275.211 122.845 275.113 122.849Z" fill="#263238"/>
<path d="M262.721 173.417L256.478 166.976C258.237 166.706 259.829 165.936 261.587 165.665C263.117 167.892 263.169 170.753 262.721 173.417Z" fill="#4E6EF2"/>
<path opacity="0.2" d="M262.721 173.417L256.478 166.976C258.237 166.706 259.829 165.936 261.587 165.665C263.117 167.892 263.169 170.753 262.721 173.417Z" fill="black"/>
<path d="M261.972 166.092C258.476 168.298 258.996 168.641 255.375 173.105C251.526 169.505 244.898 165.01 242.151 160.515C243.099 157.806 245.03 155.551 247.561 154.199C253.013 157.305 257.889 161.328 261.972 166.092Z" fill="#4E6EF2"/>
<g opacity="0.2">
<path d="M261.972 166.092C258.476 168.298 258.996 168.641 255.375 173.105C251.526 169.505 244.898 165.01 242.151 160.515C243.099 157.806 245.03 155.551 247.561 154.199C253.013 157.305 257.889 161.328 261.972 166.092Z" fill="white"/>
</g>
<path d="M264.188 165.322C262.883 167.716 262.383 170.467 262.763 173.167C264.584 170.774 266.259 168.412 268.08 166.019C266.865 165.453 265.524 165.213 264.188 165.322Z" fill="#4E6EF2"/>
<path opacity="0.2" d="M264.188 165.322C262.883 167.716 262.383 170.467 262.763 173.167C264.584 170.774 266.259 168.412 268.08 166.019C266.865 165.453 265.524 165.213 264.188 165.322Z" fill="black"/>
<path d="M270.525 172.491C268.2 170.313 266.02 167.984 264.001 165.52C265.634 162.689 266.195 159.365 265.583 156.155C266.863 155.743 268.243 155.762 269.512 156.209C270.78 156.657 271.867 157.507 272.606 158.632C274.791 162.065 271.898 168.703 270.525 172.491Z" fill="#4E6EF2"/>
<path opacity="0.2" d="M270.525 172.491C268.2 170.313 266.02 167.984 264.001 165.52C265.634 162.689 266.195 159.365 265.583 156.155C266.863 155.743 268.243 155.762 269.512 156.209C270.78 156.657 271.867 157.507 272.606 158.632C274.791 162.065 271.898 168.703 270.525 172.491Z" fill="white"/>
<path d="M256.041 317.69C253.07 317.698 250.127 317.099 247.395 315.931C247.331 315.905 247.273 315.867 247.224 315.818C247.175 315.769 247.137 315.711 247.111 315.647C247.084 315.583 247.071 315.514 247.072 315.445C247.072 315.376 247.087 315.308 247.114 315.245C247.171 315.119 247.274 315.021 247.403 314.97C247.531 314.92 247.674 314.921 247.801 314.974C250.568 316.149 253.555 316.719 256.561 316.646C259.567 316.572 262.522 315.857 265.229 314.547C265.353 314.487 265.496 314.478 265.627 314.523C265.758 314.568 265.865 314.663 265.926 314.787C265.987 314.911 265.995 315.054 265.951 315.185C265.906 315.316 265.811 315.423 265.687 315.484C262.681 316.942 259.382 317.696 256.041 317.69Z" fill="#4E6EF2"/>
<path d="M254.616 325.202C247.99 325.214 241.418 324.018 235.221 321.675C235.157 321.65 235.098 321.613 235.048 321.566C234.998 321.519 234.958 321.462 234.93 321.399C234.902 321.336 234.887 321.269 234.885 321.2C234.883 321.131 234.895 321.063 234.92 320.998C234.944 320.934 234.981 320.875 235.028 320.826C235.076 320.776 235.132 320.736 235.195 320.708C235.258 320.68 235.326 320.664 235.394 320.662C235.463 320.66 235.532 320.672 235.596 320.697C247.966 325.36 261.619 325.315 273.958 320.572C274.023 320.547 274.091 320.536 274.16 320.537C274.228 320.539 274.296 320.555 274.359 320.583C274.422 320.611 274.478 320.651 274.526 320.701C274.573 320.751 274.61 320.809 274.635 320.874C274.659 320.938 274.671 321.006 274.669 321.075C274.667 321.144 274.652 321.211 274.624 321.274C274.596 321.337 274.556 321.394 274.506 321.441C274.456 321.488 274.397 321.525 274.333 321.55C268.043 323.977 261.358 325.215 254.616 325.202Z" fill="#4E6EF2"/>
</svg>
