<svg width="203" height="64" viewBox="0 0 203 64" fill="none" xmlns="http://www.w3.org/2000/svg">
<path d="M72.4875 21.8607C74.9911 19.4037 76.5432 19.3286 76.5432 19.3286C77.1192 19.3235 77.6896 19.4405 78.217 19.6719C79.4026 20.0832 79.4688 20.7305 79.4688 20.7305V38.7381C79.6226 43.7737 78.3672 45.7068 76.8687 47.0534C76.4139 47.466 75.8493 47.7381 75.2432 47.8366C75.196 47.8485 75.1467 47.8495 75.0991 47.8397C75.0514 47.8298 75.0065 47.8094 74.9679 47.7798C74.9292 47.7502 74.8977 47.7124 74.8757 47.6689C74.8537 47.6255 74.8418 47.5777 74.8408 47.529C74.8657 47.181 74.9404 46.8384 75.0626 46.5115C75.819 44.5677 75.7564 41.2273 75.7564 41.2273L75.8279 21.8428C75.8279 21.8428 75.887 21.4852 75.5847 21.6318C72.6306 24.1711 72.2586 27.7583 72.1639 29.4965C72.1156 32.1019 73.2225 33.4485 73.2225 33.4485C73.3077 33.5277 73.3746 33.6247 73.4184 33.7325C73.4623 33.8403 73.4821 33.9563 73.4764 34.0726C73.4822 34.1346 73.4743 34.1971 73.4531 34.2557C73.432 34.3144 73.3982 34.3676 73.3541 34.4116C73.3101 34.4557 73.2568 34.4895 73.1982 34.5106C73.1396 34.5318 73.0771 34.5397 73.0151 34.5339C71.9028 34.4266 70.1288 33.1749 69.4994 31.6549C69.1686 30.9215 68.9886 30.1291 68.9701 29.3248C69.2497 26.504 70.4977 23.8671 72.5018 21.8625L72.4875 21.8607ZM201.491 39.051C201.491 44.8342 197.986 44.743 197.986 44.743C194.649 44.8592 193.798 41.3382 193.59 37.7581C193.429 35.0632 193.59 32.0662 193.59 32.0662C193.59 32.0662 193.59 31.9285 193.474 32.0662C192.357 34.0869 191.6 37.1626 191.228 39.5374C191.065 40.5896 190.966 41.6508 190.931 42.7151C190.949 42.8158 190.936 42.9194 190.896 43.0134C190.856 43.1073 190.789 43.1875 190.704 43.2444C188.893 44.076 187.729 42.8957 187.315 41.576C186.786 40.3242 186.446 32.8065 186.446 32.4149C186.446 32.0232 186.133 32.2933 186.133 32.2933C183.623 36.4599 183.601 42.6364 183.601 43.8757C183.601 45.1149 181.482 44.734 181.482 44.734C179.671 44.5963 179.741 43.7147 179.741 43.7147L179.656 42.2216C179.027 43.3839 177.861 44.8681 176.062 44.768C173.34 44.5928 172.816 41.7763 172.772 41.2988C172.772 41.2988 171.416 44.8038 167.693 44.768C165.161 44.7251 164.145 42.1214 164.145 42.1214C164.145 42.1214 163.126 44.8574 160.64 44.768C158.155 44.6786 156.098 41.7995 156.256 38.0693C156.289 36.1807 156.542 34.3024 157.008 32.4721C157.008 32.4721 157.211 32.1144 156.871 32.0751C156.531 32.0358 154.382 32.1109 154.382 32.1109C154.382 32.1109 153.166 36.9874 148.026 43.0513L148.062 47.0569C148.062 51.0447 147.565 56.3915 142.161 56.8279C137.49 56.5096 137.755 52.9116 137.755 52.9116C137.644 51.853 138.309 49.9038 141.099 47.2876L144.997 43.6647L144.886 41.9909C143.101 44.9415 140.374 44.7769 140.374 44.7769C140.374 44.7769 138.255 45.2061 136.494 42.0713C135.965 43.13 134.788 44.979 132.851 44.7662C130.129 44.4622 129.589 41.753 129.547 41.2702C129.547 41.2702 128.187 44.8073 124.441 44.7662C121.902 44.7233 120.877 42.0928 120.877 42.0928C120.595 41.5119 120.38 40.9005 120.237 40.2706L120.126 40.5996C119.549 42.0767 118.123 44.6446 115.933 44.6768C111.909 44.6768 111.739 38.4394 111.739 38.4394C110.564 41.2291 108.292 44.7519 104.055 44.7304C99.8189 44.709 99.2896 43.1783 99.2896 42.9565C99.2752 42.7443 99.3044 42.5313 99.3754 42.3308C99.4465 42.1303 99.5578 41.9464 99.7027 41.7906C100.189 41.086 100.597 40.7945 100.954 40.7945C101.308 40.8933 101.633 41.0748 101.902 41.3239C102.437 41.8362 103.13 42.1531 103.867 42.2233C105.201 42.1751 105.495 41.1057 105.588 40.0149C105.681 38.924 104.908 37.7581 103.841 36.7853L101.956 35.065L98.4187 40.8911C96.3587 44.244 94.3147 44.7626 93.5261 44.6571C92.4532 44.5087 91.4071 43.3964 91.3445 40.14L91.5877 31.0379C91.5877 30.7464 91.323 30.8895 91.323 30.8895C87.2512 35.2099 86.0298 44.0974 86.0298 44.2709C85.959 44.3971 85.852 44.4993 85.7226 44.5643C85.5933 44.6294 85.4474 44.6542 85.3038 44.6357C84.939 44.6357 85.4254 44.6357 83.9698 44.5641C82.5142 44.4926 82.6143 41.762 82.6143 41.762L82.7091 28.5237C82.7091 28.0838 83.1436 27.8942 84.5259 28.259C85.9082 28.6238 85.8599 29.053 85.8599 29.053L85.8117 36.7424C89.3756 26.2312 92.0651 27.8781 93.6924 28.6828C95.3197 29.4875 95.0747 30.6427 95.0747 30.6427L94.8315 38.4573C94.76 40.4959 95.0461 41.2952 95.5111 41.3721C96.6663 41.6475 100.722 33.8204 100.722 33.8204C98.9266 31.8766 99.9065 29.5036 101.305 28.4772C101.933 28.0415 102.663 27.7737 103.424 27.6993C103.424 27.6993 105.241 27.6045 105.194 29.1352C105.243 30.809 103.377 32.8423 103.377 32.8423C106.99 35.4173 108.671 36.7764 108.953 38.7685C109.034 39.2944 108.998 39.8316 108.848 40.3421C111.416 38.1068 111.612 35.6087 111.612 35.6087L111.655 27.2522L107.846 27.204C107.846 27.204 107.555 27.204 107.489 26.4708C107.463 26.1228 107.513 25.7733 107.634 25.4462C107.756 25.1192 107.947 24.8221 108.193 24.5752L111.827 24.6235L111.97 20.2549C112.092 19.3786 112.649 19.2588 114.246 19.6719C115.843 20.085 115.834 20.4498 115.834 20.4498L115.656 24.8453L120.189 25.0885C120.725 25.1368 120.893 25.2673 120.772 26.1614C120.767 26.3882 120.704 26.61 120.589 26.8057C120.474 27.0013 120.311 27.1643 120.115 27.2791L115.609 27.3738L115.296 37.0661C115.296 38.5682 115.368 42.1178 116.773 42.0731C118.74 42.1679 119.897 37.7724 119.897 37.7724V37.7367C119.871 36.9255 119.901 36.1135 119.987 35.3064C120.357 31.7747 121.954 27.6385 125.548 27.6385C126.248 27.6538 126.93 27.859 127.523 28.2323C128.115 28.6055 128.594 29.1328 128.91 29.7576L128.969 28.9636C128.969 28.9636 128.89 28.0051 130.408 28.2429C131.927 28.4808 132.447 29.0798 132.411 29.5608L132.29 39.3479C132.492 41.4669 132.857 42.7062 133.931 42.6203C134.858 42.4826 135.519 41.2166 135.913 40.1418C134.568 28.9582 140.678 27.6009 140.678 27.6009C140.678 27.6009 143.389 27.4221 144.623 29.661L144.659 28.9099C144.659 28.9099 144.537 27.9192 145.971 28.1946C146.392 28.2591 146.806 28.3658 147.205 28.5129C147.84 28.7508 148.042 28.9099 148.042 29.5036L147.921 40.5496C147.921 40.5496 151.098 36.2703 151.908 32.1091C151.592 31.8722 151.333 31.5677 151.15 31.2178C150.967 30.8678 150.864 30.4813 150.85 30.0866C150.928 28.8956 151.529 27.4704 153.282 27.4704C155.034 27.4704 155.177 29.0226 154.918 30.0812C154.918 30.0812 156.39 29.9024 157.667 29.5519C158.943 29.2014 160.653 29.0226 160.774 31.0183C160.82 31.4562 160.737 31.8979 160.537 32.2897C160.537 32.2897 159.525 36.7066 159.684 38.4913C159.843 40.276 160.318 42.9708 161.717 42.6543C163.115 42.3378 163.591 40.3564 163.591 40.3564C163.242 38.7285 163.147 37.0564 163.31 35.3994C163.68 31.8945 165.249 27.7905 168.85 27.7905C169.548 27.8066 170.228 28.0123 170.818 28.3856C171.408 28.7589 171.885 29.2857 172.198 29.9096L172.241 29.1156C172.241 29.1156 172.162 28.1624 173.677 28.4003C175.191 28.6381 175.71 29.2318 175.667 29.7057L175.545 39.4158C175.747 41.5349 176.107 42.7527 177.176 42.6668C178.246 42.581 179.077 40.8929 179.617 39.4891V38.9598L179.649 28.6488C179.665 28.4894 179.734 28.3401 179.847 28.2264C179.96 28.1126 180.109 28.0414 180.268 28.0248L181.507 28.2161C183.242 28.4754 183 29.137 183 29.137V34.9631C184.288 31.0075 184.907 29.4983 185.49 28.4897C185.987 27.6313 187.609 28.1928 187.609 28.1928C187.609 28.1928 189.379 28.6649 189.397 30.3119C189.343 33.0014 189.726 37.3808 189.726 37.3808C189.726 37.3808 189.794 37.4702 189.826 37.4398C189.844 37.4114 189.853 37.3785 189.853 37.345C190.354 34.3637 191.225 31.4567 192.448 28.6918C193.088 27.4901 194.942 28.3431 194.942 28.3431C197.167 29.1048 196.865 30.4246 196.865 30.4246C196.208 41.7316 197.607 42.4451 198.433 42.5202C199.259 42.5953 199.694 41.5241 199.872 41.0181C200.051 40.512 200.284 39.3979 200.402 38.958C200.441 38.8332 200.516 38.7227 200.618 38.6406C200.72 38.5584 200.844 38.5084 200.974 38.4967C201.107 38.5166 201.231 38.5788 201.326 38.6741C201.421 38.7694 201.483 38.8927 201.503 39.026L201.491 39.051ZM126.439 30.387C125.661 30.4192 123.828 30.9163 123.499 36.02C123.17 41.1236 124.522 42.4326 125.659 42.5828C126.796 42.733 128.837 40.9018 128.931 35.4835C129.026 30.0651 126.439 30.387 126.439 30.387ZM142.408 30.387C141.614 30.4192 139.621 31.113 139.171 36.0432C138.836 41.2005 140.229 42.5345 141.363 42.6901C142.497 42.8456 144.541 40.9912 144.684 35.4978C144.827 30.0043 142.408 30.4138 142.408 30.4138V30.387ZM145.054 46.2057C140.542 50.1041 140.151 52.8884 140.151 52.8884C140.151 52.8884 139.704 55.1702 141.876 55.2846C144.487 55.5493 144.927 52.3769 144.995 49.6016L145.079 46.2344L145.054 46.2057ZM169.821 30.5676C169.043 30.5998 167.21 31.0969 166.881 36.2006C166.552 41.3042 167.904 42.6132 169.041 42.7634C170.179 42.9136 172.219 41.0824 172.314 35.6641C172.409 30.2457 169.821 30.5676 169.821 30.5676Z" fill="#16375F"/>
<path d="M32.602 15.7088C32.0397 15.7088 31.4835 15.7375 30.9355 15.7936C30.3875 15.8497 29.8471 15.9329 29.3159 16.0421C28.7848 16.1513 28.263 16.2865 27.7517 16.4461L26.2509 16.9971L24.8221 17.6871L23.4737 18.5075L22.2139 19.4498L21.0513 20.5058L19.9943 21.6674L19.051 22.9258L18.2295 24.2729L17.5391 25.7001C17.3316 26.1883 17.1471 26.6887 16.9873 27.1996C16.8275 27.7105 16.6923 28.2321 16.5829 28.7626C16.4735 29.2932 16.3903 29.833 16.334 30.3806C16.2777 30.9281 16.2494 31.4837 16.2494 32.0454C16.2494 32.6071 16.2781 33.1627 16.334 33.7103C16.3896 34.2535 16.4727 34.7936 16.5829 35.3284C16.6923 35.861 16.8275 36.3805 16.9873 36.8914C17.1471 37.4023 17.3314 37.9026 17.5391 38.3909L18.2295 39.8182L19.051 41.1651L19.9943 42.4237L21.0513 43.5852L22.2139 44.6412L23.4737 45.5835L24.8221 46.404L26.2509 47.0939L27.7517 47.645L29.3159 48.049C29.8513 48.1591 30.3918 48.2421 30.9355 48.2976C31.4892 48.3541 32.0454 48.3824 32.602 48.3822C33.1643 48.3822 33.7205 48.3536 34.2683 48.2976C34.812 48.2421 35.3525 48.1591 35.8878 48.049L37.4523 47.645L38.953 47.0939L40.3817 46.404L41.7302 45.5835L42.9901 44.6412L44.1528 43.5852L45.2099 42.4237L46.1532 41.1651L46.9747 39.8182L47.665 38.3909L48.2169 36.8914C48.3767 36.3805 48.5119 35.859 48.6213 35.3284L48.8702 33.7101C48.9263 33.1625 48.955 32.6069 48.955 32.0452C48.955 31.4835 48.9263 30.9279 48.8702 30.3804C48.8146 29.8372 48.7315 29.2972 48.6213 28.7624C48.5119 28.2298 48.3767 27.7105 48.2169 27.1994L47.665 25.6999L46.9747 24.2727L46.1532 22.9256L45.2099 21.6672L44.1528 20.5056L42.9901 19.4496L41.7302 18.5073L40.3817 17.6869L38.953 16.9969L37.4523 16.4459L35.8878 16.0419L34.2683 15.7934C33.7146 15.7369 33.1585 15.7085 32.602 15.7086V15.7088ZM32.602 21.3476C32.9738 21.3476 33.3407 21.366 33.7021 21.4025L34.7673 21.5637L35.7963 21.8259L36.7816 22.1838L37.7184 22.6324L38.5993 23.1661L39.4228 23.78L40.182 24.4687L40.8713 25.2271L41.4859 26.0498L42.0201 26.9319L42.4687 27.8681C42.6035 28.1884 42.7232 28.5168 42.8272 28.8526C42.9313 29.1883 43.0188 29.5315 43.0894 29.8809C43.1601 30.2304 43.2124 30.586 43.2507 30.9472L43.3056 32.0464C43.3056 32.4178 43.2871 32.7845 43.2507 33.1459C43.2142 33.5072 43.1605 33.8629 43.0894 34.2122C43.0184 34.5614 42.9307 34.9046 42.8272 35.2405L42.4687 36.225L42.0201 37.1612L41.4859 38.0431L40.8713 38.866L40.182 39.6244L39.4228 40.3131L38.5993 40.927L37.7184 41.4607L36.7816 41.9093L35.7963 42.2672L34.7673 42.5294L33.7021 42.6904C33.3364 42.727 32.9692 42.7454 32.6018 42.7453C32.2343 42.7454 31.867 42.727 31.5013 42.6904L30.4361 42.5294C30.0864 42.4585 29.7431 42.3708 29.4069 42.2672L28.4216 41.9093L27.4848 41.4607L26.6039 40.927L25.7804 40.3131L25.0212 39.6244L24.3319 38.866L23.7173 38.0431L23.1831 37.1612L22.7344 36.225L22.3759 35.2405L22.1137 34.2122L21.9525 33.1459C21.9158 32.7806 21.8975 32.4136 21.8976 32.0464C21.8975 31.6793 21.9158 31.3125 21.9525 30.9472C21.9888 30.586 22.0426 30.2302 22.1137 29.8809C22.1841 29.5341 22.2717 29.1909 22.3761 28.8528L22.7346 27.8683L23.1833 26.9321L23.7175 26.05L24.3321 25.2273L25.0214 24.4689L25.7806 23.7802L26.6041 23.1663L27.485 22.6326L28.4218 22.184C28.7442 22.0486 29.0731 21.9292 29.4073 21.8261L30.4365 21.5639C30.7862 21.493 31.1422 21.4389 31.5017 21.4027C31.8674 21.366 32.2347 21.3477 32.6022 21.3478L32.602 21.3476Z" fill="url(#paint0_radial_43_2)"/>
<path d="M49.6179 11.0615C49.4881 11.0615 49.3583 11.0681 49.2291 11.0812C49.0999 11.0942 48.9714 11.1138 48.8442 11.1398C48.717 11.1657 48.5911 11.198 48.4671 11.2366C48.343 11.2753 48.221 11.3201 48.1014 11.371C47.9818 11.422 47.8648 11.4789 47.7509 11.5417C47.6369 11.6043 47.5262 11.6726 47.419 11.7463C47.3118 11.8201 47.2084 11.8993 47.1091 11.9835C47.0098 12.0677 46.9148 12.1568 46.8243 12.2505C46.7339 12.3442 46.6482 12.4425 46.5675 12.5448C46.4868 12.6472 46.4112 12.7536 46.3411 12.8636C46.271 12.9735 46.2064 13.0868 46.1475 13.2032C46.0886 13.3197 46.0354 13.4391 45.9883 13.5609C45.9413 13.6827 45.9003 13.8068 45.8656 13.9327C45.8309 14.0586 45.8025 14.1862 45.7804 14.315C45.7583 14.4437 45.7427 14.5735 45.7335 14.7038C45.727 14.7961 45.7237 14.8886 45.7237 14.9812C45.7237 15.1119 45.7302 15.2425 45.7431 15.3726C45.7561 15.5027 45.7755 15.6319 45.8013 15.76C45.8271 15.8881 45.8592 16.0148 45.8976 16.1396C45.936 16.2645 45.9806 16.3873 46.0311 16.5077C46.0817 16.6281 46.1383 16.7459 46.2006 16.8607C46.2628 16.9754 46.3307 17.0869 46.404 17.1948C46.4773 17.3026 46.5559 17.4067 46.6396 17.5066C46.7232 17.6066 46.8117 17.7023 46.9048 17.7934C46.998 17.8844 47.0956 17.9707 47.1974 18.0519C47.2991 18.1332 47.4048 18.2093 47.5141 18.2799C47.6234 18.3505 47.7361 18.4156 47.8519 18.4749C47.9676 18.5342 48.0861 18.5877 48.2071 18.6351C48.3281 18.6825 48.4514 18.7237 48.5764 18.7586C48.7015 18.7935 48.8283 18.8221 48.9562 18.8443C49.0842 18.8665 49.2131 18.8823 49.3426 18.8916C49.4343 18.8981 49.5262 18.9014 49.6181 18.9014C49.748 18.9015 49.8777 18.895 50.0069 18.882C50.1361 18.8689 50.2646 18.8494 50.3919 18.8234C50.5191 18.7974 50.645 18.7651 50.769 18.7265C50.893 18.6879 51.0151 18.643 51.1347 18.5921C51.2542 18.5412 51.3712 18.4843 51.4852 18.4217C51.5991 18.359 51.7099 18.2906 51.817 18.2168C51.9242 18.1431 52.0276 18.064 52.127 17.9798C52.2262 17.8956 52.3213 17.8064 52.4117 17.7127C52.5022 17.6189 52.5879 17.5207 52.6686 17.4183C52.7493 17.3159 52.8248 17.2095 52.895 17.0995C52.9651 16.9896 53.0297 16.8761 53.0885 16.7597C53.1475 16.6432 53.2006 16.5238 53.2477 16.402C53.2947 16.2802 53.3357 16.1561 53.3704 16.0302C53.4051 15.9043 53.4336 15.7767 53.4556 15.648C53.4777 15.5192 53.4934 15.3895 53.5025 15.2591C53.5091 15.1668 53.5124 15.0743 53.5124 14.9818C53.5124 14.8511 53.5059 14.7205 53.4929 14.5905C53.48 14.4605 53.4605 14.3312 53.4347 14.2031C53.409 14.0751 53.3768 13.9484 53.3385 13.8235C53.3001 13.6987 53.2555 13.5758 53.2049 13.4554C53.1543 13.335 53.0978 13.2172 53.0355 13.1024C52.9733 12.9877 52.9054 12.8762 52.8321 12.7683C52.7587 12.6604 52.68 12.5563 52.5963 12.4563C52.5127 12.3564 52.4243 12.2606 52.3312 12.1695C52.238 12.0785 52.1404 11.9922 52.0387 11.911C51.9369 11.8298 51.8312 11.7538 51.722 11.6832C51.6127 11.6126 51.4999 11.5475 51.3842 11.4882C51.2685 11.4289 51.1499 11.3754 51.0289 11.328C50.9079 11.2807 50.7847 11.2394 50.6596 11.2045C50.5345 11.1695 50.4077 11.1409 50.2798 11.1187C50.1519 11.0965 50.0229 11.0807 49.8934 11.0715C49.8017 11.065 49.7098 11.0617 49.6179 11.0617V11.0615Z" fill="url(#paint1_radial_43_2)"/>
<path d="M29.5009 0.0854689C27.7224 0.082601 26.1352 0.0899747 24.7094 0.11005L20.8869 0.212477C19.7544 0.261642 18.7539 0.325756 17.8559 0.408721C17.4068 0.450102 16.9832 0.496399 16.5817 0.547407C16.1996 0.595564 15.8186 0.65164 15.4388 0.715595C15.0772 0.777051 14.7341 0.84342 14.4051 0.915528C14.0761 0.987636 13.7619 1.06548 13.4587 1.14906C13.1623 1.23079 12.8682 1.32069 12.5768 1.41865C12.2912 1.51493 12.0126 1.61695 11.7375 1.72593C11.1873 1.9439 10.6506 2.18849 10.0979 2.46258C9.6726 2.67358 9.27969 2.88724 8.90645 3.1134C8.5332 3.33956 8.17963 3.57842 7.83343 3.83858C7.47689 4.10781 7.13325 4.39369 6.80363 4.69528C6.45907 5.00911 6.10713 5.35429 5.74147 5.74003C5.28198 6.22204 4.88272 6.67149 4.52833 7.11254C4.35113 7.33296 4.1852 7.55093 4.02889 7.77012C3.87432 7.98613 3.72655 8.20694 3.5858 8.4322C3.4465 8.65549 3.31457 8.88288 3.18838 9.11683C3.06023 9.3548 2.9391 9.59649 2.82518 9.84159C2.59205 10.3423 2.3745 10.8814 2.15736 11.4833C1.99626 11.9282 1.85201 12.3791 1.72491 12.8349C1.59524 13.3007 1.47991 13.7881 1.37707 14.3152C1.27423 14.8423 1.18451 15.4091 1.10564 16.0359C1.02065 16.7231 0.952756 17.4122 0.902016 18.1027C0.844658 18.8619 0.797132 19.6973 0.75821 20.6271L0.666026 23.7188L0.616451 27.4874L0.602112 32.0428L0.644107 38.6671L0.775213 43.686L0.876205 45.6464L1.00239 47.2709C1.04285 47.7088 1.09346 48.1456 1.15419 48.5812C1.2095 48.9679 1.26891 49.3063 1.33282 49.5993C1.46251 50.1948 1.61586 50.785 1.79251 51.3684C1.96165 51.9269 2.15508 52.4778 2.37225 53.0195C2.5857 53.5501 2.81924 54.0618 3.07325 54.5543C3.32727 55.0467 3.60177 55.5199 3.89676 55.9745C4.19175 56.4291 4.50723 56.865 4.844 57.2823C5.1804 57.6996 5.53821 58.0992 5.916 58.4795C6.29436 58.8605 6.69342 59.2231 7.11398 59.5676C7.53952 59.9161 7.98185 60.2436 8.43938 60.5489C8.86404 60.8328 9.2842 61.0928 9.70742 61.3314C10.1306 61.5701 10.5576 61.7866 10.9964 61.9835C11.4352 62.1803 11.885 62.3575 12.3549 62.5169C12.8249 62.6763 13.3145 62.818 13.8319 62.9438C14.3494 63.0696 14.8972 63.18 15.4769 63.2763C16.0566 63.3726 16.6763 63.4551 17.3384 63.5262C18.0005 63.5973 18.7068 63.6561 19.4658 63.7053C20.2248 63.7544 21.036 63.7938 21.9077 63.8253C23.2542 63.8741 25.2924 63.9025 27.6429 63.9134L35.2522 63.898L42.4577 63.797L45.1974 63.72L46.9823 63.6282C47.3654 63.5971 47.7402 63.5602 48.102 63.517C48.4638 63.4738 48.8206 63.4244 49.1681 63.3683C49.5155 63.3121 49.8551 63.2495 50.1888 63.1798C50.5187 63.1111 50.8468 63.0344 51.173 62.9498C51.4958 62.8678 51.8141 62.7746 52.1292 62.6757C52.4443 62.5767 52.7561 62.4698 53.066 62.3551C53.3777 62.2396 53.6866 62.1166 53.9924 61.9861C54.3002 61.855 54.6077 61.7149 54.9162 61.5662C55.3901 61.338 55.7715 61.1477 56.1064 60.9619C56.4215 60.789 56.7249 60.5958 57.0148 60.3834C57.3007 60.1728 57.5851 59.9331 57.9128 59.6311C58.2406 59.3292 58.612 58.9654 59.0719 58.5053C59.4761 58.1013 59.8169 57.7502 60.1109 57.4308C60.4049 57.1114 60.6525 56.824 60.8697 56.5471C61.0767 56.2843 61.2695 56.0106 61.4474 55.7272C61.6209 55.4507 61.7807 55.1635 61.9435 54.845C62.1885 54.3656 62.4065 53.9217 62.6017 53.4933C62.7913 53.0805 62.9644 52.6604 63.1208 52.2339C63.2748 51.8108 63.4082 51.3804 63.5205 50.9443C63.636 50.4957 63.7356 50.0221 63.8216 49.5026C63.9077 48.9831 63.9804 48.4177 64.0435 47.7863C64.1066 47.155 64.1602 46.4572 64.2074 45.6733L64.3323 43.0415L64.4397 39.7686L64.5163 36.1222L64.5458 32.3095L64.4773 24.8211L64.3858 21.467L64.2608 18.5872L64.1051 16.342C64.0486 15.7172 63.9875 15.2251 63.9228 14.8925C63.8512 14.5249 63.7711 14.159 63.6827 13.7951C63.5967 13.4409 63.5021 13.089 63.399 12.7394C63.2985 12.3989 63.1894 12.061 63.0716 11.726C62.9553 11.3952 62.832 11.0713 62.7029 10.7544C62.5738 10.4375 62.4341 10.128 62.2887 9.825C62.1433 9.52202 61.9908 9.22642 61.8308 8.93758C61.6709 8.64874 61.5041 8.36706 61.3298 8.09235C61.1555 7.81765 60.974 7.5499 60.7849 7.28933C60.5969 7.02959 60.4008 6.77579 60.1969 6.5283C59.9941 6.28217 59.7836 6.04251 59.5656 5.80968C59.3479 5.57714 59.123 5.35155 58.891 5.13325C58.6589 4.91488 58.4198 4.70347 58.1732 4.49903C57.9256 4.29391 57.6718 4.09654 57.412 3.90721C57.1494 3.71594 56.881 3.53271 56.6073 3.35779C56.3298 3.18038 56.0471 3.01123 55.7596 2.85057C55.4671 2.68722 55.1699 2.53229 54.8685 2.38597C54.3683 2.1428 53.9057 1.9271 53.4515 1.73577C53.0051 1.54588 52.55 1.37723 52.0876 1.23039C51.6226 1.08392 51.1385 0.958347 50.6059 0.84998C50.0733 0.741612 49.4925 0.651272 48.8352 0.574452C48.1778 0.497632 47.4438 0.435563 46.6043 0.38394C45.7648 0.332317 44.8207 0.291753 43.7425 0.258976L40.0785 0.177036L35.4413 0.122341L29.503 0.0858753L29.5009 0.0854689ZM32.585 5.71934L41.1485 5.76809L44.379 5.83037C45.2687 5.85536 45.9476 5.88465 46.3456 5.91845C46.8639 5.96209 47.3576 6.01678 47.8298 6.08234C48.2829 6.14491 48.7339 6.22273 49.1818 6.31566C49.612 6.4058 50.0223 6.50823 50.415 6.62376C50.8077 6.7393 51.1828 6.86876 51.5427 7.01196C51.9026 7.15515 52.2468 7.31268 52.578 7.48517C52.9066 7.65636 53.226 7.84474 53.5347 8.04954C53.842 8.25337 54.1382 8.47297 54.4258 8.70958C54.7134 8.94618 54.9922 9.19979 55.2645 9.47101C55.5519 9.75719 55.817 10.0487 56.0614 10.3494C56.3048 10.6483 56.5301 10.9615 56.736 11.2874C56.9441 11.618 57.1317 11.9611 57.2977 12.3148C57.4673 12.6753 57.6197 13.0564 57.7565 13.4613C57.8934 13.8663 58.0153 14.2967 58.1232 14.7566C58.2363 15.2442 58.331 15.7359 58.4071 16.2306C58.4891 16.755 58.5591 17.3142 58.6185 17.913C58.678 18.5118 58.7271 19.1503 58.7677 19.8335C58.8 20.3815 58.8283 21.1046 58.8523 21.9587L58.9123 24.8706L58.9582 32.0036L58.906 39.1299L58.8433 42.0334L58.757 44.1453C58.6972 45.1341 58.6341 45.9654 58.5587 46.6889C58.5208 47.0507 58.4799 47.3854 58.4344 47.6995C58.3918 47.9962 58.3413 48.2917 58.283 48.5857C58.2297 48.8539 58.1679 49.1203 58.0976 49.3846C58.0303 49.6368 57.9545 49.8866 57.8704 50.1337C57.7857 50.382 57.6936 50.6277 57.5941 50.8704C57.4889 51.1267 57.3779 51.3806 57.2612 51.6318C57.1573 51.8561 57.0481 52.0743 56.9326 52.2867C56.8184 52.497 56.697 52.7034 56.5688 52.9054C56.4418 53.1055 56.3086 53.2999 56.1693 53.4882C56.0308 53.6759 55.8855 53.8584 55.7338 54.0356C55.5826 54.212 55.4249 54.3828 55.2612 54.5477C55.0973 54.7126 54.9273 54.8718 54.7511 55.0254C54.575 55.1791 54.3922 55.3266 54.2031 55.4687C54.0141 55.6109 53.8184 55.7473 53.6162 55.878C53.4141 56.0087 53.2055 56.1341 52.9902 56.2537C52.7749 56.3734 52.5528 56.4877 52.3244 56.5964C52.0921 56.7069 51.8565 56.8103 51.6179 56.9066C51.3713 57.0061 51.122 57.0986 50.8702 57.1842C50.3581 57.3587 49.8179 57.5119 49.2492 57.6441C48.6565 57.7809 48.0584 57.8929 47.4563 57.9796C47.2248 58.0134 46.6928 58.0452 45.9308 58.0747L43.0268 58.1554L34.7937 58.2623L26.1764 58.2758L22.7922 58.2398L20.5947 58.1714L18.9744 58.0575C18.4712 58.015 18.0034 57.9679 17.565 57.9145C17.1266 57.861 16.7183 57.8014 16.3342 57.7342C15.9702 57.6713 15.6085 57.5961 15.2495 57.5089C14.9222 57.4292 14.5983 57.3364 14.2785 57.2307C13.9702 57.1282 13.6754 57.0156 13.3886 56.8916C13.1018 56.7677 12.8232 56.6319 12.5473 56.4836C12.2714 56.3353 11.9983 56.1742 11.7222 55.9987C11.5138 55.8663 11.3124 55.7324 11.1187 55.5904C10.9249 55.4484 10.7376 55.3069 10.5574 55.1586C10.3771 55.0103 10.204 54.8574 10.037 54.7001C9.87118 54.5435 9.71102 54.3811 9.55686 54.213C9.40322 54.0454 9.25633 53.8729 9.1154 53.6943C8.97391 53.515 8.83909 53.3305 8.71122 53.1412C8.58145 52.949 8.45866 52.7522 8.3431 52.5512C8.22633 52.3484 8.1153 52.1386 8.0098 51.9223C7.90254 51.7018 7.80245 51.478 7.70969 51.251C7.61546 51.0199 7.52615 50.7815 7.44216 50.5353C7.27418 50.0426 7.12668 49.5182 6.99844 48.9589C6.87021 48.3997 6.76081 47.8056 6.66822 47.1726C6.57563 46.5396 6.50106 45.8685 6.44165 45.1552C6.39781 44.6297 6.36299 43.8114 6.33636 42.7789L6.28064 39.1069L6.30112 29.7461L6.46234 20.8014L6.58526 17.65L6.65491 16.6083C6.67908 16.3301 6.70407 16.124 6.72968 16.0003C6.81408 15.5933 6.89909 15.2145 6.98697 14.8599C7.06907 14.5254 7.1604 14.1932 7.26086 13.8637C7.35632 13.5527 7.45691 13.2614 7.56445 12.9855C7.66816 12.7182 7.78374 12.4556 7.91086 12.1986C8.035 11.9487 8.16836 11.7094 8.31319 11.4765C8.45802 11.2436 8.61433 11.0177 8.78476 10.7929C8.9552 10.5682 9.13875 10.3464 9.33848 10.1214C9.53821 9.89649 9.75392 9.66931 9.98787 9.43517C10.2605 9.16097 10.5444 8.89819 10.8388 8.64751C11.1168 8.411 11.4067 8.18885 11.7074 7.98194C12.003 7.77708 12.3062 7.59477 12.6219 7.4272C12.9375 7.25963 13.2657 7.10824 13.6109 6.97201C13.9561 6.83579 14.3187 6.7139 14.7028 6.60328C15.1063 6.49009 15.5143 6.39352 15.9257 6.31382C16.3584 6.22901 16.8179 6.15506 17.3085 6.09053C17.7991 6.026 18.3211 5.97028 18.8791 5.92193C19.2683 5.88834 19.939 5.85843 20.8221 5.83323L24.0363 5.76973L32.5864 5.71749L32.585 5.71934Z" fill="url(#paint2_radial_43_2)"/>
<defs>
<radialGradient id="paint0_radial_43_2" cx="0" cy="0" r="1" gradientUnits="userSpaceOnUse" gradientTransform="translate(10.7894 68.5662) rotate(-9.53101) scale(135.144 82.0316)">
<stop stop-color="#FED576"/>
<stop offset="0.263" stop-color="#F47133"/>
<stop offset="0.609" stop-color="#BC3081"/>
<stop offset="1" stop-color="#4C63D2"/>
</radialGradient>
<radialGradient id="paint1_radial_43_2" cx="0" cy="0" r="1" gradientUnits="userSpaceOnUse" gradientTransform="translate(10.7895 68.5662) rotate(-9.53101) scale(135.144 82.0316)">
<stop stop-color="#FED576"/>
<stop offset="0.263" stop-color="#F47133"/>
<stop offset="0.609" stop-color="#BC3081"/>
<stop offset="1" stop-color="#4C63D2"/>
</radialGradient>
<radialGradient id="paint2_radial_43_2" cx="0" cy="0" r="1" gradientUnits="userSpaceOnUse" gradientTransform="translate(10.7894 68.5662) rotate(-9.53101) scale(135.144 82.0316)">
<stop stop-color="#FED576"/>
<stop offset="0.263" stop-color="#F47133"/>
<stop offset="0.609" stop-color="#BC3081"/>
<stop offset="1" stop-color="#4C63D2"/>
</radialGradient>
</defs>
</svg>
