<svg width="242" height="72" viewBox="0 0 242 72" fill="none" xmlns="http://www.w3.org/2000/svg">
<path d="M89.177 24.66C92.0003 21.912 93.7508 21.828 93.7508 21.828C94.4003 21.8223 95.0436 21.9532 95.6384 22.212C96.9754 22.672 97.0501 23.396 97.0501 23.396V43.536C97.2235 49.168 95.8078 51.33 94.1178 52.836C93.605 53.2975 92.9682 53.6018 92.2847 53.712C92.2314 53.7252 92.1759 53.7264 92.1221 53.7154C92.0684 53.7044 92.0178 53.6815 91.9742 53.6485C91.9306 53.6154 91.8951 53.573 91.8703 53.5245C91.8454 53.4759 91.832 53.4224 91.8309 53.368C91.859 52.9788 91.9432 52.5955 92.081 52.23C92.934 50.056 92.8635 46.32 92.8635 46.32L92.9441 24.64C92.9441 24.64 93.0107 24.24 92.6699 24.404C89.3383 27.244 88.9189 31.256 88.812 33.2C88.7575 36.114 90.0058 37.62 90.0058 37.62C90.1019 37.7087 90.1773 37.817 90.2268 37.9376C90.2763 38.0582 90.2986 38.188 90.2922 38.318C90.2987 38.3874 90.2898 38.4573 90.2659 38.5229C90.2421 38.5884 90.204 38.6479 90.1543 38.6972C90.1046 38.7465 90.0446 38.7843 89.9785 38.8079C89.9124 38.8316 89.8419 38.8405 89.7719 38.834C88.5175 38.714 86.517 37.314 85.8071 35.614C85.4341 34.7938 85.2311 33.9075 85.2102 33.008C85.5255 29.8531 86.9329 26.904 89.1931 24.662L89.177 24.66ZM234.659 43.886C234.659 50.354 230.707 50.252 230.707 50.252C226.944 50.382 225.984 46.444 225.75 42.44C225.568 39.426 225.75 36.074 225.75 36.074C225.75 36.074 225.75 35.92 225.619 36.074C224.358 38.334 223.505 41.774 223.086 44.43C222.901 45.6068 222.79 46.7937 222.751 47.984C222.77 48.0967 222.757 48.2125 222.711 48.3176C222.666 48.4226 222.591 48.5124 222.495 48.576C220.452 49.506 219.139 48.186 218.673 46.71C218.076 45.31 217.693 36.902 217.693 36.464C217.693 36.026 217.34 36.328 217.34 36.328C214.509 40.988 214.485 47.896 214.485 49.282C214.485 50.668 212.095 50.242 212.095 50.242C210.052 50.088 210.131 49.102 210.131 49.102L210.036 47.432C209.326 48.732 208.011 50.392 205.982 50.28C202.913 50.084 202.322 46.934 202.272 46.4C202.272 46.4 200.743 50.32 196.544 50.28C193.689 50.232 192.543 47.32 192.543 47.32C192.543 47.32 191.394 50.38 188.591 50.28C185.787 50.18 183.468 46.96 183.646 42.788C183.684 40.6758 183.969 38.5751 184.495 36.528C184.495 36.528 184.723 36.128 184.339 36.084C183.956 36.04 181.532 36.124 181.532 36.124C181.532 36.124 180.161 41.578 174.365 48.36L174.405 52.84C174.405 57.3 173.845 63.28 167.75 63.768C162.483 63.412 162.781 59.388 162.781 59.388C162.656 58.204 163.406 56.024 166.552 53.098L170.949 49.046L170.824 47.174C168.811 50.474 165.736 50.29 165.736 50.29C165.736 50.29 163.346 50.77 161.36 47.264C160.763 48.448 159.436 50.516 157.252 50.278C154.182 49.938 153.573 46.908 153.525 46.368C153.525 46.368 151.992 50.324 147.767 50.278C144.904 50.23 143.748 47.288 143.748 47.288C143.429 46.6383 143.187 45.9545 143.026 45.25L142.901 45.618C142.25 47.27 140.642 50.142 138.172 50.178C133.634 50.178 133.443 43.202 133.443 43.202C132.118 46.322 129.555 50.262 124.777 50.238C120 50.214 119.403 48.502 119.403 48.254C119.387 48.0166 119.419 47.7784 119.5 47.5542C119.58 47.3299 119.705 47.1243 119.869 46.95C120.417 46.162 120.877 45.836 121.28 45.836C121.679 45.9465 122.045 46.1494 122.349 46.428C122.953 47.001 123.734 47.3554 124.565 47.434C126.07 47.38 126.401 46.184 126.505 44.964C126.61 43.744 125.739 42.44 124.535 41.352L122.41 39.428L118.421 45.944C116.097 49.694 113.792 50.274 112.903 50.156C111.693 49.99 110.513 48.746 110.443 45.104L110.717 34.924C110.717 34.598 110.419 34.758 110.419 34.758C105.827 39.59 104.449 49.53 104.449 49.724C104.369 49.8652 104.249 49.9795 104.103 50.0522C103.957 50.1249 103.792 50.1527 103.63 50.132C103.219 50.132 103.768 50.132 102.126 50.052C100.484 49.972 100.597 46.918 100.597 46.918L100.704 32.112C100.704 31.62 101.194 31.408 102.753 31.816C104.312 32.224 104.258 32.704 104.258 32.704L104.203 41.304C108.222 29.548 111.255 31.39 113.091 32.29C114.926 33.19 114.65 34.482 114.65 34.482L114.375 43.222C114.295 45.502 114.617 46.396 115.142 46.482C116.444 46.79 121.018 38.036 121.018 38.036C118.993 35.862 120.099 33.208 121.676 32.06C122.384 31.5727 123.207 31.2732 124.065 31.19C124.065 31.19 126.114 31.084 126.062 32.796C126.116 34.668 124.013 36.942 124.013 36.942C128.087 39.822 129.982 41.342 130.301 43.57C130.392 44.1582 130.351 44.759 130.182 45.33C133.078 42.83 133.3 40.036 133.3 40.036L133.348 30.69L129.053 30.636C129.053 30.636 128.724 30.636 128.649 29.816C128.62 29.4268 128.676 29.036 128.814 28.6701C128.951 28.3043 129.166 27.9721 129.444 27.696L133.542 27.75L133.703 22.864C133.84 21.884 134.469 21.75 136.27 22.212C138.071 22.674 138.061 23.082 138.061 23.082L137.859 27.998L142.972 28.27C143.577 28.324 143.766 28.47 143.629 29.47C143.624 29.7237 143.553 29.9718 143.423 30.1906C143.294 30.4094 143.11 30.5916 142.889 30.72L137.807 30.826L137.454 41.666C137.454 43.346 137.535 47.316 139.12 47.266C141.338 47.372 142.643 42.456 142.643 42.456V42.416C142.614 41.5088 142.647 40.6006 142.744 39.698C143.161 35.748 144.962 31.122 149.016 31.122C149.805 31.1391 150.574 31.3686 151.242 31.7861C151.91 32.2035 152.451 32.7932 152.807 33.492L152.873 32.604C152.873 32.604 152.785 31.532 154.497 31.798C156.209 32.064 156.796 32.734 156.756 33.272L156.618 44.218C156.846 46.588 157.258 47.974 158.47 47.878C159.514 47.724 160.26 46.308 160.704 45.106C159.188 32.598 166.079 31.08 166.079 31.08C166.079 31.08 169.136 30.88 170.527 33.384L170.568 32.544C170.568 32.544 170.431 31.436 172.048 31.744C172.523 31.8161 172.989 31.9354 173.439 32.1C174.155 32.366 174.383 32.544 174.383 33.208L174.246 45.562C174.246 45.562 177.83 40.776 178.743 36.122C178.387 35.8571 178.094 35.5165 177.888 35.1251C177.681 34.7337 177.566 34.3015 177.549 33.86C177.638 32.528 178.316 30.934 180.292 30.934C182.268 30.934 182.43 32.67 182.137 33.854C182.137 33.854 183.797 33.654 185.237 33.262C186.677 32.87 188.605 32.67 188.742 34.902C188.793 35.3918 188.7 35.8858 188.474 36.324C188.474 36.324 187.332 41.264 187.512 43.26C187.691 45.256 188.228 48.27 189.805 47.916C191.382 47.562 191.918 45.346 191.918 45.346C191.525 43.5253 191.418 41.6551 191.601 39.802C192.019 35.882 193.788 31.292 197.849 31.292C198.636 31.31 199.403 31.5401 200.068 31.9576C200.733 32.3751 201.271 32.9643 201.624 33.662L201.673 32.774C201.673 32.774 201.584 31.708 203.292 31.974C205 32.24 205.585 32.904 205.537 33.434L205.4 44.294C205.627 46.664 206.033 48.026 207.239 47.93C208.445 47.834 209.382 45.946 209.991 44.376V43.784L210.028 32.252C210.045 32.0737 210.124 31.9067 210.251 31.7795C210.378 31.6522 210.546 31.5726 210.726 31.554L212.123 31.768C214.079 32.058 213.807 32.798 213.807 32.798V39.314C215.259 34.89 215.957 33.202 216.614 32.074C217.175 31.114 219.004 31.742 219.004 31.742C219.004 31.742 221 32.27 221.021 34.112C220.96 37.12 221.392 42.018 221.392 42.018C221.392 42.018 221.468 42.118 221.505 42.084C221.525 42.0523 221.535 42.0155 221.535 41.978C222.1 38.6436 223.083 35.3924 224.461 32.3C225.183 30.956 227.274 31.91 227.274 31.91C229.783 32.762 229.442 34.238 229.442 34.238C228.702 46.884 230.279 47.682 231.211 47.766C232.143 47.85 232.633 46.652 232.834 46.086C233.036 45.52 233.298 44.274 233.431 43.782C233.475 43.6423 233.56 43.5188 233.675 43.4269C233.79 43.3351 233.93 43.2791 234.077 43.266C234.227 43.2883 234.366 43.3579 234.473 43.4644C234.581 43.571 234.651 43.709 234.673 43.858L234.659 43.886ZM150.02 34.196C149.143 34.232 147.075 34.788 146.704 40.496C146.333 46.204 147.858 47.668 149.141 47.836C150.423 48.004 152.724 45.956 152.831 39.896C152.938 33.836 150.02 34.196 150.02 34.196ZM168.029 34.196C167.133 34.232 164.887 35.008 164.378 40.522C164.001 46.29 165.572 47.782 166.851 47.956C168.129 48.13 170.435 46.056 170.596 39.912C170.757 33.768 168.029 34.226 168.029 34.226V34.196ZM171.013 51.888C165.925 56.248 165.484 59.362 165.484 59.362C165.484 59.362 164.979 61.914 167.43 62.042C170.374 62.338 170.87 58.79 170.947 55.686L171.042 51.92L171.013 51.888ZM198.944 34.398C198.067 34.434 196 34.99 195.629 40.698C195.258 46.406 196.782 47.87 198.065 48.038C199.347 48.206 201.649 46.158 201.755 40.098C201.862 34.038 198.944 34.398 198.944 34.398Z" fill="#7C839B"/>
<path d="M44.1964 17.7795C43.5623 17.7795 42.935 17.8116 42.3171 17.8744C41.6991 17.9372 41.0896 18.0302 40.4906 18.1523C39.8916 18.2744 39.3032 18.4256 38.7265 18.6041L37.0341 19.2204L35.4227 19.9921L33.9021 20.9097L32.4813 21.9636L31.1703 23.1447L29.9782 24.4437L28.9144 25.8512L27.988 27.3578L27.2094 28.954C26.9754 29.5 26.7672 30.0597 26.5871 30.6311C26.4069 31.2025 26.2544 31.7858 26.131 32.3792C26.0077 32.9726 25.9139 33.5764 25.8503 34.1888C25.7868 34.8012 25.7549 35.4225 25.7549 36.0508C25.7549 36.679 25.7873 37.3003 25.8503 37.9128C25.913 38.5203 26.0067 39.1243 26.131 39.7225C26.2544 40.3182 26.4069 40.8992 26.5871 41.4706C26.7672 42.042 26.9752 42.6015 27.2094 43.1477L27.988 44.744L28.9144 46.2504L29.9782 47.658L31.1703 48.9571L32.4813 50.1382L33.9021 51.1921L35.4227 52.1097L37.0341 52.8813L38.7265 53.4976L40.4906 53.9495C41.0943 54.0726 41.7039 54.1654 42.3171 54.2276C42.9415 54.2908 43.5688 54.3223 44.1964 54.3222C44.8306 54.3222 45.4578 54.2901 46.0755 54.2276C46.6887 54.1654 47.2983 54.0726 47.902 53.9495L49.6663 53.4976L51.3588 52.8813L52.9699 52.1097L54.4907 51.1921L55.9115 50.1382L57.2228 48.9571L58.4148 47.658L59.4787 46.2504L60.4051 44.744L61.1836 43.1477L61.806 41.4706C61.9862 40.8992 62.1387 40.3159 62.262 39.7225L62.5427 37.9125C62.606 37.3001 62.6384 36.6788 62.6384 36.0505C62.6384 35.4223 62.606 34.801 62.5427 34.1885C62.48 33.5811 62.3863 32.9771 62.262 32.379C62.1387 31.7833 61.9862 31.2025 61.806 30.6309L61.1836 28.9538L60.4051 27.3576L59.4787 25.8509L58.4148 24.4435L57.2228 23.1444L55.9115 21.9634L54.4907 20.9094L52.9699 19.9918L51.3588 19.2202L49.6663 18.6039L47.902 18.1521L46.0755 17.8742C45.4512 17.8109 44.824 17.7793 44.1964 17.7793V17.7795ZM44.1964 24.0861C44.6157 24.0861 45.0295 24.1067 45.437 24.1475L46.6383 24.3278L47.7987 24.6211L48.9099 25.0213L49.9664 25.5231L50.9598 26.1199L51.8885 26.8066L52.7447 27.5768L53.522 28.425L54.2151 29.3451L54.8176 30.3317L55.3236 31.3787C55.4756 31.737 55.6105 32.1043 55.7278 32.4798C55.8452 32.8553 55.9438 33.2391 56.0235 33.63C56.1033 34.0208 56.1622 34.4186 56.2054 34.8225L56.2673 36.0519C56.2673 36.4673 56.2465 36.8774 56.2054 37.2816C56.1642 37.6857 56.1037 38.0834 56.0235 38.4741C55.9434 38.8647 55.8445 39.2485 55.7278 39.6242L55.3236 40.7253L54.8176 41.7724L54.2151 42.7587L53.522 43.6791L52.7447 44.5272L51.8885 45.2975L50.9598 45.9841L49.9664 46.581L48.9099 47.0827L47.7987 47.483L46.6383 47.7763L45.437 47.9563C45.0247 47.9973 44.6106 48.0178 44.1962 48.0177C43.7817 48.0178 43.3675 47.9973 42.9551 47.9563L41.7538 47.7763C41.3595 47.697 40.9723 47.5989 40.5932 47.483L39.482 47.0827L38.4255 46.581L37.4321 45.9841L36.5034 45.2975L35.6472 44.5272L34.8699 43.6791L34.1768 42.7587L33.5743 41.7724L33.0684 40.7253L32.6641 39.6242L32.3684 38.4741L32.1865 37.2816C32.1452 36.873 32.1245 36.4626 32.1246 36.0519C32.1245 35.6413 32.1452 35.231 32.1865 34.8225C32.2274 34.4186 32.2882 34.0206 32.3684 33.63C32.4477 33.242 32.5465 32.8583 32.6643 32.4801L33.0686 31.3789L33.5745 30.3319L34.177 29.3453L34.8701 28.4252L35.6475 27.5771L36.5036 26.8068L37.4323 26.1201L38.4257 25.5233L39.4822 25.0215C39.8458 24.8701 40.2168 24.7365 40.5936 24.6213L41.7543 24.328C42.1486 24.2487 42.5502 24.1883 42.9556 24.1477C43.368 24.1067 43.7822 24.0862 44.1966 24.0863L44.1964 24.0861Z" fill="#7C839B"/>
<path d="M63.386 12.5819C63.2395 12.5819 63.0932 12.5893 62.9475 12.6039C62.8018 12.6185 62.6569 12.6404 62.5134 12.6694C62.3699 12.6985 62.228 12.7346 62.0881 12.7778C61.9482 12.821 61.8106 12.8712 61.6757 12.9281C61.5409 12.9851 61.4089 13.0488 61.2804 13.1189C61.152 13.189 61.027 13.2654 60.9062 13.3478C60.7853 13.4304 60.6687 13.5189 60.5567 13.6131C60.4447 13.7073 60.3375 13.8069 60.2355 13.9117C60.1335 14.0165 60.0368 14.1264 59.9458 14.2409C59.8548 14.3554 59.7696 14.4744 59.6906 14.5974C59.6115 14.7203 59.5386 14.8471 59.4722 14.9773C59.4058 15.1075 59.3459 15.2411 59.2927 15.3773C59.2397 15.5135 59.1935 15.6523 59.1544 15.7931C59.1152 15.934 59.0831 16.0766 59.0583 16.2207C59.0334 16.3646 59.0157 16.5098 59.0053 16.6555C58.998 16.7588 58.9943 16.8622 58.9943 16.9657C58.9943 17.112 59.0016 17.2581 59.0162 17.4036C59.0308 17.549 59.0527 17.6936 59.0818 17.8368C59.1109 17.9801 59.1471 18.1217 59.1904 18.2614C59.2337 18.401 59.284 18.5384 59.341 18.6731C59.3981 18.8078 59.4618 18.9395 59.5321 19.0678C59.6023 19.1961 59.6788 19.3209 59.7615 19.4415C59.8442 19.5621 59.9328 19.6785 60.0272 19.7902C60.1215 19.9021 60.2213 20.0091 60.3263 20.111C60.4314 20.2128 60.5415 20.3093 60.6562 20.4001C60.7709 20.491 60.8901 20.5761 61.0134 20.6551C61.1366 20.7341 61.2638 20.8069 61.3943 20.8732C61.5248 20.9396 61.6585 20.9994 61.7949 21.0524C61.9314 21.1054 62.0704 21.1515 62.2115 21.1906C62.3525 21.2296 62.4955 21.2616 62.6398 21.2863C62.784 21.3112 62.9295 21.3289 63.0755 21.3393C63.1789 21.3466 63.2825 21.3503 63.3862 21.3503C63.5326 21.3503 63.679 21.343 63.8247 21.3285C63.9704 21.3139 64.1153 21.292 64.2588 21.263C64.4023 21.2339 64.5442 21.1978 64.6841 21.1546C64.824 21.1114 64.9616 21.0612 65.0965 21.0043C65.2313 20.9474 65.3632 20.8838 65.4917 20.8137C65.6202 20.7436 65.7451 20.6671 65.866 20.5846C65.9869 20.5021 66.1035 20.4136 66.2155 20.3195C66.3275 20.2253 66.4347 20.1256 66.5366 20.0207C66.6386 19.9159 66.7353 19.806 66.8263 19.6915C66.9173 19.577 67.0025 19.458 67.0816 19.335C67.1607 19.212 67.2336 19.0851 67.2999 18.9549C67.3664 18.8246 67.4263 18.6911 67.4794 18.5549C67.5325 18.4186 67.5787 18.2799 67.6178 18.139C67.657 17.9982 67.689 17.8555 67.7139 17.7115C67.7388 17.5675 67.7565 17.4224 67.7668 17.2766C67.7742 17.1734 67.7779 17.0699 67.7779 16.9664C67.7779 16.8203 67.7706 16.6742 67.756 16.5288C67.7414 16.3834 67.7195 16.2388 67.6904 16.0956C67.6613 15.9523 67.625 15.8106 67.5818 15.671C67.5385 15.5314 67.4882 15.394 67.4312 15.2593C67.3741 15.1246 67.3103 14.9929 67.2401 14.8646C67.1699 14.7363 67.0934 14.6115 67.0107 14.4909C66.9279 14.3702 66.8392 14.2537 66.7448 14.1419C66.6506 14.0301 66.5508 13.9231 66.4459 13.8212C66.3408 13.7194 66.2307 13.6229 66.116 13.532C66.0012 13.4412 65.882 13.3562 65.7588 13.2773C65.6355 13.1983 65.5084 13.1255 65.3778 13.0591C65.2474 12.9928 65.1137 12.933 64.9772 12.88C64.8408 12.827 64.7018 12.7809 64.5607 12.7418C64.4196 12.7027 64.2767 12.6707 64.1324 12.6458C63.9881 12.621 63.8427 12.6034 63.6967 12.5931C63.5933 12.5858 63.4896 12.5821 63.386 12.5821V12.5819Z" fill="#7C839B"/>
<path d="M40.6992 0.306086C38.6935 0.302879 36.9035 0.311126 35.2956 0.333579L30.9848 0.448135C29.7077 0.503121 28.5794 0.574828 27.5666 0.667619C27.0602 0.713899 26.5824 0.765679 26.1296 0.822728C25.6988 0.876587 25.269 0.939304 24.8408 1.01083C24.433 1.07957 24.0461 1.15379 23.675 1.23444C23.304 1.31509 22.9496 1.40215 22.6077 1.49563C22.2735 1.58704 21.9418 1.68758 21.6132 1.79715C21.2911 1.90483 20.9769 2.01893 20.6667 2.14081C20.0462 2.38459 19.4409 2.65814 18.8176 2.9647C18.338 3.20068 17.8949 3.43965 17.474 3.69258C17.053 3.94552 16.6543 4.21267 16.2639 4.50364C15.8618 4.80476 15.4743 5.1245 15.1025 5.46179C14.714 5.81279 14.3171 6.19884 13.9047 6.63026C13.3865 7.16936 12.9362 7.67204 12.5366 8.16531C12.3367 8.41184 12.1496 8.65561 11.9733 8.90076C11.799 9.14236 11.6324 9.38931 11.4737 9.64125C11.3166 9.89098 11.1678 10.1453 11.0255 10.4069C10.8809 10.6731 10.7443 10.9434 10.6159 11.2175C10.353 11.7775 10.1076 12.3805 9.86274 13.0536C9.68107 13.5513 9.51839 14.0555 9.37505 14.5653C9.22882 15.0863 9.09875 15.6314 8.98278 16.2209C8.86681 16.8104 8.76562 17.4443 8.67668 18.1454C8.58083 18.9139 8.50426 19.6847 8.44704 20.4569C8.38235 21.306 8.32876 22.2404 8.28486 23.2803L8.1809 26.738L8.125 30.953L8.10883 36.0478L8.15619 43.4566L8.30404 49.0698L8.41793 51.2624L8.56024 53.0793C8.60586 53.569 8.66294 54.0576 8.73143 54.5447C8.7938 54.9772 8.8608 55.3557 8.93288 55.6834C9.07913 56.3495 9.25207 57.0095 9.45129 57.662C9.64204 58.2867 9.86018 58.9028 10.1051 59.5086C10.3458 60.102 10.6092 60.6743 10.8956 61.2251C11.1821 61.7759 11.4917 62.3052 11.8243 62.8136C12.157 63.322 12.5128 63.8095 12.8926 64.2762C13.272 64.743 13.6755 65.1899 14.1015 65.6152C14.5282 66.0413 14.9782 66.4468 15.4525 66.8322C15.9324 67.2219 16.4313 67.5882 16.9472 67.9296C17.4261 68.2472 17.9 68.5379 18.3773 68.8048C18.8545 69.0718 19.336 69.3139 19.8308 69.5341C20.3257 69.7543 20.833 69.9525 21.363 70.1307C21.8929 70.309 22.4451 70.4675 23.0286 70.6082C23.6122 70.7489 24.2299 70.8724 24.8837 70.98C25.5375 71.0877 26.2364 71.18 26.983 71.2596C27.7297 71.3391 28.5263 71.4048 29.3822 71.4598C30.2381 71.5148 31.153 71.5588 32.136 71.594C33.6545 71.6486 35.9531 71.6804 38.6039 71.6926L47.1851 71.6754L55.3111 71.5624L58.4008 71.4763L60.4137 71.3736C60.8457 71.3388 61.2684 71.2976 61.6764 71.2492C62.0844 71.2009 62.4868 71.1457 62.8787 71.0829C63.2705 71.0201 63.6535 70.95 64.0298 70.8721C64.4018 70.7953 64.7719 70.7095 65.1397 70.6148C65.5037 70.5232 65.8628 70.4189 66.2181 70.3083C66.5734 70.1976 66.925 70.078 67.2745 69.9497C67.6261 69.8206 67.9744 69.683 68.3192 69.5371C68.6664 69.3904 69.0132 69.2337 69.3611 69.0674C69.8955 68.8122 70.3256 68.5993 70.7033 68.3915C71.0586 68.1982 71.4008 67.9821 71.7277 67.7445C72.0502 67.509 72.3708 67.2409 72.7405 66.9032C73.1101 66.5655 73.529 66.1586 74.0476 65.644C74.5034 65.1922 74.8878 64.7995 75.2193 64.4423C75.5509 64.0851 75.8302 63.7637 76.0751 63.4539C76.3085 63.16 76.526 62.8539 76.7265 62.537C76.9222 62.2277 77.1024 61.9065 77.2861 61.5502C77.5624 61.0141 77.8082 60.5176 78.0283 60.0386C78.2421 59.5769 78.4374 59.107 78.6137 58.63C78.7874 58.1567 78.9379 57.6754 79.0645 57.1877C79.1948 56.686 79.307 56.1563 79.4041 55.5752C79.5011 54.9942 79.5831 54.3619 79.6543 53.6557C79.7254 52.9496 79.7859 52.1693 79.8391 51.2924L79.98 48.349L80.1011 44.6885L80.1875 40.6103L80.2207 36.3461L80.1436 27.9709L80.0403 24.2196L79.8994 20.9988L79.7238 18.4877C79.66 17.7889 79.5912 17.2386 79.5182 16.8665C79.4374 16.4554 79.3471 16.0462 79.2474 15.6392C79.1504 15.2431 79.0437 14.8495 78.9275 14.4586C78.8141 14.0777 78.691 13.6998 78.5583 13.3251C78.4271 12.9551 78.288 12.5929 78.1425 12.2385C77.9969 11.884 77.8394 11.5378 77.6753 11.199C77.5113 10.8601 77.3394 10.5295 77.159 10.2065C76.9786 9.88342 76.7905 9.56839 76.5939 9.26115C76.3973 8.95391 76.1926 8.65447 75.9794 8.36304C75.7674 8.07253 75.5463 7.78868 75.3164 7.51189C75.0876 7.23661 74.8502 6.96857 74.6044 6.70816C74.3589 6.44808 74.1052 6.19578 73.8436 5.95163C73.5819 5.7074 73.3123 5.47095 73.0341 5.2423C72.7549 5.01289 72.4687 4.79215 72.1756 4.5804C71.8795 4.36648 71.5769 4.16156 71.2682 3.96592C70.9553 3.7675 70.6365 3.57832 70.3122 3.39864C69.9823 3.21594 69.6472 3.04266 69.3073 2.87901C68.7431 2.60705 68.2215 2.3658 67.7093 2.15181C67.2059 1.93944 66.6926 1.75082 66.1712 1.58659C65.6467 1.42278 65.1008 1.28233 64.5002 1.16113C63.8995 1.03993 63.2446 0.938892 62.5032 0.852975C61.7619 0.767058 60.9341 0.697639 59.9874 0.639903C59.0407 0.582166 57.9759 0.536799 56.7601 0.500141L52.628 0.408497L47.3984 0.347325L40.7015 0.306541L40.6992 0.306086ZM44.1772 6.60712L53.8346 6.66165L57.4778 6.7313C58.4812 6.75925 59.2468 6.79201 59.6956 6.82982C60.2801 6.87862 60.8369 6.93979 61.3694 7.01311C61.8804 7.08309 62.389 7.17013 62.8941 7.27407C63.3793 7.37487 63.842 7.48943 64.2849 7.61865C64.7277 7.74787 65.1507 7.89267 65.5567 8.05282C65.9626 8.21297 66.3507 8.38916 66.7242 8.58207C67.0948 8.77352 67.4549 8.98422 67.8031 9.21327C68.1496 9.44124 68.4837 9.68684 68.808 9.95147C69.1324 10.2161 69.4468 10.4997 69.7538 10.8031C70.078 11.1231 70.3769 11.4492 70.6525 11.7855C70.9271 12.1198 71.1811 12.4701 71.4133 12.8346C71.6481 13.2043 71.8596 13.5881 72.0467 13.9836C72.238 14.3868 72.4099 14.813 72.5642 15.266C72.7185 15.7189 72.856 16.2003 72.9777 16.7146C73.1053 17.2599 73.2121 17.8098 73.2979 18.3631C73.3904 18.9496 73.4694 19.5751 73.5364 20.2448C73.6033 20.9145 73.6588 21.6286 73.7045 22.3927C73.741 23.0056 73.7729 23.8144 73.7999 24.7695L73.8676 28.0263L73.9194 36.004L73.8605 43.9741L73.7898 47.2216L73.6925 49.5835C73.6251 50.6894 73.5539 51.6192 73.4689 52.4284C73.4262 52.833 73.38 53.2074 73.3287 53.5586C73.2806 53.8904 73.2237 54.2209 73.1579 54.5497C73.0979 54.8497 73.0281 55.1477 72.9489 55.4433C72.8729 55.7253 72.7875 56.0048 72.6927 56.2811C72.5971 56.5588 72.4932 56.8335 72.381 57.105C72.2624 57.3917 72.1372 57.6756 72.0056 57.9566C71.8885 58.2075 71.7653 58.4515 71.635 58.6891C71.5062 58.9243 71.3694 59.155 71.2248 59.381C71.0815 59.6048 70.9314 59.8223 70.7743 60.0328C70.618 60.2427 70.4542 60.4469 70.2831 60.645C70.1126 60.8423 69.9348 61.0334 69.7501 61.2178C69.5653 61.4022 69.3736 61.5803 69.1749 61.7521C68.9762 61.9239 68.7702 62.0889 68.5569 62.2479C68.3437 62.4069 68.1231 62.5595 67.895 62.7057C67.667 62.8518 67.4318 62.992 67.189 63.1258C66.9462 63.2596 66.6958 63.3875 66.4382 63.5091C66.1762 63.6326 65.9105 63.7483 65.6414 63.856C65.3633 63.9673 65.0821 64.0708 64.7982 64.1665C64.2206 64.3617 63.6115 64.5331 62.9701 64.6808C62.3018 64.8339 61.6272 64.9591 60.9482 65.0561C60.6872 65.0939 60.0872 65.1294 59.2278 65.1624L55.9529 65.2527L46.6681 65.3723L36.95 65.3874L33.1335 65.3471L30.6553 65.2706L28.828 65.1432C28.2606 65.0957 27.7329 65.0431 27.2385 64.9833C26.7442 64.9235 26.2837 64.8568 25.8506 64.7816C25.4401 64.7112 25.0321 64.6272 24.6273 64.5296C24.2582 64.4406 23.8929 64.3368 23.5323 64.2185C23.1846 64.1039 22.8521 63.9779 22.5287 63.8393C22.2053 63.7007 21.8911 63.5488 21.5799 63.3829C21.2687 63.217 20.9608 63.0369 20.6494 62.8406C20.4144 62.6926 20.1873 62.5428 19.9688 62.384C19.7502 62.2252 19.5391 62.0669 19.3358 61.901C19.1325 61.7351 18.9373 61.5642 18.749 61.3883C18.5619 61.2131 18.3813 61.0314 18.2075 60.8434C18.0342 60.656 17.8685 60.4631 17.7096 60.2633C17.55 60.0628 17.398 59.8564 17.2538 59.6447C17.1075 59.4298 16.969 59.2097 16.8387 58.9849C16.707 58.758 16.5818 58.5234 16.4628 58.2815C16.3418 58.0349 16.2289 57.7845 16.1243 57.5307C16.0181 57.2723 15.9173 57.0056 15.8226 56.7302C15.6332 56.1792 15.4669 55.5926 15.3222 54.9672C15.1776 54.3417 15.0542 53.6773 14.9498 52.9693C14.8454 52.2614 14.7613 51.5108 14.6943 50.713C14.6449 50.1253 14.6056 49.21 14.5756 48.0553L14.5127 43.9485L14.5358 33.4792L14.7177 23.4753L14.8563 19.9506L14.9348 18.7856C14.9621 18.4744 14.9903 18.2439 15.0191 18.1056C15.1143 17.6503 15.2102 17.2267 15.3093 16.8301C15.4019 16.456 15.5049 16.0844 15.6182 15.7159C15.7258 15.3681 15.8393 15.0423 15.9605 14.7337C16.0775 14.4348 16.2078 14.1411 16.3512 13.8537C16.4912 13.5742 16.6416 13.3066 16.8049 13.0461C16.9683 12.7856 17.1445 12.5329 17.3367 12.2815C17.5289 12.0302 17.7359 11.7821 17.9612 11.5305C18.1864 11.2789 18.4297 11.0249 18.6935 10.763C19.001 10.4563 19.3212 10.1624 19.6532 9.88205C19.9667 9.61753 20.2936 9.36908 20.6327 9.13766C20.9661 8.90855 21.308 8.70464 21.664 8.51723C22.02 8.32981 22.3901 8.1605 22.7794 8.00814C23.1686 7.85578 23.5775 7.71946 24.0107 7.59574C24.4658 7.46915 24.9259 7.36114 25.3899 7.27201C25.8778 7.17715 26.396 7.09444 26.9493 7.02227C27.5026 6.9501 28.0912 6.88778 28.7205 6.83371C29.1595 6.79614 29.9158 6.76269 30.9118 6.73451L34.5365 6.66348L44.1789 6.60506L44.1772 6.60712Z" fill="#7C839B"/>
</svg>
