<svg width="370" height="373" viewBox="0 0 370 373" fill="none" xmlns="http://www.w3.org/2000/svg">
<path d="M11.9412 364.813C120.46 364.324 242.2 364.316 350.719 364.813C242.2 365.309 120.46 365.301 11.9412 364.813Z" fill="#263238"/>
<path d="M314.167 241.672C313.118 245.113 312.894 248.819 313.423 252.372C314.543 259.872 320.185 265.818 321.41 273.205C321.258 274.094 321.074 274.99 320.834 275.878C320.834 275.894 320.834 275.91 320.818 275.926C320.818 275.926 320.818 275.942 320.818 275.95C320.818 275.95 320.818 275.966 320.818 275.974C320.818 276.014 320.858 276.038 320.882 276.054C320.938 275.95 320.978 275.846 321.026 275.75C321.114 275.566 321.202 275.382 321.274 275.19C321.394 274.926 321.49 274.662 321.594 274.39C321.626 274.406 321.658 274.27 321.658 274.238C324.411 266.65 321.882 258.239 320.602 250.54C319.865 246.138 320.177 241.696 319.521 237.31C319.361 236.261 319.369 234.277 317.864 234.677C316.168 235.133 314.599 240.263 314.175 241.672H314.167Z" fill="#455A64"/>
<path d="M315.279 248.147C314.799 257.27 323.219 265.258 321.266 274.374C321.202 274.63 321.146 274.886 321.074 275.142C321.026 275.318 320.978 275.494 320.922 275.67C320.898 275.75 320.874 275.814 320.85 275.894C320.85 275.91 320.85 275.926 320.834 275.942C320.834 275.942 320.834 275.958 320.834 275.966C320.834 275.966 320.834 275.982 320.834 275.99C320.834 276.03 320.874 276.054 320.898 276.07C320.914 276.07 320.922 276.07 320.93 276.07C320.962 276.07 320.986 276.054 321.002 276.014C321.106 275.742 321.202 275.47 321.282 275.198C321.498 274.526 321.65 273.854 321.746 273.181C322.627 269.172 322.41 265.178 321.562 260.96C320.522 255.782 319.201 250.764 318.257 245.521C318.137 244.873 318.137 242.328 317.096 242.664C315.784 243.096 315.335 247.098 315.279 248.155V248.147ZM315.728 246.786C315.808 246.274 316.472 242.84 317.32 243.2C317.825 243.408 317.889 246.01 317.969 246.378C318.273 247.794 318.577 249.195 318.881 250.604C319.529 253.573 320.194 256.534 320.834 259.495C321.618 263.161 322.114 266.827 321.85 270.468C321.378 262.481 314.399 255.069 315.728 246.786Z" fill="white"/>
<path d="M311.982 329.293C311.982 329.413 312.086 329.581 312.246 329.477C319.161 325.028 327.781 328.653 334.944 324.675C337.817 323.075 340.306 320.834 342.627 318.537C344.34 316.84 346.061 315.039 347.309 312.966C347.477 312.686 348.358 311.558 348.213 310.997C347.117 306.732 336.04 313.943 334.191 314.967C326.948 318.921 320.322 322.522 313.983 327.589C313.319 328.109 312.662 328.653 312.006 329.213C311.982 329.229 311.982 329.261 311.99 329.301L311.982 329.293Z" fill="#455A64"/>
<path d="M311.982 329.293C312.238 329.133 312.486 328.973 312.734 328.821C317.488 326.54 322.779 325.732 327.885 324.435C333.039 323.115 337.449 320.962 341.275 317.224C341.947 316.56 344.756 314.031 343.932 312.758C343.187 311.614 340.362 313.823 339.674 314.215C334.528 317.096 329.501 320.017 324.139 322.498C320.706 324.083 317.24 325.668 313.975 327.589C313.311 328.109 312.654 328.653 311.998 329.213C311.974 329.229 311.974 329.261 311.982 329.301V329.293ZM315.207 327.365C318.985 325.252 322.963 323.483 326.9 321.618C329.606 320.337 332.247 318.953 334.84 317.456C336.256 316.632 337.665 315.792 339.09 314.975C339.81 314.567 340.522 314.167 341.243 313.783C341.603 313.583 342.787 312.902 343.091 313.447C343.908 314.927 335.968 322.466 326.116 324.411C322.418 325.14 318.681 325.964 315.207 327.357V327.365Z" fill="white"/>
<path d="M323.483 316.2C323.483 316.2 323.467 316.272 323.491 316.296C323.515 316.32 323.555 316.328 323.595 316.296C323.739 316.152 323.883 316.016 324.027 315.88C324.547 315.367 325.052 314.839 325.548 314.311C325.636 314.207 325.732 314.119 325.82 314.023C325.852 314.023 325.876 314.015 325.9 313.991C331.422 308.34 339.794 306.62 344.5 300.073C346.597 297.16 347.925 293.782 348.934 290.357C349.366 288.876 351.495 284.354 349.63 283.186C348.182 282.273 345.909 284.258 344.964 285.098C341.955 287.772 339.826 291.501 337.729 294.895C335.672 298.208 333.807 301.625 331.855 304.987C330.038 308.108 327.925 310.893 325.676 313.623C324.964 314.487 324.235 315.351 323.491 316.224L323.483 316.2Z" fill="#455A64"/>
<path d="M323.483 316.2C323.483 316.2 323.467 316.272 323.491 316.296C323.947 315.824 324.395 315.351 324.852 314.879C324.571 315.207 324.291 315.544 324.019 315.872C324.539 315.359 325.044 314.831 325.54 314.303C325.78 314.023 326.028 313.743 326.276 313.463C329.437 310.389 332.855 307.596 336.456 305.027C338.249 303.746 339.77 302.298 341.042 300.473C343.355 297.152 346.949 289.348 346.253 288.164C345.516 286.907 344.116 289.476 343.716 290.021C340.498 294.406 337.889 299.168 334.432 303.386C332.103 306.219 329.75 309.037 327.397 311.846C326.804 312.422 326.22 313.006 325.66 313.607C324.948 314.471 324.219 315.335 323.475 316.208L323.483 316.2ZM345.732 288.444C346.341 288.7 345.412 290.797 345.172 291.349C344.004 294.014 342.723 296.711 341.291 299.257C339.77 301.954 337.593 303.738 335.096 305.491C333.047 306.932 331.038 308.524 329.125 310.237C331.462 307.588 333.775 304.923 335.936 302.146C337.729 299.833 339.282 297.376 340.866 294.919C341.659 293.694 342.443 292.47 343.283 291.277C343.508 290.949 345.18 288.22 345.732 288.452" fill="white"/>
<path d="M282.321 351.047C282.321 351.047 282.345 351.111 282.377 351.111C282.409 351.111 282.441 351.103 282.449 351.055C282.481 350.879 282.521 350.711 282.553 350.526C282.681 349.886 282.785 349.246 282.881 348.606C282.897 348.486 282.921 348.374 282.929 348.253C282.953 348.229 282.961 348.213 282.969 348.189C284.186 341.25 289.476 335.76 289.636 328.565C289.708 325.364 288.988 322.21 287.996 319.177C287.563 317.872 286.851 313.471 284.89 313.551C283.362 313.615 282.689 316.216 282.417 317.312C281.553 320.794 281.865 324.619 282.033 328.165C282.193 331.638 282.537 335.096 282.793 338.553C283.034 341.763 282.881 344.876 282.601 348.029C282.513 349.022 282.409 350.03 282.305 351.039L282.321 351.047Z" fill="#455A64"/>
<path d="M282.321 351.047C282.321 351.047 282.345 351.111 282.377 351.111C282.473 350.534 282.569 349.958 282.665 349.382C282.625 349.766 282.585 350.15 282.553 350.526C282.681 349.886 282.785 349.246 282.881 348.606C282.921 348.278 282.953 347.949 282.994 347.613C283.778 343.756 284.882 339.978 286.227 336.272C286.899 334.424 287.291 332.591 287.307 330.606C287.339 326.996 286.043 319.441 284.938 318.921C283.762 318.361 284.026 320.962 284.01 321.562C283.858 326.412 284.338 331.23 283.922 336.08C283.642 339.338 283.322 342.595 283.01 345.86C282.865 346.581 282.729 347.309 282.617 348.029C282.529 349.022 282.425 350.03 282.321 351.039V351.047ZM283.466 343.812C283.85 340.682 284.202 337.553 284.394 334.424C284.546 331.822 284.45 329.221 284.378 326.62C284.338 325.316 284.306 324.019 284.322 322.723C284.322 322.37 284.178 319.513 284.698 319.409C285.274 319.289 285.651 321.298 285.755 321.826C286.235 324.379 286.659 327.004 286.883 329.606C287.123 332.359 286.419 334.768 285.467 337.313C284.682 339.402 284.01 341.595 283.466 343.812Z" fill="white"/>
<path d="M281.521 356.809C281.641 356.809 281.825 356.761 282.057 356.625C289.124 353.92 296.863 353.8 303.971 351.095C307.076 349.91 310.013 348.173 312.23 345.652C313.174 344.58 316.464 340.866 315.736 339.154C313.575 333.983 289.708 350.27 281.865 356.129C281.705 356.209 281.585 356.289 281.505 356.377C281.265 356.601 281.305 356.801 281.521 356.817V356.809Z" fill="#455A64"/>
<path d="M281.521 356.809C282.049 356.521 282.569 356.225 283.106 355.945C284.818 355.256 286.555 354.6 288.324 354.04C291.125 353.16 294.006 352.631 296.855 351.919C301.305 350.799 305.411 348.678 308.781 345.548C309.517 344.876 311.694 343.075 311.222 341.819C310.789 340.674 309.005 341.803 308.372 342.099C299.401 346.381 290.669 351.303 281.969 356.137C281.809 356.217 281.657 356.289 281.513 356.369C281.273 356.593 281.313 356.793 281.529 356.809H281.521ZM285.683 354.528C289.092 352.671 292.502 350.831 295.911 349.006C298.592 347.573 301.265 346.157 303.955 344.748C305.283 344.052 306.604 343.339 307.94 342.667C308.468 342.403 310.509 341.363 310.701 342.099C310.885 342.779 309.485 344.212 309.229 344.476C305.195 348.622 300.025 350.759 294.486 351.991C291.493 352.655 288.532 353.456 285.675 354.528H285.683Z" fill="white"/>
<path d="M315.399 297.055C315.343 297.152 315.335 297.248 315.367 297.328C315.407 297.448 315.535 297.536 315.672 297.544C315.736 297.56 315.808 297.544 315.88 297.528C315.92 297.528 315.96 297.528 316 297.488C319.337 294.222 324.435 291.181 327.869 288.052C330.502 285.643 332.671 282.769 334.496 279.696C336.512 276.303 338.249 272.621 339.378 268.827C339.914 267.019 341.475 262.745 340.002 260.96C336.985 257.294 330.878 270.62 330.006 272.109C325.1 280.408 320.21 288.708 315.391 297.055H315.399Z" fill="#455A64"/>
<path d="M315.367 297.328C315.407 297.448 315.535 297.536 315.672 297.544C315.872 297.264 316.064 296.975 316.264 296.695C317.568 295.159 318.873 293.63 320.274 292.165C322.538 289.78 325.132 287.716 327.317 285.258C331.126 280.977 338.273 267.339 336.216 265.978C335.144 265.266 333.823 268.075 333.431 268.739C331.895 271.364 330.702 274.166 329.125 276.783C327.485 279.528 325.684 282.169 323.883 284.81C321.114 288.876 318.321 292.934 315.6 297.032C315.519 297.128 315.447 297.224 315.367 297.32V297.328ZM318.105 294.022C320.57 290.429 323.003 286.811 325.444 283.202C327.124 280.704 328.789 278.183 330.294 275.574C331.126 274.11 331.879 272.605 332.631 271.092C332.999 270.364 333.367 269.62 333.783 268.907C334.143 268.299 335.48 265.746 336.08 266.682C336.657 267.579 334.872 271.613 334.448 272.549C333.751 274.07 333.039 275.574 332.263 277.055C330.742 279.968 328.989 282.785 326.78 285.242C324.571 287.683 321.994 289.748 319.761 292.173C319.201 292.782 318.641 293.398 318.097 294.03L318.105 294.022Z" fill="white"/>
<path d="M275.366 303.698C281.505 310.373 291.421 312.23 295.031 323.923C295.039 323.971 295.095 323.971 295.119 323.939C295.135 323.939 295.143 323.915 295.135 323.899C294.911 322.723 294.647 321.546 294.326 320.378C292.662 314.095 289.724 307.988 285.835 302.842C283.482 299.753 280.705 296.959 277.543 294.718C275.926 293.574 272.421 290.653 270.404 291.101C266.042 292.077 274.246 302.49 275.366 303.706V303.698Z" fill="#455A64"/>
<path d="M275.734 299.593C278.208 304.443 283.114 307.588 286.867 311.366C289.452 313.967 291.805 316.816 293.662 319.961C294.174 321.274 294.655 322.594 295.119 323.947C295.135 323.947 295.143 323.923 295.135 323.907C294.911 322.731 294.647 321.554 294.326 320.386C294.286 320.321 294.254 320.257 294.222 320.201C292.918 316.608 291.109 313.158 289.124 309.997C286.331 305.547 282.914 301.481 279 297.984C278.328 297.376 276.095 294.726 274.934 295.407C273.822 296.055 275.39 298.928 275.734 299.601V299.593ZM275.318 295.823C276.167 295.503 280.104 299.417 281.649 301.017C284.978 304.451 287.86 308.316 290.205 312.478C291.237 314.303 292.109 316.16 292.902 318.057C291.581 316.088 290.085 314.239 288.46 312.494C285.074 308.869 280.841 305.963 277.767 302.066C276.967 301.049 276.263 299.945 275.734 298.752C275.526 298.28 274.55 296.111 275.318 295.823Z" fill="white"/>
<path d="M282.986 267.283C282.585 270.532 282.545 273.846 282.921 277.103C283.642 283.474 285.875 289.436 289.34 294.807C289.404 294.903 289.46 294.999 289.524 295.095C289.58 295.407 289.636 295.719 289.716 296.023C289.732 296.095 289.74 296.159 289.764 296.231L289.78 296.279C289.828 296.327 289.924 296.311 289.916 296.215C289.916 295.831 289.917 295.447 289.933 295.063C290.053 287.155 291.517 279.416 290.461 271.501C290.221 269.772 289.1 258.455 285.146 260.392C283.306 261.288 283.186 265.626 282.986 267.283Z" fill="#455A64"/>
<path d="M284.562 268.867C284.29 273.742 285.571 278.968 286.571 283.714C287.347 287.403 288.18 291.173 289.34 294.799C289.428 295.095 289.532 295.399 289.628 295.687C289.652 295.791 289.684 295.903 289.716 296.015C289.732 296.103 289.748 296.183 289.78 296.271C289.828 296.319 289.924 296.303 289.916 296.207C289.916 295.823 289.917 295.439 289.933 295.055C289.852 294.767 289.772 294.478 289.692 294.182C289.116 289.884 289.172 285.563 289.204 281.201C289.22 278.848 289.188 276.503 288.98 274.158C288.78 271.901 288.676 269.476 287.972 267.307C287.668 266.362 287.027 264.49 285.699 265.186C284.578 265.77 284.61 267.827 284.546 268.859L284.562 268.867ZM287.467 267.227C288.3 269.788 288.428 272.797 288.612 275.47C288.796 278.031 288.764 280.608 288.74 283.178C288.716 285.899 288.684 288.668 288.932 291.389C287.996 287.964 287.091 284.53 286.427 281.009C285.907 278.255 285.443 275.494 285.122 272.709C284.954 271.276 284.85 269.836 284.978 268.387C285.018 267.875 285.074 267.363 285.186 266.867C285.531 265.282 287.091 266.066 287.467 267.219V267.227Z" fill="white"/>
<path d="M331.526 246.746C331.494 246.874 331.478 246.994 331.446 247.122C331.406 247.322 331.59 247.418 331.742 247.386C331.823 247.362 331.887 247.306 331.911 247.21C331.967 246.986 332.015 246.754 332.071 246.522C332.111 246.33 332.159 246.146 332.199 245.962C332.367 245.657 332.551 245.353 332.751 245.065C334.848 241.896 338.481 239.215 340.946 236.501C343.195 234.044 345.316 231.459 347.037 228.594C348.774 225.697 350.134 222.536 350.567 219.158C350.679 218.254 351.111 215.957 349.974 215.388C348.542 214.668 346.357 217.413 345.58 218.126C342.915 220.615 340.65 223.512 338.745 226.617C334.912 232.852 332.951 239.647 331.526 246.754V246.746Z" fill="#455A64"/>
<path d="M332.167 245.169C331.927 245.681 331.702 246.21 331.526 246.746C331.494 246.874 331.478 246.994 331.446 247.122C331.406 247.322 331.59 247.418 331.742 247.386C331.766 247.298 331.798 247.202 331.831 247.114C331.911 246.914 331.991 246.714 332.071 246.514C332.279 246.018 332.511 245.537 332.751 245.057C333.599 243.368 334.624 241.784 335.824 240.167C337.833 237.478 339.946 234.869 341.859 232.108C342.819 230.723 350.182 220.062 347.285 219.046C346.741 218.846 346.213 219.582 345.925 219.878C344.9 220.943 344.068 222.207 343.275 223.448C341.427 226.337 339.69 229.298 338.041 232.308C335.784 236.453 333.775 240.727 332.159 245.161L332.167 245.169ZM337.433 234.165C338.842 231.499 340.33 228.882 341.891 226.305C342.651 225.049 343.411 223.784 344.236 222.568C344.644 221.967 346.717 219.262 347.285 219.614C348.117 220.134 346.141 224.344 345.54 225.481C344.852 226.777 344.108 228.034 343.323 229.266C341.747 231.755 340.01 234.14 338.217 236.477C336.641 238.55 334.752 240.751 333.279 243.136C334.496 240.071 335.896 237.086 337.425 234.156L337.433 234.165Z" fill="white"/>
<path d="M306.203 283.834C306.243 283.962 306.283 284.074 306.324 284.202C306.388 284.394 306.596 284.386 306.708 284.282C306.772 284.226 306.796 284.138 306.764 284.042C306.692 283.818 306.628 283.594 306.556 283.37C306.5 283.178 306.444 283.001 306.388 282.817C306.388 282.465 306.388 282.113 306.412 281.761C306.628 277.967 308.428 273.822 309.205 270.244C309.917 266.987 310.453 263.689 310.501 260.344C310.549 256.966 310.141 253.541 308.821 250.412C308.46 249.571 307.684 247.37 306.42 247.45C304.819 247.546 304.307 251.02 303.995 252.028C302.946 255.518 302.434 259.159 302.338 262.801C302.146 270.116 303.858 276.983 306.195 283.842L306.203 283.834Z" fill="#455A64"/>
<path d="M305.971 282.153C306.019 282.721 306.091 283.29 306.211 283.834C306.251 283.962 306.292 284.074 306.332 284.202C306.396 284.394 306.604 284.386 306.716 284.282C306.692 284.186 306.668 284.098 306.652 284.002C306.628 283.786 306.588 283.578 306.564 283.362C306.5 282.825 306.452 282.297 306.42 281.761C306.308 279.88 306.396 277.991 306.628 275.99C307.02 272.653 307.532 269.34 307.804 265.986C307.94 264.305 308.965 251.388 305.947 251.964C305.379 252.068 305.291 252.965 305.187 253.373C304.835 254.805 304.747 256.318 304.691 257.791C304.547 261.216 304.523 264.658 304.611 268.083C304.739 272.805 305.147 277.511 305.971 282.153ZM305.003 269.988C304.883 266.971 304.859 263.961 304.915 260.952C304.939 259.487 304.963 258.007 305.067 256.542C305.115 255.814 305.555 252.436 306.219 252.46C307.204 252.492 307.604 257.126 307.66 258.407C307.716 259.872 307.7 261.336 307.644 262.793C307.532 265.738 307.22 268.667 306.852 271.589C306.532 274.174 306.003 277.023 305.923 279.824C305.443 276.559 305.147 273.277 305.003 269.98V269.988Z" fill="white"/>
<path d="M288.956 289.14C290.013 296.007 291.309 302.722 293.118 309.429C294.518 314.599 295.927 319.849 296.127 325.228C296.367 331.662 294.502 338.801 291.237 344.972C293.126 342.867 294.991 340.73 296.839 338.553C300.601 334.143 304.339 329.605 307.012 324.427C307.276 323.915 307.516 323.395 307.756 322.875C307.732 322.843 307.724 322.803 307.732 322.747C309.269 315.728 309.645 308.861 309.085 301.914C307.908 298.248 306.46 294.959 304.547 291.485C302.658 288.06 300.849 284.722 299.849 280.913C299.793 280.696 300.097 280.568 300.185 280.785C302.106 285.827 306.059 290.733 308.38 295.959C308.244 295.095 308.108 294.238 307.948 293.366C306.436 285.09 303.57 276.783 306.596 268.507C306.7 268.227 307.092 268.419 307.004 268.691C304.155 277.903 308.637 288.052 309.965 297.208C310.958 304.018 311.286 311.35 309.637 318.137C310.91 314.407 311.806 310.541 312.67 306.692C317.872 283.474 323.899 260.384 335.184 239.279C335.296 239.071 335.624 239.215 335.52 239.431C323.963 262.329 319.385 287.219 313.367 311.894C313.295 312.174 313.223 312.454 313.15 312.734C315.151 309.477 317.8 306.5 320.41 303.962C320.546 303.834 320.754 303.994 320.634 304.147C317.328 308.388 314.799 313.03 311.814 317.456C310.717 320.906 309.349 324.243 307.5 327.397C305.291 331.15 302.61 334.576 299.817 337.905C304.531 333.951 309.285 330.054 313.719 325.748C320.41 319.249 326.796 312.35 332.575 305.011C332.655 304.907 332.815 305.035 332.735 305.147C327.036 313.086 320.914 320.626 313.975 327.525C308.108 333.359 301.818 339.306 294.775 343.788C288.044 351.535 280.849 359.322 272.333 364.997C271.925 365.269 271.549 364.709 271.901 364.388C273.461 363.004 274.99 361.587 276.503 360.163C277.975 356.881 280.008 353.872 281.313 350.47C282.849 346.469 283.882 342.363 284.434 338.121C284.474 337.809 284.93 337.889 284.914 338.193C284.562 343.972 283.266 351.087 280.176 356.609C282.329 354.48 284.442 352.319 286.507 350.11C292.037 341.667 295.639 331.63 294.43 321.522C293.806 316.328 292.318 311.31 291.101 306.243C289.74 300.593 289.044 294.951 288.556 289.172C288.532 288.924 288.9 288.884 288.94 289.132L288.956 289.14Z" fill="#455A64"/>
<path d="M266.875 58.0009H35.6873V365.077H266.875V58.0009Z" fill="#4E6EF2"/>
<g opacity="0.4">
<path d="M266.875 58.0009H35.6873V365.077H266.875V58.0009Z" fill="black"/>
</g>
<path d="M273.157 58.0009H41.97V365.077H273.157V58.0009Z" fill="#4E6EF2"/>
<g opacity="0.2">
<path d="M273.157 58.0009H41.97V365.077H273.157V58.0009Z" fill="black"/>
</g>
<path d="M257.843 70.2625L53.7723 72.8627L57.2971 349.495L261.368 346.895L257.843 70.2625Z" fill="#EBEBEB"/>
<path d="M55.4062 69.3958L49.4193 345.986L253.459 350.402L259.446 73.8123L55.4062 69.3958Z" fill="#DBDBDB"/>
<path d="M256.462 71.5507H52.3745V348.205H256.462V71.5507Z" fill="white"/>
<path d="M93.0079 256.686H75.6805V274.014H93.0079V256.686Z" fill="#EBEBEB"/>
<path d="M158.508 256.686H102.364V259.223H158.508V256.686Z" fill="#C7C7C7"/>
<path d="M233.164 261.616H102.364V264.153H233.164V261.616Z" fill="#EBEBEB"/>
<path d="M233.164 266.546H102.364V269.083H233.164V266.546Z" fill="#EBEBEB"/>
<path d="M233.164 271.477H102.364V274.014H233.164V271.477Z" fill="#EBEBEB"/>
<path d="M76.953 264.458C77.5933 264.994 78.2016 265.546 78.8018 266.106C79.4101 266.666 79.9863 267.251 80.5786 267.819C81.7471 268.971 82.8676 270.164 83.98 271.364L81.9952 271.493C83.5639 268.203 85.3887 265.058 87.3895 262.024C88.398 260.512 89.4544 259.031 90.5909 257.599C91.7354 256.166 92.9279 254.773 94.2885 253.469C93.7683 255.278 93.088 256.99 92.3596 258.663C91.6233 260.336 90.807 261.968 89.9346 263.561C88.1819 266.746 86.253 269.82 84.0681 272.741L82.9796 274.198L82.0752 272.869C81.1548 271.517 80.2585 270.148 79.4021 268.755C78.9859 268.051 78.5457 267.355 78.1375 266.634C77.7294 265.922 77.3212 265.202 76.953 264.458Z" fill="#4E6EF2"/>
<path d="M93.0079 285.362H75.6805V302.69H93.0079V285.362Z" fill="#EBEBEB"/>
<path d="M158.508 285.362H102.364V287.9H158.508V285.362Z" fill="#C7C7C7"/>
<path d="M233.164 290.293H102.364V292.83H233.164V290.293Z" fill="#EBEBEB"/>
<path d="M233.164 295.223H102.364V297.76H233.164V295.223Z" fill="#EBEBEB"/>
<path d="M233.164 300.153H102.364V302.69H233.164V300.153Z" fill="#EBEBEB"/>
<path d="M177.5 141.029H129.984V143.566H177.5V141.029Z" fill="#C7C7C7"/>
<path d="M233.164 145.959H129.984V148.496H233.164V145.959Z" fill="#EBEBEB"/>
<path d="M233.164 150.889H129.984V153.426H233.164V150.889Z" fill="#EBEBEB"/>
<path d="M233.164 160.749H129.984V163.286H233.164V160.749Z" fill="#EBEBEB"/>
<path d="M174.851 165.679H129.984V168.216H174.851V165.679Z" fill="#EBEBEB"/>
<path d="M256.462 99.4107H52.3745V123.533H256.462V99.4107Z" fill="#4E6EF2"/>
<path d="M89.7425 105.085C89.7425 104.389 90.2787 103.853 90.975 103.853C91.6713 103.853 92.2316 104.389 92.2316 105.085V118.299C92.2316 118.995 91.6473 119.531 90.975 119.531C90.3028 119.531 89.7425 118.995 89.7425 118.299V105.085Z" fill="white"/>
<path d="M98.8824 118.299C98.8824 118.971 98.3222 119.531 97.6739 119.531C96.9776 119.531 96.4414 118.971 96.4414 118.299V105.261C96.4174 104.877 96.6015 104.477 96.9376 104.229C97.4978 103.845 98.2582 103.957 98.6423 104.501L105.877 114.513V105.285C105.877 104.637 106.414 104.077 107.086 104.077C107.758 104.077 108.318 104.637 108.318 105.285V118.299C108.318 118.971 107.758 119.531 107.086 119.531C106.726 119.531 106.39 119.355 106.166 119.083C106.118 119.035 106.078 118.995 106.054 118.947L98.8824 108.999V118.299Z" fill="white"/>
<path d="M113.193 115.634C113.593 115.137 114.337 115.073 114.825 115.474C115.81 116.282 117.514 117.218 119.107 117.202C120.228 117.202 121.236 116.866 121.908 116.37C122.581 115.874 122.869 115.314 122.869 114.753C122.869 114.465 122.805 114.257 122.669 114.033C122.533 113.809 122.332 113.585 121.996 113.361C121.348 112.936 120.252 112.552 118.931 112.304H118.883C117.827 112.104 116.842 111.832 115.994 111.432C115.145 111.032 114.401 110.471 113.913 109.687C113.577 109.151 113.401 108.519 113.401 107.854C113.401 106.51 114.161 105.341 115.193 104.581C116.25 103.821 117.61 103.396 119.067 103.396C121.22 103.396 122.805 104.453 123.949 105.189C124.461 105.549 124.621 106.262 124.261 106.782C123.925 107.318 123.205 107.478 122.669 107.118C121.524 106.358 120.428 105.685 119.059 105.685C118.051 105.685 117.154 105.998 116.546 106.446C115.938 106.894 115.698 107.39 115.698 107.854C115.698 108.126 115.746 108.303 115.858 108.479C115.97 108.655 116.17 108.863 116.466 109.063C117.05 109.463 118.059 109.823 119.267 110.047H119.315C120.46 110.271 121.508 110.559 122.405 110.992C123.325 111.44 124.133 112.024 124.645 112.848C124.982 113.385 125.182 114.057 125.182 114.753C125.182 116.186 124.373 117.418 123.253 118.227C122.156 119.035 120.7 119.507 119.107 119.507C116.69 119.483 114.649 118.275 113.369 117.266C112.872 116.866 112.808 116.122 113.193 115.634Z" fill="white"/>
<path d="M135.122 119.531C131.512 119.531 128.647 116.618 128.647 113.057V105.085C128.647 104.389 129.183 103.853 129.88 103.853C130.576 103.853 131.136 104.389 131.136 105.085V113.057C131.136 115.249 132.929 117.042 135.122 117.042C137.315 117.042 139.108 115.249 139.108 113.057V105.085C139.108 104.389 139.668 103.853 140.364 103.853C141.061 103.853 141.597 104.389 141.597 105.085V113.057C141.597 116.618 138.708 119.531 135.122 119.531Z" fill="white"/>
<path d="M156.667 117.675C156.891 118.323 156.531 119.019 155.883 119.243C155.795 119.267 155.611 119.307 155.387 119.307H155.363C155.139 119.307 154.802 119.259 154.49 119.059C154.202 118.883 153.954 118.587 153.77 118.275C153.458 117.627 153.298 116.818 153.298 115.586C153.274 115.161 153.186 114.865 153.026 114.625C152.89 114.377 152.626 114.153 152.353 113.977C151.881 113.665 151.297 113.481 151.097 113.441H148.456V118.299C148.456 118.971 147.895 119.531 147.199 119.531C146.503 119.531 145.967 118.971 145.967 118.299V105.085C145.967 104.389 146.503 103.853 147.199 103.853H151.209C153.874 103.853 156.003 106.006 156.003 108.671C156.003 110.151 155.331 111.448 154.258 112.344C154.546 112.568 154.818 112.84 155.043 113.177C155.491 113.825 155.779 114.657 155.779 115.594C155.755 116.266 155.827 116.69 155.867 116.914C156.227 117.026 156.515 117.298 156.651 117.675H156.667ZM153.53 108.671C153.53 107.374 152.497 106.342 151.225 106.342H148.472V110.96H151.225C152.505 110.96 153.53 109.927 153.53 108.671Z" fill="white"/>
<path d="M168.296 115.842H162.854L161.757 118.755C161.557 119.251 161.085 119.539 160.589 119.539C160.429 119.539 160.301 119.515 160.165 119.475C159.516 119.227 159.204 118.515 159.428 117.859L164.375 104.661C164.575 104.165 165.071 103.853 165.559 103.877C166.071 103.853 166.543 104.165 166.744 104.661L171.69 117.859C171.914 118.507 171.602 119.227 170.953 119.475C170.841 119.523 170.681 119.539 170.529 119.539C170.033 119.539 169.569 119.251 169.385 118.755L168.288 115.842H168.296ZM167.376 113.377L165.559 108.559L163.742 113.377H167.368H167.376Z" fill="white"/>
<path d="M177.236 118.299C177.236 118.971 176.676 119.531 176.028 119.531C175.331 119.531 174.795 118.971 174.795 118.299V105.261C174.771 104.877 174.955 104.477 175.291 104.229C175.852 103.845 176.612 103.957 176.996 104.501L184.231 114.513V105.285C184.231 104.637 184.767 104.077 185.44 104.077C186.112 104.077 186.672 104.637 186.672 105.285V118.299C186.672 118.971 186.112 119.531 185.44 119.531C185.079 119.531 184.743 119.355 184.519 119.083C184.471 119.035 184.431 118.995 184.407 118.947L177.236 108.999V118.299Z" fill="white"/>
<path d="M191.346 111.472C191.37 107.038 195.084 103.428 199.566 103.404C201.535 103.404 203.327 104.053 204.744 105.149C205.28 105.597 205.368 106.382 204.968 106.942C204.52 107.502 203.687 107.59 203.175 107.19C202.191 106.382 200.958 105.957 199.566 105.957C198.021 105.957 196.588 106.582 195.532 107.574C194.524 108.607 193.899 109.951 193.899 111.472C193.899 112.993 194.524 114.385 195.532 115.37C196.588 116.354 198.021 116.986 199.566 116.986C200.958 116.986 202.167 116.562 203.175 115.754C203.687 115.37 204.52 115.466 204.968 116.002C205.368 116.562 205.28 117.37 204.744 117.795C203.335 118.891 201.543 119.539 199.566 119.539C195.084 119.539 191.37 115.93 191.346 111.472Z" fill="white"/>
<path d="M209.306 118.299V105.085C209.306 104.389 209.842 103.853 210.538 103.853H217.862C218.51 103.853 219.094 104.389 219.094 105.085C219.094 105.781 218.51 106.342 217.862 106.342H211.787V110.439H217.005C217.677 110.439 218.238 111.024 218.238 111.672C218.238 112.368 217.677 112.928 217.005 112.928H211.787V117.05H217.862C218.51 117.05 219.094 117.611 219.094 118.307C219.094 119.003 218.51 119.539 217.862 119.539H210.602C210.554 119.539 210.554 119.515 210.554 119.515L210.53 119.539C209.834 119.539 209.298 118.979 209.298 118.307L209.306 118.299Z" fill="white"/>
<path d="M233.596 240.879H75.2483V202.615H233.596V240.879ZM76.1127 239.903H232.732V203.591H76.1127V239.903Z" fill="#EBEBEB"/>
<path d="M233.164 225.161H75.6805V226.137H233.164V225.161Z" fill="#EBEBEB"/>
<path d="M233.164 210.458H75.6805V211.435H233.164V210.458Z" fill="#EBEBEB"/>
<path d="M127.519 203.103H126.654V240.391H127.519V203.103Z" fill="#EBEBEB"/>
<path d="M182.19 203.103H181.326V240.391H182.19V203.103Z" fill="#EBEBEB"/>
<path d="M84.6683 207.097C87.4535 206.897 90.2387 206.801 93.0239 206.721C95.8091 206.633 98.5943 206.617 101.38 206.609C104.165 206.617 106.95 206.633 109.735 206.721L113.913 206.857C115.305 206.937 116.698 206.985 118.091 207.097C116.698 207.209 115.305 207.257 113.913 207.337L109.735 207.473C106.95 207.561 104.165 207.577 101.38 207.585C98.5943 207.569 95.8091 207.561 93.0239 207.473C90.2387 207.393 87.4535 207.297 84.6683 207.097Z" fill="#C7C7C7"/>
<path d="M137.707 207.097C140.492 206.897 143.277 206.801 146.063 206.721C148.848 206.633 151.633 206.617 154.418 206.609C157.203 206.617 159.989 206.633 162.774 206.721L166.952 206.857C168.344 206.937 169.737 206.985 171.129 207.097C169.737 207.209 168.344 207.257 166.952 207.337L162.774 207.473C159.989 207.561 157.203 207.577 154.418 207.585C151.633 207.569 148.848 207.561 146.063 207.473C143.277 207.393 140.492 207.297 137.707 207.097Z" fill="#C7C7C7"/>
<path d="M191.074 207.097C193.859 206.897 196.644 206.801 199.43 206.721C202.215 206.633 205 206.617 207.785 206.609C210.57 206.617 213.356 206.633 216.141 206.721L220.319 206.857C221.711 206.937 223.104 206.985 224.496 207.097C223.104 207.209 221.711 207.257 220.319 207.337L216.141 207.473C213.356 207.561 210.57 207.577 207.785 207.585C205 207.569 202.215 207.561 199.43 207.473C196.644 207.393 193.859 207.297 191.074 207.097Z" fill="#C7C7C7"/>
<path d="M84.6683 216.501C87.4535 216.301 90.2387 216.205 93.0239 216.125C95.8091 216.037 98.5943 216.021 101.38 216.013C104.165 216.021 106.95 216.037 109.735 216.125L113.913 216.261C115.305 216.341 116.698 216.389 118.091 216.501C116.698 216.613 115.305 216.661 113.913 216.741L109.735 216.877C106.95 216.965 104.165 216.981 101.38 216.989C98.5943 216.973 95.8091 216.965 93.0239 216.877C90.2387 216.797 87.4535 216.701 84.6683 216.501Z" fill="#EBEBEB"/>
<path d="M137.707 216.501C140.492 216.301 143.277 216.205 146.063 216.125C148.848 216.037 151.633 216.021 154.418 216.013C157.203 216.021 159.989 216.037 162.774 216.125L166.952 216.261C168.344 216.341 169.737 216.389 171.129 216.501C169.737 216.613 168.344 216.661 166.952 216.741L162.774 216.877C159.989 216.965 157.203 216.981 154.418 216.989C151.633 216.973 148.848 216.965 146.063 216.877C143.277 216.797 140.492 216.701 137.707 216.501Z" fill="#EBEBEB"/>
<path d="M191.074 216.501C193.859 216.301 196.644 216.205 199.43 216.125C202.215 216.037 205 216.021 207.785 216.013C210.57 216.021 213.356 216.037 216.141 216.125L220.319 216.261C221.711 216.341 223.104 216.389 224.496 216.501C223.104 216.613 221.711 216.661 220.319 216.741L216.141 216.877C213.356 216.965 210.57 216.981 207.785 216.989C205 216.973 202.215 216.965 199.43 216.877C196.644 216.797 193.859 216.701 191.074 216.501Z" fill="#EBEBEB"/>
<path d="M84.6683 220.287C87.4535 220.087 90.2387 219.99 93.0239 219.91C95.8091 219.822 98.5943 219.806 101.38 219.798C104.165 219.806 106.95 219.822 109.735 219.91L113.913 220.047C115.305 220.127 116.698 220.175 118.091 220.287C116.698 220.399 115.305 220.447 113.913 220.527L109.735 220.663C106.95 220.751 104.165 220.767 101.38 220.775C98.5943 220.759 95.8091 220.751 93.0239 220.663C90.2387 220.583 87.4535 220.487 84.6683 220.287Z" fill="#EBEBEB"/>
<path d="M137.707 220.287C140.492 220.087 143.277 219.99 146.063 219.91C148.848 219.822 151.633 219.806 154.418 219.798C157.203 219.806 159.989 219.822 162.774 219.91L166.952 220.047C168.344 220.127 169.737 220.175 171.129 220.287C169.737 220.399 168.344 220.447 166.952 220.527L162.774 220.663C159.989 220.751 157.203 220.767 154.418 220.775C151.633 220.759 148.848 220.751 146.063 220.663C143.277 220.583 140.492 220.487 137.707 220.287Z" fill="#EBEBEB"/>
<path d="M191.074 220.287C193.859 220.087 196.644 219.99 199.43 219.91C202.215 219.822 205 219.806 207.785 219.798C210.57 219.806 213.356 219.822 216.141 219.91L220.319 220.047C221.711 220.127 223.104 220.175 224.496 220.287C223.104 220.399 221.711 220.447 220.319 220.527L216.141 220.663C213.356 220.751 210.57 220.767 207.785 220.775C205 220.759 202.215 220.751 199.43 220.663C196.644 220.583 193.859 220.487 191.074 220.287Z" fill="#EBEBEB"/>
<path d="M84.6683 230.387C87.4535 230.187 90.2387 230.091 93.0239 230.011C95.8091 229.923 98.5943 229.907 101.38 229.899C104.165 229.907 106.95 229.923 109.735 230.011L113.913 230.147C115.305 230.227 116.698 230.275 118.091 230.387C116.698 230.499 115.305 230.547 113.913 230.627L109.735 230.763C106.95 230.851 104.165 230.867 101.38 230.875C98.5943 230.859 95.8091 230.851 93.0239 230.763C90.2387 230.683 87.4535 230.587 84.6683 230.387Z" fill="#EBEBEB"/>
<path d="M137.707 230.387C140.492 230.187 143.277 230.091 146.063 230.011C148.848 229.923 151.633 229.907 154.418 229.899C157.203 229.907 159.989 229.923 162.774 230.011L166.952 230.147C168.344 230.227 169.737 230.275 171.129 230.387C169.737 230.499 168.344 230.547 166.952 230.627L162.774 230.763C159.989 230.851 157.203 230.867 154.418 230.875C151.633 230.859 148.848 230.851 146.063 230.763C143.277 230.683 140.492 230.587 137.707 230.387Z" fill="#EBEBEB"/>
<path d="M191.074 230.387C193.859 230.187 196.644 230.091 199.43 230.011C202.215 229.923 205 229.907 207.785 229.899C210.57 229.907 213.356 229.923 216.141 230.011L220.319 230.147C221.711 230.227 223.104 230.275 224.496 230.387C223.104 230.499 221.711 230.547 220.319 230.627L216.141 230.763C213.356 230.851 210.57 230.867 207.785 230.875C205 230.859 202.215 230.851 199.43 230.763C196.644 230.683 193.859 230.587 191.074 230.387Z" fill="#EBEBEB"/>
<path d="M84.6683 234.165C87.4535 233.964 90.2387 233.868 93.0239 233.788C95.8091 233.7 98.5943 233.684 101.38 233.676C104.165 233.684 106.95 233.7 109.735 233.788L113.913 233.924C115.305 234.004 116.698 234.053 118.091 234.165C116.698 234.277 115.305 234.325 113.913 234.405L109.735 234.541C106.95 234.629 104.165 234.645 101.38 234.653C98.5943 234.637 95.8091 234.629 93.0239 234.541C90.2387 234.461 87.4535 234.365 84.6683 234.165Z" fill="#EBEBEB"/>
<path d="M137.707 234.165C140.492 233.964 143.277 233.868 146.063 233.788C148.848 233.7 151.633 233.684 154.418 233.676C157.203 233.684 159.989 233.7 162.774 233.788L166.952 233.924C168.344 234.004 169.737 234.053 171.129 234.165C169.737 234.277 168.344 234.325 166.952 234.405L162.774 234.541C159.989 234.629 157.203 234.645 154.418 234.653C151.633 234.637 148.848 234.629 146.063 234.541C143.277 234.461 140.492 234.365 137.707 234.165Z" fill="#EBEBEB"/>
<path d="M191.074 234.165C193.859 233.964 196.644 233.868 199.43 233.788C202.215 233.7 205 233.684 207.785 233.676C210.57 233.684 213.356 233.7 216.141 233.788L220.319 233.924C221.711 234.004 223.104 234.053 224.496 234.165C223.104 234.277 221.711 234.325 220.319 234.405L216.141 234.541C213.356 234.629 210.57 234.645 207.785 234.653C205 234.637 202.215 234.629 199.43 234.541C196.644 234.461 193.859 234.365 191.074 234.165Z" fill="#EBEBEB"/>
<path d="M222.287 78.1936H86.5492C86.5492 63.9475 98.0981 52.3985 112.344 52.3985H196.492C210.738 52.3985 222.287 63.9475 222.287 78.1936Z" fill="#C7C7C7"/>
<path d="M185.071 35.6873H122.861L120.1 52.3985H188.745L185.071 35.6873ZM154.418 47.7085C152.393 47.7085 150.753 46.0758 150.753 44.0429C150.753 42.018 152.401 40.3773 154.418 40.3773C156.435 40.3773 158.084 42.026 158.084 44.0429C158.084 46.0598 156.451 47.7085 154.418 47.7085Z" fill="#C7C7C7"/>
<path d="M188.745 52.3985H120.1L120.716 48.6609H187.921L188.745 52.3985Z" fill="#A6A6A6"/>
<path d="M114.217 148.464C114.217 148.464 110.648 177.036 104.781 183.463C97.738 191.178 92.6318 190.05 89.7906 194.019C86.9493 190.034 81.8351 191.17 74.7921 183.455C68.9256 177.028 65.3641 148.456 65.3641 148.456C80.8187 140.956 89.7906 132.545 89.7906 132.545C90.0627 132.809 99.0025 141.069 114.217 148.456V148.464Z" fill="#4E6EF2"/>
<path opacity="0.1" d="M89.7906 132.561V194.019C86.9493 190.034 81.8351 191.17 74.7921 183.455C68.9256 177.028 65.3641 148.456 65.3641 148.456C80.8187 140.956 89.7906 132.545 89.7906 132.545V132.561Z" fill="black"/>
<path d="M69.1497 150.761C69.1497 150.761 72.167 174.891 77.1131 180.325C83.0677 186.848 87.3815 185.888 89.7826 189.249C92.1836 185.888 96.5054 186.848 102.452 180.325C107.406 174.891 110.415 150.761 110.415 150.761C97.3618 144.422 89.7826 137.323 89.7826 137.323C89.7826 137.323 82.1953 144.422 69.1417 150.761H69.1497Z" fill="#4E6EF2"/>
<path opacity="0.2" d="M110.423 150.761C110.423 150.761 107.406 174.891 102.452 180.325C96.5055 186.84 92.1916 185.896 89.7826 189.241V137.323C90.0147 137.539 97.5619 144.518 110.415 150.761H110.423Z" fill="white"/>
<path d="M87.9898 172.986L81.0988 165.815L83.6519 163.358L87.4536 167.312L95.6411 154.746L98.6103 156.683L87.9898 172.986Z" fill="white"/>
<path d="M263.769 153.61H267.179V20.3767H263.769V153.61Z" fill="#DBDBDB"/>
<path d="M263.001 13.2777H267.955L266.963 0H264.001L263.001 13.2777Z" fill="#DBDBDB"/>
<path d="M276.967 172.474C267.811 172.474 263.025 165.351 263.025 158.324V142.869H268.003V158.324C268.003 161.733 269.892 167.504 276.975 167.504C283.242 167.504 285.274 161.261 285.274 158.244V149.72H290.253V158.244C290.253 160.573 289.484 164.134 287.323 167.152C284.834 170.633 281.257 172.482 276.983 172.482L276.967 172.474Z" fill="#263238"/>
<path d="M161.477 76.3928C161.477 76.3928 177.188 69.3018 186.928 69.5579C196.652 69.838 214.356 76.3928 214.356 76.3928C214.356 76.3928 230.443 70.1021 240.407 69.846C250.371 69.5659 265.482 76.3928 265.482 76.3928C265.482 76.3928 280.592 69.5579 290.557 69.846C300.521 70.1021 316.584 76.3928 316.584 76.3928C316.584 76.3928 334.287 69.846 344.036 69.5579C353.776 69.2938 369.487 76.3928 369.487 76.3928C353.32 44.147 315.047 11.661 265.482 11.661C215.917 11.661 177.628 44.147 161.477 76.3928Z" fill="#4E6EF2"/>
<path opacity="0.4" d="M161.477 76.3928C161.477 76.3928 177.188 69.3018 186.928 69.5579C196.652 69.838 214.356 76.3928 214.356 76.3928C214.356 76.3928 230.443 70.1021 240.407 69.846C250.371 69.5659 265.482 76.3928 265.482 76.3928C265.482 76.3928 280.592 69.5579 290.557 69.846C300.521 70.1021 316.584 76.3928 316.584 76.3928C316.584 76.3928 334.287 69.846 344.036 69.5579C353.776 69.2938 369.487 76.3928 369.487 76.3928C353.32 44.147 315.047 11.661 265.482 11.661C215.917 11.661 177.628 44.147 161.477 76.3928Z" fill="white"/>
<g opacity="0.1">
<path d="M161.477 76.3928C164.887 72.3751 168.36 68.4054 171.93 64.5317C175.475 60.634 179.085 56.8004 182.806 53.0788C190.242 45.6436 197.917 38.3845 206.449 32.2939C210.69 29.2285 215.148 26.4433 219.998 24.5385C224.849 22.5217 229.827 20.8329 234.829 19.1922C239.831 17.5835 244.905 16.1589 250.019 14.9184C255.125 13.6379 260.28 12.5414 265.482 11.669C254.997 12.8695 244.649 15.1825 234.509 18.1598C229.434 19.6404 224.432 21.3932 219.526 23.354C214.54 25.2748 209.946 28.0841 205.64 31.1574C201.342 34.2707 197.285 37.6802 193.371 41.2417C189.465 44.8032 185.664 48.4848 182.046 52.3345C174.771 59.9857 167.872 67.9972 161.485 76.3928H161.477Z" fill="black"/>
<path d="M214.38 76.3928C215.316 72.9353 216.357 69.5098 217.549 66.1404C218.702 62.7549 219.966 59.4175 221.375 56.1441C224.224 49.6373 227.394 43.1385 231.779 37.6322C236.213 32.1178 241.776 27.5558 247.482 23.306C250.347 21.1771 253.301 19.1682 256.31 17.2394C259.303 15.2786 262.369 13.4378 265.482 11.661C258.991 14.7103 252.78 18.3519 246.858 22.4336C240.959 26.5394 235.349 31.1574 230.691 36.7518C229.555 38.1604 228.474 39.657 227.57 41.2177C226.601 42.7464 225.729 44.323 224.873 45.9157C223.216 49.1171 221.671 52.3745 220.375 55.7359C217.781 62.4428 215.685 69.3418 214.372 76.3928H214.38Z" fill="black"/>
<path d="M265.482 76.3928C265.77 70.9985 265.906 65.6042 266.018 60.2099C266.13 54.8155 266.122 49.4212 266.178 44.0269C266.122 38.6326 266.13 33.2383 266.018 27.844L265.826 19.7525C265.706 17.0553 265.642 14.3582 265.482 11.661C265.322 14.3582 265.258 17.0553 265.138 19.7525L264.946 27.844C264.834 33.2383 264.842 38.6326 264.786 44.0269C264.842 49.4212 264.834 54.8155 264.946 60.2099C265.058 65.6042 265.194 70.9985 265.482 76.3928Z" fill="black"/>
<path d="M369.487 76.3928C363.1 67.9972 356.201 59.9857 348.926 52.3345C345.308 48.4848 341.507 44.8112 337.601 41.2417C333.687 37.6802 329.63 34.2707 325.332 31.1574C321.026 28.076 316.432 25.2668 311.446 23.354C306.532 21.3852 301.537 19.6404 296.463 18.1598C286.323 15.1825 275.974 12.8695 265.49 11.669C270.692 12.5414 275.846 13.6298 280.953 14.9184C286.067 16.1589 291.141 17.5835 296.143 19.1922C301.137 20.8329 306.115 22.5217 310.974 24.5385C315.832 26.4433 320.282 29.2285 324.523 32.2939C333.055 38.3845 340.73 45.6516 348.165 53.0788C351.887 56.8004 355.497 60.634 359.042 64.5317C362.612 68.4054 366.085 72.3751 369.495 76.3928H369.487Z" fill="black"/>
<path d="M316.584 76.3928C315.271 69.3418 313.174 62.4428 310.581 55.7359C309.285 52.3745 307.74 49.1171 306.083 45.9157C305.227 44.331 304.355 42.7464 303.386 41.2177C302.474 39.657 301.393 38.1684 300.265 36.7518C295.615 31.1574 289.996 26.5394 284.098 22.4336C278.175 18.3519 271.965 14.7103 265.474 11.661C268.587 13.4378 271.653 15.2786 274.646 17.2394C277.655 19.1682 280.616 21.1691 283.474 23.306C289.18 27.5558 294.742 32.1178 299.176 37.6322C303.562 43.1385 306.732 49.6373 309.581 56.1441C310.989 59.4175 312.254 62.7629 313.407 66.1404C314.599 69.5098 315.639 72.9353 316.576 76.3928H316.584Z" fill="black"/>
</g>
<path opacity="0.1" d="M369.479 76.3848C369.006 76.1767 353.624 69.3098 344.036 69.5659C334.288 69.846 316.584 76.3928 316.584 76.3928C316.584 76.3928 300.513 70.1101 290.557 69.846C280.592 69.5579 265.482 76.3928 265.482 76.3928C265.482 76.3928 250.371 69.5579 240.407 69.846C231.067 70.0861 216.341 75.6325 214.54 76.3208C216.213 75.5204 230.915 68.6295 239.927 67.7651C249.507 66.8527 265.482 73.2475 265.482 73.2475C265.482 73.2475 279.72 66.3245 291.037 65.5482C302.346 64.7638 314.535 71.4227 315.423 70.9585C316.304 70.5023 329.253 60.7781 337.713 60.3299C357.265 59.2815 330.118 29.1405 305.611 19.1042C335.44 30.5331 358.018 53.511 369.479 76.3688V76.3848Z" fill="black"/>
<g opacity="0.2">
<path d="M211.179 32.71C216.781 30.9653 223.296 31.6936 228.29 34.7989C222.672 33.8465 216.861 33.1662 211.179 32.71Z" fill="white"/>
<path d="M319.777 32.71C314.087 33.1742 308.284 33.8465 302.666 34.7989C307.668 31.6936 314.175 30.9653 319.777 32.71Z" fill="white"/>
<path d="M238.174 36.4957C245.689 33.4864 254.541 33.4624 262.048 36.4957C254.061 35.6633 246.162 35.6713 238.174 36.4957Z" fill="white"/>
<path d="M294.038 36.4957C286.051 35.6713 278.143 35.6633 270.164 36.4957C277.671 33.4624 286.531 33.4864 294.038 36.4957Z" fill="white"/>
</g>
<path d="M128.655 245.601L122.789 272.469C122.533 273.261 122.941 273.886 123.709 273.862L137.459 273.421C138.227 273.397 139.06 272.733 139.324 271.941L145.19 245.073C145.454 244.281 145.038 243.657 144.27 243.681L130.52 244.121C129.752 244.145 128.919 244.809 128.655 245.601Z" fill="#A6A6A6"/>
<path d="M130.28 245.529L124.413 272.397C124.157 273.189 124.565 273.814 125.334 273.79L139.084 273.349C139.852 273.325 140.684 272.661 140.948 271.869L146.815 245.001C147.079 244.209 146.663 243.585 145.895 243.609L132.145 244.049C131.376 244.073 130.544 244.737 130.28 245.529Z" fill="#C7C7C7"/>
<path d="M134.09 246.634C134.09 247.282 133.577 247.81 132.929 247.81C132.281 247.81 131.753 247.298 131.753 246.65C131.753 246.002 132.265 245.473 132.913 245.473C133.561 245.473 134.09 245.986 134.09 246.634Z" fill="#263238"/>
<path d="M85.6047 288.044C93.7682 304.443 111.736 325.572 118.971 325.5C122.413 325.468 128.575 326.148 133.001 322.09C142.653 313.238 150.513 296.551 151.977 287.067C152.497 283.698 135.986 276.791 133.633 279.584C128.127 286.123 121.844 298.84 120.844 298.784C117.138 298.584 102.388 286.867 92.0875 278.608C79.5861 268.587 82.3473 281.505 85.5967 288.036L85.6047 288.044Z" fill="#D3766A"/>
<path d="M151.977 269.7C150.088 262.921 148.568 261.464 150.016 254.901C150.969 250.596 148.624 248.139 145.662 251.644C140.82 257.383 141.421 266.642 142.549 269.796L151.977 269.708V269.7Z" fill="#D3766A"/>
<path d="M151.241 290.013C151.241 290.013 154.066 280.44 152.778 273.013C151.881 267.875 148.688 256.926 134.13 251.436C130.68 250.131 124.838 250.732 129.704 254.902C133.161 257.863 136.25 258.703 137.947 260.792C137.947 260.792 130.608 262.433 129.44 265.938C128.919 267.507 127.591 271.821 127.039 275.326C127.039 275.326 127.767 275.654 128.759 275.935C128.759 275.935 127.975 279.32 130.528 283.938L151.249 290.005L151.241 290.013Z" fill="#D3766A"/>
<path d="M151.137 268.251C149.016 266.53 144.454 262.969 139.708 261.344C134.434 259.543 123.797 257.495 122.509 261.4C121.564 264.265 125.558 265.402 125.558 265.402C125.558 265.402 120.98 265.482 120.692 268.259C120.428 270.788 123.573 271.485 123.573 271.485C123.573 271.485 120.804 272.013 121.02 274.494C121.276 277.479 127.038 275.886 129.912 278.688C130.56 279.312 151.137 268.259 151.137 268.259V268.251Z" fill="#D3766A"/>
<path d="M138.731 267.235C136.467 265.946 130.584 264.338 125.638 265.33C125.526 265.354 125.486 265.45 125.59 265.45C131.264 265.514 136.515 266.659 138.715 267.283C138.748 267.291 138.756 267.251 138.731 267.235Z" fill="#263238"/>
<path d="M136.763 272.501C134.698 271.589 128.551 270.204 123.581 271.381C123.469 271.405 123.437 271.509 123.541 271.501C129.472 271.324 134.522 272.061 136.755 272.549C136.787 272.549 136.795 272.509 136.771 272.501H136.763Z" fill="#263238"/>
<path d="M93.1119 302.922L106.686 288.676C106.686 288.676 96.5374 279.408 89.0782 275.79C81.627 272.173 80.4105 277.015 83.4998 284.474C86.5891 291.933 93.1039 302.922 93.1039 302.922H93.1119Z" fill="#EBEBEB"/>
<path d="M90.0946 276.311H82.1952C82.2993 276.015 82.4514 275.742 82.6274 275.518H88.494C88.678 275.606 88.8781 275.694 89.0782 275.79C89.4144 275.95 89.7505 276.127 90.0946 276.311ZM92.8078 277.903H81.9151C81.9151 278.151 81.9151 278.416 81.9391 278.696H94.0323C93.6242 278.424 93.216 278.159 92.8078 277.903ZM96.3213 280.28H82.1632C82.2113 280.536 82.2753 280.801 82.3473 281.073H97.4098C97.0496 280.809 96.6895 280.544 96.3213 280.28ZM99.4907 282.657H82.8195C82.9076 282.921 82.9956 283.178 83.0996 283.45H100.491C100.171 283.186 99.8348 282.921 99.4907 282.657ZM102.444 285.034H83.7399C83.852 285.291 83.964 285.555 84.0841 285.827H103.396C103.092 285.571 102.78 285.307 102.444 285.034ZM105.261 287.411H84.7964L85.1805 288.204H106.166C105.933 288.004 105.629 287.74 105.261 287.411ZM85.9489 289.788C86.0849 290.053 86.213 290.325 86.349 290.589H104.861L105.621 289.788H85.9489ZM87.1574 292.173C87.2934 292.438 87.4375 292.71 87.5656 292.966H102.596L103.348 292.173H87.1574ZM88.4139 294.55C88.55 294.815 88.694 295.079 88.8381 295.343H100.331L101.083 294.55H88.4139ZM89.6945 296.928C89.8465 297.2 89.9906 297.464 90.1347 297.72H98.0661L98.8184 296.928H89.6945ZM91.031 299.305C91.1831 299.585 91.3272 299.849 91.4712 300.097H95.8011L96.5534 299.305H91.031ZM92.3836 301.682C92.5677 302.01 92.7278 302.282 92.8398 302.482H93.5201L94.2884 301.682H92.3836Z" fill="#DBDBDB"/>
<path d="M102.62 286.491C100.331 288.508 94.2964 294.174 90.879 298.392C90.855 298.416 90.951 298.512 90.975 298.488C94.3685 295.431 100.659 288.844 102.756 286.627C102.796 286.587 102.66 286.451 102.62 286.491Z" fill="#263238"/>
<path d="M292.95 371.111C290.861 371.912 230.259 373.016 227.89 371.656C227.634 371.503 227.706 368.83 226.809 361.907C226.761 361.579 225.385 360.291 223.224 358.482C215.116 351.687 196.076 337.369 196.076 337.369L226.321 311.094L255.63 339.898L263.249 347.389C263.249 347.389 288.012 360.763 290.461 362.524C292.894 364.3 295.039 370.295 292.95 371.103V371.111Z" fill="#D3766A"/>
<path d="M292.942 371.103C290.861 371.912 230.259 373.008 227.882 371.656C227.626 371.503 227.698 368.83 226.809 361.907C236.325 363.42 278.816 364.22 283.17 362.492C287.075 360.931 279.616 356.377 278.047 355.465C283.842 358.65 289.372 361.739 290.461 362.532C292.894 364.3 295.031 370.303 292.942 371.103Z" fill="#263238"/>
<path d="M249.163 329.822L216.997 358.354C216.997 358.354 183.471 324.267 176.564 324.003C173.09 323.867 117.602 354.856 91.3672 357.562C72.7592 359.482 61.3783 335.816 61.3783 335.816L102.524 319.905C131.248 305.747 163.614 280.32 183.191 282.689C204.448 285.266 249.171 329.83 249.171 329.83L249.163 329.822Z" fill="#37474F"/>
<path d="M238.887 325.748C233.628 330.422 235.069 329.013 229.859 333.743C227.306 336.056 214.46 347.669 212.443 350.222C212.395 350.278 212.475 350.358 212.539 350.318C215.244 348.502 227.842 336.625 230.347 334.264C235.469 329.437 233.948 330.774 239.023 325.892C239.119 325.804 238.991 325.66 238.887 325.748Z" fill="#263238"/>
<path d="M212.035 348.742C204.728 342.299 180.782 321.314 179.805 320.538C179.021 319.913 178.228 319.089 177.316 318.665C176.532 318.305 175.763 318.505 175.011 318.849C173.907 319.361 172.818 319.929 171.722 320.466C169.561 321.522 167.4 322.571 165.239 323.627C156.867 327.717 148.536 331.911 140.1 335.864C131.985 339.666 123.749 343.243 115.273 346.165C106.846 349.07 98.1301 351.287 89.2703 352.367C88.1818 352.503 87.0854 352.615 85.9889 352.719C85.9089 352.719 85.9089 352.847 85.9889 352.847C94.6966 352.423 103.26 350.647 111.584 348.085C119.979 345.5 128.119 342.155 136.098 338.481C144.366 334.68 152.513 330.606 160.661 326.556C164.959 324.419 169.257 322.258 173.57 320.145C174.547 319.665 175.939 318.625 177.06 319.145C177.54 319.369 177.948 319.761 178.349 320.097C178.829 320.498 179.301 320.89 179.781 321.29C181.63 322.827 210.979 348.109 211.947 348.838C212.019 348.894 212.115 348.798 212.043 348.734L212.035 348.742Z" fill="#263238"/>
<path opacity="0.1" d="M176.436 324.003C171.986 324.475 117.338 354.864 91.3592 357.554C72.7592 359.474 61.3703 335.8 61.3703 335.8L75.4403 330.358L176.436 324.003Z" fill="black"/>
<path d="M62.6669 329.045C62.6669 329.045 58.2009 354.888 71.1185 365.045C84.044 375.201 170.721 373.977 185.087 369.335C199.454 364.693 199.902 341.507 184.199 336.136C169.265 331.03 113.721 328.541 112.152 327.917C111.76 327.757 117.787 324.147 117.763 323.923L103.3 319.505L62.6669 329.045Z" fill="#37474F"/>
<path d="M82.2833 328.397C82.2673 328.285 82.0912 328.325 82.0912 328.429C82.1072 331.35 81.0187 334.424 79.1059 336.641C76.905 339.178 73.6636 340.602 70.7263 342.091C70.4462 342.235 70.6543 342.675 70.9504 342.587C72.7432 342.051 74.5039 341.267 76.1447 340.354C77.6333 339.522 79.0099 338.473 80.0503 337.105C81.9712 334.592 82.8115 331.534 82.2913 328.397H82.2833Z" fill="#263238"/>
<path d="M111.104 325.196C110.447 324.355 109.735 323.563 109.047 322.747C107.43 320.818 105.805 318.889 104.109 317.032C103.949 316.856 103.636 317.104 103.781 317.296C104.925 318.793 106.134 320.234 107.318 321.69C107.926 322.434 108.543 323.179 109.159 323.923C109.735 324.611 110.447 325.3 110.872 326.1C111.312 326.924 110.736 327.637 109.871 327.725C109.103 327.805 108.391 327.413 107.806 326.964C106.47 325.94 105.413 324.467 104.301 323.219C103.62 322.45 102.94 321.682 102.244 320.93C101.508 320.122 100.723 319.361 99.9869 318.561C99.9389 318.513 99.8508 318.585 99.8909 318.641C100.531 319.521 101.123 320.442 101.764 321.322C102.404 322.202 103.06 323.075 103.716 323.939C104.341 324.755 104.997 325.556 105.661 326.348C106.23 327.012 106.878 327.669 107.638 328.117C108.871 328.837 111 328.997 111.656 327.405C111.976 326.62 111.576 325.828 111.096 325.212L111.104 325.196Z" fill="#263238"/>
<path d="M183.119 369.423C178.172 369.511 173.226 369.799 168.28 369.911C163.374 370.015 158.468 370.047 153.562 369.999C143.71 369.903 141.853 369.527 132.025 368.846C122.084 368.158 111.368 367.174 101.5 365.805C96.7775 365.149 91.9915 364.605 87.3175 363.604C83.1076 362.7 79.29 360.947 76.1367 357.89C69.7419 351.687 67.2608 342.571 66.2364 333.863C66.1003 332.695 65.9883 331.526 65.8923 330.35C65.8923 330.27 65.7642 330.27 65.7722 330.35C66.3485 339.282 67.7411 348.59 73.3515 355.769C75.7845 358.874 78.8738 361.419 82.4994 362.876C86.9173 364.645 91.8234 365.061 96.4974 365.693C106.406 367.038 117.17 368.078 127.135 368.846C137.163 369.623 139.22 370.111 149.272 370.255C159.332 370.407 169.401 370.255 179.445 369.767C180.67 369.703 181.894 369.631 183.119 369.527C183.191 369.527 183.191 369.415 183.119 369.415V369.423Z" fill="#263238"/>
<path d="M159.18 331.654C156.067 331.198 142.653 329.582 139.492 329.309C133.225 328.781 128.551 328.301 122.268 328.005C118.699 327.837 115.137 327.821 111.56 327.869C111.448 327.869 111.456 328.037 111.56 328.045C117.843 328.613 124.125 329.013 130.416 329.429C136.691 329.846 155.571 331.822 159.132 332.119C159.396 332.143 159.444 331.694 159.18 331.654Z" fill="#263238"/>
<path d="M118.491 323.611C115.962 324.651 113.593 326.02 111.28 327.469C108.999 328.901 106.67 330.398 104.605 332.135C104.549 332.183 104.621 332.255 104.685 332.231C107.134 331.102 109.479 329.686 111.808 328.325C114.145 326.964 116.474 325.572 118.635 323.939C118.787 323.827 118.691 323.523 118.483 323.603L118.491 323.611Z" fill="#263238"/>
<path d="M111.36 325.524C110.719 327.781 60.706 337.329 58.8572 336.849C58.8572 336.849 60.698 311.518 65.5561 291.029C70.7503 269.083 82.6434 273.013 87.0533 275.742C92.2796 278.984 103.644 292.389 104.741 295.151C106.558 299.721 103.388 305.683 103.388 305.683L111.36 325.516V325.524Z" fill="#EBEBEB"/>
<path d="M82.6994 273.934H77.2811C79.1859 273.429 81.0507 273.541 82.6994 273.934ZM87.0453 275.75C86.9252 275.678 86.7972 275.598 86.6611 275.518H73.9037C73.5595 275.758 73.2234 276.014 72.8952 276.311H87.8696C87.5815 276.095 87.3014 275.91 87.0453 275.75ZM89.8385 277.903H71.3426C71.1265 278.151 70.9104 278.415 70.7023 278.696H90.7269C90.4228 278.415 90.1266 278.151 89.8385 277.903ZM92.3916 280.28H69.6378C69.4858 280.536 69.3257 280.801 69.1816 281.073H93.1839C92.9198 280.801 92.6557 280.536 92.3916 280.28ZM94.7126 282.657H68.3653C68.2452 282.913 68.1252 283.178 68.0051 283.45H95.4569L94.7126 282.657ZM96.8975 285.034H67.3568C67.2608 285.29 67.1648 285.555 67.0687 285.827H97.6018C97.3697 285.563 97.1376 285.298 96.8975 285.034ZM98.9784 287.411H66.5325C66.4525 287.667 66.3724 287.932 66.3004 288.204H99.6507L98.9784 287.411ZM100.955 289.788H65.8602C65.7882 290.052 65.7241 290.317 65.6601 290.589H101.596C101.387 290.325 101.171 290.06 100.955 289.788ZM102.812 292.173H65.284C65.2199 292.438 65.1639 292.702 65.0999 292.966H103.38C103.212 292.718 103.02 292.454 102.812 292.173ZM104.733 295.159C104.669 294.991 104.565 294.791 104.429 294.55H64.7477L64.5797 295.343H104.805C104.781 295.279 104.757 295.223 104.733 295.159ZM105.197 296.927H64.2515C64.2035 297.192 64.1475 297.456 64.0994 297.72H105.269C105.269 297.456 105.237 297.192 105.197 296.927ZM63.7873 299.304C63.7313 299.569 63.6833 299.833 63.6352 300.097H105.165C105.197 299.833 105.229 299.569 105.253 299.304H63.7873ZM63.3391 301.681C63.2911 301.946 63.2431 302.21 63.1951 302.482H104.637C104.717 302.226 104.789 301.962 104.861 301.681H63.3391ZM62.9149 304.067C62.8669 304.331 62.8269 304.595 62.7789 304.859H103.772C103.869 304.635 103.981 304.371 104.101 304.067H62.9149ZM103.684 306.444H62.5148C62.4668 306.708 62.4267 306.972 62.3867 307.236H104.005L103.684 306.444ZM104.637 308.821H62.1386C62.0906 309.085 62.0506 309.349 62.0106 309.613H104.957L104.637 308.821ZM105.597 311.198H61.7785C61.7304 311.462 61.6904 311.726 61.6584 311.99H105.909L105.597 311.198ZM106.55 313.575H61.4263C61.3863 313.839 61.3543 314.103 61.3143 314.367H106.87L106.55 313.575ZM107.51 315.96H61.0982C61.0581 316.224 61.0261 316.488 60.9941 316.752H107.822L107.51 315.96ZM108.462 318.337H60.786C60.754 318.601 60.714 318.865 60.682 319.129H108.783L108.462 318.337ZM109.415 320.714H60.4899L60.3939 321.506H109.735L109.415 320.714ZM110.375 323.091H60.2018C60.1698 323.355 60.1458 323.619 60.1137 323.883H110.695L110.375 323.091ZM111.328 325.468H59.9377C59.9057 325.732 59.8736 325.996 59.8496 326.26H110.143C110.872 325.964 111.296 325.716 111.352 325.524L111.328 325.468ZM59.6816 327.853C59.6495 328.125 59.6175 328.389 59.5935 328.645H101.788C102.908 328.373 103.957 328.109 104.925 327.853H59.6816ZM59.4334 330.23C59.4094 330.502 59.3854 330.766 59.3534 331.022H91.2871C92.5196 330.758 93.7362 330.494 94.9207 330.23H59.4334ZM59.2093 332.607C59.1853 332.879 59.1613 333.143 59.1373 333.399H79.5781C80.9067 333.143 82.2512 332.879 83.6038 332.607H59.2093ZM58.9933 334.984C58.9692 335.28 58.9532 335.552 58.9292 335.776H66.7006C68.0772 335.544 69.5818 335.272 71.1905 334.984H58.9933Z" fill="#DBDBDB"/>
<path d="M105.277 296.239C104.829 294.751 103.989 293.398 103.076 292.149C102.068 290.781 100.987 289.46 99.8828 288.164C99.8428 288.124 99.8108 288.076 99.7708 288.036C99.6908 287.868 99.6107 287.699 99.5227 287.539C99.3626 287.235 99.1865 286.939 99.0025 286.651C98.6263 286.051 98.1861 285.475 97.7459 284.914C97.7139 284.874 97.6579 284.914 97.6819 284.954C98.05 285.587 98.4342 286.219 98.8344 286.835C98.9144 286.955 98.9864 287.083 99.0665 287.203C98.026 286.003 96.9536 284.826 95.8011 283.738C95.7691 283.706 95.713 283.754 95.737 283.786C97.8099 286.411 100.003 288.932 101.98 291.629C102.884 292.854 103.765 294.142 104.333 295.559C104.949 297.096 105.109 298.68 104.869 300.321C104.733 301.233 104.501 302.138 104.221 303.018C103.925 303.93 103.668 304.859 103.356 305.755C103.332 305.819 103.444 305.867 103.468 305.803C104.229 304.267 104.949 302.786 105.341 301.105C105.717 299.505 105.749 297.824 105.277 296.239Z" fill="#263238"/>
<path d="M69.5178 282.033C59.9857 297.08 51.5821 324.339 58.7772 328.709C68.4693 334.592 87.2694 336.801 109.711 334.752C112.816 334.464 115.089 310.109 111.76 310.237C107.566 310.405 78.2335 312.246 77.3452 311.438C76.5928 310.749 77.9454 298.688 78.1375 286.171C78.3696 271.533 72.247 277.735 69.5178 282.033Z" fill="#D3766A"/>
<path d="M109.383 310.421C109.383 310.421 118.779 309.061 124.958 308.46C128.407 308.124 134.378 308.076 137.019 308.989C140.98 310.357 156.667 318.593 154.754 322.442C153.018 325.924 140.436 317.136 140.436 317.136C140.436 317.136 153.914 324.883 151.057 328.693C148.2 332.503 135.306 320.682 135.306 320.682C135.306 320.682 148.976 328.957 145.406 332.415C142.709 335.032 130.424 324.979 130.424 324.979C130.424 324.979 142.125 332.175 139.468 334.984C136.531 338.089 124.613 329.525 124.613 329.525C116.65 335.528 110.407 335.136 105.997 334.319C104.933 334.119 109.383 310.429 109.383 310.429V310.421Z" fill="#D3766A"/>
<path d="M135.954 314.159C137.571 315.015 139.212 315.864 140.748 316.856C142.285 317.848 143.782 318.897 145.222 320.033C148.744 322.811 150.513 325.1 150.393 324.971C147.439 321.906 142.005 318.265 140.468 317.272C138.94 316.28 137.451 315.215 135.922 314.215C135.882 314.191 135.922 314.135 135.962 314.159H135.954Z" fill="#263238"/>
<path d="M132.265 319.633C134.282 320.81 136.33 321.906 138.291 323.179C140.244 324.443 141.989 325.812 143.854 327.204C143.998 327.308 143.894 327.357 143.742 327.252C141.821 325.932 139.948 324.867 138.019 323.571C136.09 322.282 134.202 320.906 132.233 319.689C132.201 319.673 132.233 319.625 132.265 319.641V319.633Z" fill="#263238"/>
<path d="M128.255 323.763C131.432 325.404 134.298 327.637 137.059 329.886C137.195 329.998 137.059 330.038 136.907 329.934C134.017 327.845 131.769 326.18 128.199 323.875C128.143 323.843 128.191 323.731 128.255 323.763Z" fill="#263238"/>
<path d="M105.349 310.581C106.806 310.341 108.262 310.157 109.719 309.973C111.176 309.781 112.632 309.629 114.089 309.469C115.546 309.325 117.002 309.165 118.467 309.045C119.931 308.909 121.388 308.773 122.861 308.677C121.428 309.021 119.979 309.269 118.523 309.501C117.074 309.733 115.61 309.901 114.153 310.069C112.688 310.213 111.232 310.349 109.759 310.429C108.294 310.517 106.822 310.589 105.349 310.581Z" fill="#263238"/>
<path d="M59.4095 300.089L78.9298 302.546C78.9298 302.546 80.3545 288.876 78.8338 280.728C77.3131 272.581 72.6952 274.486 68.5334 281.401C64.3716 288.316 59.4015 300.089 59.4015 300.089H59.4095Z" fill="#EBEBEB"/>
<path d="M77.065 276.311H72.7592C73.2794 275.934 73.7836 275.662 74.2638 275.518H75.9366C76.3447 275.654 76.7209 275.918 77.065 276.311ZM78.0335 277.903H71.0545C70.8304 278.151 70.6143 278.415 70.3902 278.696H78.3216C78.2335 278.407 78.1375 278.143 78.0335 277.903ZM78.8338 280.728C78.8018 280.576 78.7778 280.424 78.7458 280.28H69.2457C69.0776 280.536 68.9095 280.8 68.7415 281.073H78.8898C78.8738 280.961 78.8578 280.84 78.8338 280.728ZM79.1299 282.657H67.8131C67.661 282.921 67.5089 283.185 67.3649 283.45H79.218C79.1939 283.185 79.1619 282.921 79.1299 282.657ZM79.362 285.034H66.5085C66.3644 285.298 66.2204 285.563 66.0843 285.827H79.41L79.362 285.034ZM79.4901 287.411H65.268C65.1399 287.675 65.0039 287.94 64.8758 288.204H79.5141L79.4901 287.411ZM79.5301 289.788H64.0915C63.9634 290.052 63.8354 290.325 63.7073 290.589H79.5381C79.5381 290.325 79.5381 290.06 79.5381 289.788H79.5301ZM62.955 292.173C62.8349 292.437 62.7069 292.702 62.5868 292.966H79.5061C79.5061 292.71 79.5221 292.445 79.5221 292.173H62.955ZM61.8585 294.55C61.7305 294.822 61.6104 295.087 61.4984 295.343H79.4261C79.4421 295.087 79.4501 294.822 79.4581 294.55H61.8585ZM60.786 296.927C60.658 297.207 60.5459 297.472 60.4339 297.72H79.306C79.322 297.464 79.338 297.199 79.354 296.927H60.786ZM59.7456 299.304L59.4095 300.089H79.1379C79.1619 299.849 79.1859 299.585 79.202 299.304H59.7456ZM72.0629 301.681L78.4176 302.482H78.9378C78.9378 302.362 78.9779 302.09 79.0099 301.681H72.0629Z" fill="#DBDBDB"/>
<path d="M78.3776 298.904C75.3763 298.344 67.2048 297.063 61.7705 296.959C61.7384 296.959 61.7224 297.087 61.7544 297.095C66.2444 297.896 75.3123 298.808 78.3536 299.096C78.4096 299.096 78.4336 298.912 78.3776 298.904Z" fill="#263238"/>
<path d="M80.3304 291.277C80.3304 291.277 80.2904 291.245 80.2824 291.277C80.0983 291.973 79.9463 292.67 79.8182 293.374C79.8182 291.893 79.7782 290.413 79.7062 288.932C79.7062 288.876 79.6261 288.884 79.6261 288.932C79.346 293.366 78.9619 297.808 78.7778 302.25C78.3136 302.33 77.8414 302.402 77.3692 302.442C77.2891 302.442 77.2891 302.562 77.3692 302.57C77.8974 302.578 78.4256 302.626 78.9458 302.682C79.0659 302.698 79.218 302.65 79.234 302.506C79.5941 299.937 79.7622 297.336 79.8022 294.726C79.9063 294.31 80.0103 293.886 80.0823 293.462C80.2104 292.726 80.2984 292.013 80.3224 291.269L80.3304 291.277Z" fill="#263238"/>
<path d="M69.0936 236.942C69.0936 236.942 62.6909 238.118 60.61 243.256C58.5291 248.387 61.4824 251.828 66.2204 254.053C70.9584 256.286 77.8014 256.838 80.7786 252.821C85.5327 246.402 79.4341 237.814 75.4403 236.87C71.4466 235.925 69.0936 236.942 69.0936 236.942Z" fill="#263238"/>
<path d="M69.0936 236.942C64.6037 238.566 58.289 241.944 59.6736 247.626C60.8661 251.46 65.4841 253.669 68.9736 255.086C65.0679 254.189 60.1378 252.004 58.8252 247.866C57.1605 241.72 63.9714 237.862 69.0936 236.942Z" fill="#263238"/>
<path d="M66.0523 266.274C66.0523 266.274 69.8299 266.202 71.9909 262.409C74.1518 258.615 72.191 255.622 68.7095 253.397C65.236 251.172 58.9533 249.683 56.5202 254.597C53.727 260.24 58.0569 265.426 61.0822 266.578C64.0995 267.723 66.0523 266.282 66.0523 266.282V266.274Z" fill="#263238"/>
<path d="M64.7158 266.474C68.3653 265.626 73.6236 263.657 73.1274 259.095C72.5751 255.974 69.2377 253.805 66.6606 252.308C69.6539 253.397 73.2714 255.582 73.8877 258.975C74.568 263.969 68.8295 266.306 64.7078 266.466L64.7158 266.474Z" fill="#263238"/>
<path d="M61.8585 278.768C61.8585 278.768 61.3863 278.808 60.642 278.768C62.1226 275.726 61.7545 273.637 61.7545 273.637C61.0742 275.838 59.7376 277.527 58.7452 278.552C57.5687 278.328 56.2241 277.903 55.0076 277.095C51.9903 275.086 50.2535 271.973 50.2535 271.973C53.2628 266.458 56.8164 264.866 58.5131 264.41C59.1374 264.241 59.5135 264.225 59.5135 264.225L64.2676 265.842C66.6766 271.877 61.8585 278.768 61.8585 278.768Z" fill="#263238"/>
<path d="M59.7616 264.418C56.008 264.514 52.8306 266.747 50.6777 269.684C50.3656 270.108 50.0855 270.548 49.7573 270.972C49.9654 270.484 50.1895 269.996 50.4296 269.524C52.1984 266.25 55.952 263.689 59.7616 264.418Z" fill="#263238"/>
<path d="M77.4652 239.615C74.7681 238.382 71.8788 239.791 70.0861 243.713C67.9731 248.331 70.3902 251.668 73.0793 252.901C75.7765 254.133 78.6017 251.652 79.9623 247.074C81.0908 243.305 80.5545 241.032 77.4572 239.615H77.4652Z" fill="#4E6EF2"/>
<path d="M75.7285 276.335C76.0326 277.247 81.0268 282.865 85.2606 282.265C86.6372 282.065 85.9009 274.502 85.9009 274.502L85.9729 273.934L86.9973 265.946L77.2491 260.904L75.8485 260.248C75.8485 260.248 75.7125 262.449 75.5684 265.202C75.5684 265.33 75.5524 265.458 75.5444 265.594C75.5364 265.746 75.5204 265.898 75.5124 266.042C75.4884 266.45 75.4644 266.875 75.4484 267.291C75.4324 267.611 75.4164 267.915 75.4164 268.251C75.4084 268.587 75.4003 268.915 75.3923 269.252C75.3603 272.557 75.6004 275.958 75.7205 276.351L75.7285 276.335Z" fill="#D3766A"/>
<path d="M75.5764 265.194C78.4016 271.212 83.6119 273.293 85.9809 273.934L87.0053 265.946L77.2571 260.904L75.8565 260.248C75.8565 260.248 75.7205 262.449 75.5764 265.202V265.194Z" fill="#263238"/>
<path d="M97.842 252.709C100.067 266.675 91.9595 269.58 88.9502 270.06C86.213 270.492 76.857 271.621 73.1914 257.967C69.5338 244.313 75.3203 238.863 81.523 237.542C87.7256 236.221 95.617 238.751 97.842 252.717V252.709Z" fill="#D3766A"/>
<path d="M94.9287 250.988C94.5926 250.98 94.2885 250.916 93.9603 250.868C93.5922 250.82 93.288 250.82 92.9919 250.564C92.8318 250.428 92.8158 250.115 92.9359 249.955C93.216 249.571 93.6882 249.515 94.1364 249.555C94.6246 249.603 94.9928 249.755 95.3369 250.099C95.6731 250.428 95.3609 251.004 94.9207 250.988H94.9287Z" fill="#263238"/>
<path d="M85.6848 252.092C86.0129 252.028 86.3011 251.908 86.6212 251.804C86.9813 251.692 87.2775 251.636 87.5176 251.332C87.6456 251.172 87.6136 250.86 87.4616 250.724C87.1174 250.396 86.6452 250.42 86.213 250.54C85.7408 250.668 85.4127 250.892 85.1245 251.284C84.8524 251.668 85.2526 252.18 85.6848 252.084V252.092Z" fill="#263238"/>
<path d="M87.8697 255.478C87.8697 255.478 87.7977 255.534 87.8057 255.574C87.9418 256.526 87.9418 257.639 87.1094 258.055C87.0854 258.071 87.0934 258.119 87.1254 258.111C88.1659 257.847 88.1579 256.366 87.8697 255.486V255.478Z" fill="#263238"/>
<path d="M86.9093 254.581C85.3566 254.637 85.5807 257.735 87.0214 257.687C88.438 257.639 88.2139 254.533 86.9093 254.581Z" fill="#263238"/>
<path d="M86.309 254.789C86.0529 254.982 85.8048 255.31 85.4847 255.366C85.1085 255.43 84.8044 255.126 84.5323 254.829C84.5083 254.797 84.4763 254.829 84.4843 254.869C84.5163 255.462 84.7884 256.054 85.4367 256.102C86.0209 256.142 86.4051 255.582 86.5091 254.974C86.5251 254.861 86.4211 254.701 86.317 254.781L86.309 254.789Z" fill="#263238"/>
<path d="M93.3761 254.669C93.3761 254.669 93.4561 254.709 93.4561 254.749C93.4881 255.71 93.6882 256.806 94.5766 257.07C94.6006 257.078 94.6006 257.126 94.5766 257.126C93.5041 257.046 93.256 255.59 93.3841 254.669H93.3761Z" fill="#263238"/>
<path d="M94.1684 253.605C95.7051 253.389 96.0252 256.478 94.6006 256.678C93.2 256.878 92.8799 253.789 94.1684 253.605Z" fill="#263238"/>
<path d="M94.8407 253.741C95.1048 253.877 95.3769 254.149 95.665 254.141C96.0092 254.125 96.2173 253.765 96.4014 253.421C96.4174 253.389 96.4494 253.405 96.4494 253.453C96.5294 254.045 96.3934 254.677 95.8411 254.853C95.3369 255.013 94.9047 254.541 94.6966 253.973C94.6566 253.869 94.7286 253.693 94.8327 253.749L94.8407 253.741Z" fill="#263238"/>
<path d="M88.4059 262.873C88.646 263.089 88.8781 263.393 89.2303 263.417C89.5664 263.433 89.9506 263.273 90.2547 263.145C90.2867 263.129 90.3187 263.161 90.2947 263.193C90.0546 263.569 89.5344 263.817 89.0862 263.745C88.646 263.681 88.4219 263.313 88.3099 262.913C88.2939 262.857 88.3659 262.833 88.3979 262.865L88.4059 262.873Z" fill="#263238"/>
<path d="M92.1195 259.063C92.1195 259.063 92.4396 260.48 92.4957 261.152C92.4957 261.216 92.3436 261.256 92.1115 261.296C92.1035 261.296 92.0955 261.304 92.0875 261.296C90.911 261.584 89.6705 261.272 88.8621 260.36C88.8061 260.296 88.8861 260.224 88.9582 260.256C89.9026 260.832 90.903 260.92 91.9594 260.848C91.9915 260.656 91.3352 258.439 91.4392 258.423C91.8074 258.359 92.5517 258.551 92.9999 258.639C92.4236 255.67 91.3672 252.821 90.839 249.851C90.823 249.747 90.975 249.699 91.015 249.795C92.3276 252.709 93.0719 256.11 93.7442 259.159C93.8323 259.535 92.3996 259.151 92.1195 259.055V259.063Z" fill="#263238"/>
<path d="M74.2478 258.471C77.5533 258.047 76.817 252.845 76.817 252.845C76.817 252.845 80.5225 251.996 79.9703 245.906C79.9703 245.906 82.2673 249.315 87.4535 249.363C88.55 249.371 84.5643 247.074 84.5643 247.074C84.5643 247.074 89.4144 250.396 97.2337 247.818C97.786 247.634 95.4249 239.343 88.7421 237.318C82.0592 235.293 76.6089 237.702 73.2634 242.2C73.2634 242.2 68.9416 244.953 69.0216 249.387C69.1016 253.821 72.9593 258.631 74.2478 258.471Z" fill="#263238"/>
<path d="M75.5764 258.679C75.5764 258.679 72.183 254.501 70.2621 255.742C68.3413 256.982 71.1185 263.201 73.5275 263.905C75.9366 264.61 76.6329 262.393 76.6329 262.393L75.5764 258.687V258.679Z" fill="#D3766A"/>
<path d="M71.1105 257.503C71.1105 257.503 71.0705 257.559 71.1105 257.567C72.7992 258.111 73.7756 259.575 74.4959 261.112C73.9597 260.536 73.2714 260.256 72.5031 260.896C72.4631 260.928 72.5031 260.992 72.5511 260.984C73.2154 260.792 73.7116 260.872 74.1998 261.376C74.552 261.736 74.8081 262.201 75.0642 262.625C75.1522 262.769 75.4083 262.665 75.3443 262.505L75.3283 262.465C75.2163 260.368 73.3755 257.551 71.1105 257.503Z" fill="#263238"/>
</svg>
