<svg width="319" height="251" viewBox="0 0 319 251" fill="none" xmlns="http://www.w3.org/2000/svg">
<path d="M4.023 241.103C3.339 241.103 2.817 240.914 2.457 240.536C2.097 240.158 1.917 239.627 1.917 238.943V223.958C1.917 223.256 2.097 222.725 2.457 222.365C2.835 222.005 3.366 221.825 4.05 221.825H10.611C12.735 221.825 14.373 222.365 15.525 223.445C16.677 224.507 17.253 225.992 17.253 227.9C17.253 229.808 16.677 231.302 15.525 232.382C14.373 233.462 12.735 234.002 10.611 234.002H6.102V238.943C6.102 239.627 5.922 240.158 5.562 240.536C5.22 240.914 4.707 241.103 4.023 241.103ZM6.102 230.762H9.909C10.989 230.762 11.808 230.519 12.366 230.033C12.942 229.547 13.23 228.836 13.23 227.9C13.23 226.964 12.942 226.262 12.366 225.794C11.808 225.326 10.989 225.092 9.909 225.092H6.102V230.762ZM25.4028 241.103C24.8988 241.103 24.4848 240.986 24.1608 240.752C23.8548 240.518 23.6568 240.203 23.5668 239.807C23.4948 239.411 23.5758 238.97 23.8098 238.484L30.7218 223.337C31.0098 222.725 31.3518 222.284 31.7478 222.014C32.1438 221.726 32.6028 221.582 33.1248 221.582C33.6468 221.582 34.1058 221.726 34.5018 222.014C34.8978 222.284 35.2308 222.725 35.5008 223.337L42.4668 238.484C42.7008 238.97 42.7818 239.42 42.7098 239.834C42.6558 240.23 42.4758 240.545 42.1698 240.779C41.8638 240.995 41.4678 241.103 40.9818 241.103C40.3698 241.103 39.8928 240.959 39.5508 240.671C39.2268 240.383 38.9388 239.933 38.6868 239.321L37.0668 235.568L38.7408 236.729H27.4818L29.1558 235.568L27.5628 239.321C27.2928 239.951 27.0048 240.41 26.6988 240.698C26.4108 240.968 25.9788 241.103 25.4028 241.103ZM33.0708 226.28L29.6148 234.515L28.8858 233.462H37.3368L36.6078 234.515L33.1248 226.28H33.0708ZM54.3179 241.103C53.6339 241.103 53.1119 240.914 52.7519 240.536C52.3919 240.158 52.2119 239.627 52.2119 238.943V223.958C52.2119 223.256 52.3919 222.725 52.7519 222.365C53.1299 222.005 53.6609 221.825 54.3449 221.825H60.9059C63.0299 221.825 64.6679 222.338 65.8199 223.364C66.9719 224.39 67.5479 225.821 67.5479 227.657C67.5479 228.845 67.2869 229.871 66.7649 230.735C66.2429 231.599 65.4869 232.265 64.4969 232.733C63.5249 233.201 62.3279 233.435 60.9059 233.435L61.1219 232.976H62.2289C62.9849 232.976 63.6419 233.165 64.1999 233.543C64.7759 233.903 65.2709 234.461 65.6849 235.217L67.3589 238.322C67.6109 238.772 67.7279 239.213 67.7099 239.645C67.6919 240.077 67.5299 240.428 67.2239 240.698C66.9179 240.968 66.4679 241.103 65.8739 241.103C65.2799 241.103 64.7939 240.977 64.4159 240.725C64.0559 240.473 63.7319 240.086 63.4439 239.564L60.8519 234.785C60.5819 234.281 60.2489 233.939 59.8529 233.759C59.4749 233.579 59.0069 233.489 58.4489 233.489H56.3969V238.943C56.3969 239.627 56.2169 240.158 55.8569 240.536C55.5149 240.914 55.0019 241.103 54.3179 241.103ZM56.3969 230.465H60.1499C61.2659 230.465 62.1029 230.24 62.6609 229.79C63.2369 229.34 63.5249 228.665 63.5249 227.765C63.5249 226.883 63.2369 226.217 62.6609 225.767C62.1029 225.317 61.2659 225.092 60.1499 225.092H56.3969V230.465ZM78.2025 241.103C77.6985 241.103 77.2845 240.986 76.9605 240.752C76.6545 240.518 76.4565 240.203 76.3665 239.807C76.2945 239.411 76.3755 238.97 76.6095 238.484L83.5215 223.337C83.8095 222.725 84.1515 222.284 84.5475 222.014C84.9435 221.726 85.4025 221.582 85.9245 221.582C86.4465 221.582 86.9055 221.726 87.3015 222.014C87.6975 222.284 88.0305 222.725 88.3005 223.337L95.2665 238.484C95.5005 238.97 95.5815 239.42 95.5095 239.834C95.4555 240.23 95.2755 240.545 94.9695 240.779C94.6635 240.995 94.2675 241.103 93.7815 241.103C93.1695 241.103 92.6925 240.959 92.3505 240.671C92.0265 240.383 91.7385 239.933 91.4865 239.321L89.8665 235.568L91.5405 236.729H80.2815L81.9555 235.568L80.3625 239.321C80.0925 239.951 79.8045 240.41 79.4985 240.698C79.2105 240.968 78.7785 241.103 78.2025 241.103ZM85.8705 226.28L82.4145 234.515L81.6855 233.462H90.1365L89.4075 234.515L85.9245 226.28H85.8705ZM113.986 241.157C111.844 241.157 110.026 240.752 108.532 239.942C107.056 239.132 105.931 237.998 105.157 236.54C104.383 235.082 103.996 233.372 103.996 231.41C103.996 229.898 104.221 228.539 104.671 227.333C105.139 226.109 105.805 225.074 106.669 224.228C107.551 223.364 108.613 222.698 109.855 222.23C111.115 221.762 112.537 221.528 114.121 221.528C115.093 221.528 116.065 221.636 117.037 221.852C118.009 222.068 118.945 222.428 119.845 222.932C120.223 223.148 120.475 223.427 120.601 223.769C120.745 224.093 120.781 224.444 120.709 224.822C120.655 225.182 120.511 225.506 120.277 225.794C120.061 226.064 119.773 226.244 119.413 226.334C119.071 226.406 118.675 226.334 118.225 226.118C117.631 225.794 117.001 225.56 116.335 225.416C115.669 225.254 114.94 225.173 114.148 225.173C112.87 225.173 111.799 225.416 110.935 225.902C110.071 226.37 109.423 227.072 108.991 228.008C108.577 228.926 108.37 230.06 108.37 231.41C108.37 233.444 108.856 234.983 109.828 236.027C110.818 237.071 112.276 237.593 114.202 237.593C114.85 237.593 115.516 237.53 116.2 237.404C116.884 237.278 117.559 237.098 118.225 236.864L117.442 238.565V233.381H115.012C114.472 233.381 114.058 233.246 113.77 232.976C113.482 232.706 113.338 232.337 113.338 231.869C113.338 231.383 113.482 231.014 113.77 230.762C114.058 230.492 114.472 230.357 115.012 230.357H119.251C119.791 230.357 120.196 230.501 120.466 230.789C120.754 231.077 120.898 231.491 120.898 232.031V238.295C120.898 238.763 120.808 239.159 120.628 239.483C120.448 239.807 120.142 240.041 119.71 240.185C118.9 240.473 117.991 240.707 116.983 240.887C115.975 241.067 114.976 241.157 113.986 241.157ZM140.451 241.157C138.579 241.157 136.932 240.752 135.51 239.942C134.106 239.114 133.008 237.962 132.216 236.486C131.442 235.01 131.055 233.291 131.055 231.329C131.055 229.835 131.271 228.494 131.703 227.306C132.153 226.1 132.792 225.074 133.62 224.228C134.448 223.364 135.438 222.698 136.59 222.23C137.76 221.762 139.047 221.528 140.451 221.528C142.359 221.528 144.015 221.933 145.419 222.743C146.823 223.553 147.912 224.696 148.686 226.172C149.478 227.63 149.874 229.34 149.874 231.302C149.874 232.796 149.649 234.146 149.199 235.352C148.749 236.558 148.11 237.593 147.282 238.457C146.454 239.321 145.464 239.987 144.312 240.455C143.16 240.923 141.873 241.157 140.451 241.157ZM140.451 237.593C141.513 237.593 142.413 237.35 143.151 236.864C143.907 236.36 144.483 235.64 144.879 234.704C145.293 233.75 145.5 232.625 145.5 231.329C145.5 229.349 145.059 227.819 144.177 226.739C143.295 225.641 142.053 225.092 140.451 225.092C139.407 225.092 138.507 225.335 137.751 225.821C136.995 226.307 136.419 227.018 136.023 227.954C135.627 228.89 135.429 230.015 135.429 231.329C135.429 233.291 135.87 234.83 136.752 235.946C137.634 237.044 138.867 237.593 140.451 237.593ZM162.076 241.103C161.446 241.103 160.96 240.932 160.618 240.59C160.294 240.23 160.132 239.726 160.132 239.078V223.688C160.132 223.004 160.294 222.482 160.618 222.122C160.96 221.762 161.41 221.582 161.968 221.582C162.454 221.582 162.823 221.681 163.075 221.879C163.345 222.059 163.651 222.365 163.993 222.797L173.47 234.866H172.741V223.58C172.741 222.95 172.903 222.464 173.227 222.122C173.569 221.762 174.055 221.582 174.685 221.582C175.315 221.582 175.792 221.762 176.116 222.122C176.458 222.464 176.629 222.95 176.629 223.58V239.159C176.629 239.753 176.476 240.23 176.17 240.59C175.864 240.932 175.45 241.103 174.928 241.103C174.424 241.103 174.019 241.004 173.713 240.806C173.425 240.608 173.11 240.293 172.768 239.861L163.318 227.792H164.02V239.078C164.02 239.726 163.858 240.23 163.534 240.59C163.21 240.932 162.724 241.103 162.076 241.103Z" fill="#4E6EF2"/>
<path d="M204.861 241.103C204.249 241.103 203.781 240.932 203.457 240.59C203.133 240.248 202.971 239.771 202.971 239.159V223.526C202.971 222.914 203.142 222.437 203.484 222.095C203.844 221.753 204.33 221.582 204.942 221.582C205.482 221.582 205.905 221.69 206.211 221.906C206.535 222.104 206.832 222.455 207.102 222.959L213.339 234.353H212.421L218.658 222.959C218.928 222.455 219.216 222.104 219.522 221.906C219.846 221.69 220.269 221.582 220.791 221.582C221.403 221.582 221.871 221.753 222.195 222.095C222.537 222.437 222.708 222.914 222.708 223.526V239.159C222.708 239.771 222.546 240.248 222.222 240.59C221.898 240.932 221.43 241.103 220.818 241.103C220.206 241.103 219.729 240.932 219.387 240.59C219.063 240.248 218.901 239.771 218.901 239.159V228.224H219.495L214.473 237.215C214.257 237.557 214.023 237.818 213.771 237.998C213.537 238.16 213.222 238.241 212.826 238.241C212.43 238.241 212.106 238.151 211.854 237.971C211.602 237.791 211.377 237.539 211.179 237.215L206.103 228.197H206.751V239.159C206.751 239.771 206.589 240.248 206.265 240.59C205.959 240.932 205.491 241.103 204.861 241.103ZM235.775 240.86C235.073 240.86 234.533 240.671 234.155 240.293C233.777 239.915 233.588 239.375 233.588 238.673V224.012C233.588 223.31 233.777 222.77 234.155 222.392C234.533 222.014 235.073 221.825 235.775 221.825H245.198C245.738 221.825 246.143 221.969 246.413 222.257C246.701 222.527 246.845 222.923 246.845 223.445C246.845 223.985 246.701 224.399 246.413 224.687C246.143 224.957 245.738 225.092 245.198 225.092H237.584V229.547H244.577C245.135 229.547 245.549 229.691 245.819 229.979C246.107 230.249 246.251 230.654 246.251 231.194C246.251 231.734 246.107 232.148 245.819 232.436C245.549 232.706 245.135 232.841 244.577 232.841H237.584V237.593H245.198C245.738 237.593 246.143 237.737 246.413 238.025C246.701 238.295 246.845 238.691 246.845 239.213C246.845 239.753 246.701 240.167 246.413 240.455C246.143 240.725 245.738 240.86 245.198 240.86H235.775ZM259.143 240.86C258.441 240.86 257.901 240.671 257.523 240.293C257.145 239.915 256.956 239.375 256.956 238.673V224.012C256.956 223.31 257.145 222.77 257.523 222.392C257.901 222.014 258.441 221.825 259.143 221.825H264.408C267.666 221.825 270.177 222.653 271.941 224.309C273.723 225.947 274.614 228.287 274.614 231.329C274.614 232.859 274.38 234.218 273.912 235.406C273.462 236.576 272.805 237.566 271.941 238.376C271.077 239.186 270.015 239.807 268.755 240.239C267.495 240.653 266.046 240.86 264.408 240.86H259.143ZM261.141 237.431H264.165C265.191 237.431 266.082 237.305 266.838 237.053C267.594 236.801 268.224 236.423 268.728 235.919C269.232 235.415 269.61 234.785 269.862 234.029C270.114 233.255 270.24 232.355 270.24 231.329C270.24 229.277 269.727 227.756 268.701 226.766C267.693 225.758 266.181 225.254 264.165 225.254H261.141V237.431ZM286.991 241.103C286.307 241.103 285.785 240.914 285.425 240.536C285.065 240.158 284.885 239.627 284.885 238.943V223.742C284.885 223.058 285.065 222.527 285.425 222.149C285.785 221.771 286.307 221.582 286.991 221.582C287.657 221.582 288.17 221.771 288.53 222.149C288.89 222.527 289.07 223.058 289.07 223.742V238.943C289.07 239.627 288.89 240.158 288.53 240.536C288.188 240.914 287.675 241.103 286.991 241.103ZM300.461 241.103C299.957 241.103 299.543 240.986 299.219 240.752C298.913 240.518 298.715 240.203 298.625 239.807C298.553 239.411 298.634 238.97 298.868 238.484L305.78 223.337C306.068 222.725 306.41 222.284 306.806 222.014C307.202 221.726 307.661 221.582 308.183 221.582C308.705 221.582 309.164 221.726 309.56 222.014C309.956 222.284 310.289 222.725 310.559 223.337L317.525 238.484C317.759 238.97 317.84 239.42 317.768 239.834C317.714 240.23 317.534 240.545 317.228 240.779C316.922 240.995 316.526 241.103 316.04 241.103C315.428 241.103 314.951 240.959 314.609 240.671C314.285 240.383 313.997 239.933 313.745 239.321L312.125 235.568L313.799 236.729H302.54L304.214 235.568L302.621 239.321C302.351 239.951 302.063 240.41 301.757 240.698C301.469 240.968 301.037 241.103 300.461 241.103ZM308.129 226.28L304.673 234.515L303.944 233.462H312.395L311.666 234.515L308.183 226.28H308.129Z" fill="#4E6EF2"/>
<path d="M166 137.144L134 155.249V177.75M166 137.144L134 177.75M166 137.144L166 195.856L134 177.75M166 137.144L132.523 180.361L134 177.75" stroke="#4E6EF2" stroke-width="6"/>
<path d="M134.067 21.3937L216.058 70.3085L181.03 90.3853L101.175 42.7526L134.067 21.3937Z" stroke="#4E6EF2" stroke-width="6"/>
<path d="M101.256 137.478L216 70.582L216 108.62L131.587 156.856L101.256 137.478Z" stroke="#4E6EF2" stroke-width="6"/>
<path d="M134 81.1774L166.015 99.5273L134 118.268V81.1774Z" stroke="#4E6EF2" stroke-width="6"/>
</svg>
