<svg width="316" height="64" viewBox="0 0 316 64" fill="none" xmlns="http://www.w3.org/2000/svg">
<g clip-path="url(#clip0_43_16)">
<path d="M10.3231 41.864C10.3231 45.5133 11.1241 48.3151 12.171 50.0101C13.5437 52.2303 15.591 53.1709 17.6782 53.1709C20.3703 53.1709 22.8331 52.5028 27.5792 45.9387C31.3814 40.6775 35.8616 33.2925 38.8761 28.6627L43.9811 20.819C47.5274 15.3716 51.6321 9.31604 56.3383 5.2114C60.1804 1.86121 64.3249 0 68.496 0C75.4988 0 82.1693 4.05811 87.2743 11.6691C92.8613 20.0047 95.5733 30.504 95.5733 41.3389C95.5733 47.78 94.3037 52.5128 92.1434 56.2519C90.0562 59.8679 85.9881 63.4807 79.1448 63.4807V53.1709C85.0043 53.1709 86.4667 47.7867 86.4667 41.6247C86.4667 32.8438 84.4193 23.099 79.9092 16.1361C76.7086 11.1972 72.5607 8.17937 67.9975 8.17937C63.0619 8.17937 59.0902 11.9018 54.6266 18.539C52.2536 22.0654 49.8174 26.3628 47.0821 31.2119L44.0709 36.5463C38.0219 47.2715 36.4898 49.7143 33.4653 53.7459C28.1642 60.8052 23.6374 63.4807 17.6782 63.4807C10.6089 63.4807 6.13868 60.4197 3.37013 55.8065C1.11008 52.0475 0 47.1153 0 41.4951L10.3231 41.864Z" fill="#0081FB"/>
<path d="M8.13947 12.397C12.8723 5.10172 19.7023 0 27.536 0C32.0727 0 36.5828 1.34273 41.2923 5.18813C46.4439 9.39248 51.9345 16.3155 58.7844 27.7254L61.2406 31.8201C67.1699 41.6978 70.5433 46.7796 72.5175 49.1759C75.0568 52.2536 76.8349 53.1709 79.1448 53.1709C85.0043 53.1709 86.4667 47.7867 86.4667 41.6247L95.5733 41.3389C95.5733 47.78 94.3037 52.5128 92.1434 56.2519C90.0561 59.8679 85.9881 63.4807 79.1448 63.4807C74.8906 63.4807 71.1216 62.5567 66.9538 58.6249C63.7499 55.6071 60.0042 50.2461 57.1226 45.4269L48.5511 31.1089C44.2503 23.9232 40.3052 18.5656 38.0219 16.1394C35.5658 13.5304 32.4084 10.3796 27.3698 10.3796C23.2917 10.3796 19.8286 13.2412 16.9304 17.6184L8.13947 12.397Z" fill="url(#paint0_linear_43_16)"/>
<path d="M27.3698 10.3796C23.2918 10.3796 19.8286 13.2412 16.9304 17.6184C12.8324 23.8036 10.3231 33.0166 10.3231 41.864C10.3231 45.5133 11.1241 48.3151 12.171 50.0102L3.37013 55.8065C1.11008 52.0475 0 47.1153 0 41.4951C0 31.275 2.80512 20.6229 8.13949 12.397C12.8723 5.10172 19.7023 0 27.536 0L27.3698 10.3796Z" fill="url(#paint1_linear_43_16)"/>
<path d="M115.641 2.00745H127.583L147.887 38.7398L168.194 2.00745H179.876V62.364H170.135V16.1061L152.327 48.139H143.187L125.383 16.1061V62.364H115.641V2.00745ZM210.4 24.5115C203.414 24.5115 199.206 29.7695 198.199 36.2804H221.91C221.421 29.5734 217.553 24.5115 210.4 24.5115ZM188.541 39.9895C188.541 26.2896 197.395 16.3189 210.57 16.3189C223.529 16.3189 231.266 26.1634 231.266 40.7207V43.3962H198.199C199.373 50.4788 204.072 55.2515 211.65 55.2515C217.696 55.2515 221.475 53.4069 225.057 50.0334L230.232 56.3715C225.356 60.855 219.155 63.4408 211.304 63.4408C197.043 63.4408 188.541 53.0413 188.541 39.9895ZM243.078 25.3757H234.111V17.399H243.078V4.20767H252.477V17.399H266.1V25.3757H252.477V45.5931C252.477 52.4962 254.684 54.949 260.108 54.949C262.584 54.949 264.003 54.7363 266.1 54.3873V62.2775C263.488 63.0154 260.995 63.3544 258.297 63.3544C248.15 63.3544 243.078 57.8106 243.078 46.7131V25.3757ZM305.678 33.1329C303.79 28.3669 299.579 24.8572 293.39 24.8572C285.347 24.8572 280.199 30.5638 280.199 39.8599C280.199 48.9233 284.939 54.9058 293.005 54.9058C299.346 54.9058 303.873 51.2166 305.678 46.6267V33.1329ZM315.077 62.364H305.851V56.0691C303.272 59.7749 298.579 63.4408 290.978 63.4408C278.753 63.4408 270.584 53.2075 270.584 39.8599C270.584 26.386 278.949 16.3189 291.496 16.3189C297.698 16.3189 302.564 18.7983 305.851 23.1754V17.399H315.077V62.364Z" fill="#192830"/>
</g>
<defs>
<linearGradient id="paint0_linear_43_16" x1="1221.58" y1="3550.71" x2="7794.39" y2="3882.67" gradientUnits="userSpaceOnUse">
<stop stop-color="#0064E1"/>
<stop offset="0.4" stop-color="#0064E1"/>
<stop offset="0.83" stop-color="#0073EE"/>
<stop offset="1" stop-color="#0082FB"/>
</linearGradient>
<linearGradient id="paint1_linear_43_16" x1="1495.62" y1="4619.8" x2="1495.62" y2="2193.57" gradientUnits="userSpaceOnUse">
<stop stop-color="#0082FB"/>
<stop offset="1" stop-color="#0064E0"/>
</linearGradient>
<clipPath id="clip0_43_16">
<rect width="315.077" height="64" fill="white"/>
</clipPath>
</defs>
</svg>
