<svg width="300" height="61" viewBox="0 0 300 61" fill="none" xmlns="http://www.w3.org/2000/svg">
<g clip-path="url(#clip0_4_16)">
<path d="M9.82911 39.9016C9.82911 43.3799 10.5918 46.0503 11.5886 47.6659C12.8956 49.782 14.8449 50.6785 16.8323 50.6785C19.3956 50.6785 21.7405 50.0418 26.2595 43.7854C29.8797 38.7707 34.1456 31.7319 37.0158 27.3191L41.8766 19.8431C45.2532 14.6511 49.1614 8.87935 53.6424 4.96711C57.3006 1.77397 61.2468 0 65.2184 0C71.8861 0 78.2373 3.86789 83.0981 11.1222C88.4177 19.067 91 29.0741 91 39.4011C91 45.5403 89.7911 50.0513 87.7342 53.6151C85.7468 57.0616 81.8734 60.505 75.3576 60.505V50.6785C80.9367 50.6785 82.3291 45.5467 82.3291 39.6736C82.3291 31.3042 80.3798 22.0162 76.0854 15.3797C73.038 10.6723 69.0886 7.79596 64.7437 7.79596C60.0443 7.79596 56.2627 11.3439 52.0127 17.67C49.7532 21.031 47.4335 25.127 44.8291 29.7488L41.962 34.8332C36.2025 45.0557 34.7437 47.384 31.8639 51.2265C26.8165 57.955 22.5063 60.505 16.8323 60.505C10.1013 60.505 5.84494 57.5875 3.20886 53.1906C1.05696 49.6078 0 44.9068 0 39.55L9.82911 39.9016Z" fill="#7C839B"/>
<path d="M7.75 11.8159C12.2563 4.86258 18.7595 0 26.2184 0C30.538 0 34.8323 1.27979 39.3165 4.94494C44.2215 8.95221 49.4494 15.5507 55.9715 26.4258L58.3101 30.3285C63.9557 39.7433 67.1677 44.5868 69.0475 46.8708C71.4652 49.8042 73.1582 50.6785 75.3576 50.6785C80.9367 50.6785 82.3291 45.5467 82.3291 39.6736L91 39.4011C91 45.5403 89.7911 50.0513 87.7342 53.6151C85.7468 57.0616 81.8734 60.505 75.3576 60.505C71.307 60.505 67.7184 59.6244 63.75 55.8769C60.6994 53.0005 57.1329 47.8908 54.3892 43.2975L46.2278 29.6506C42.1329 22.8018 38.3766 17.6953 36.2025 15.3829C33.8639 12.8961 30.8576 9.89305 26.0601 9.89305C22.1772 9.89305 18.8797 12.6205 16.1203 16.7925L7.75 11.8159Z" fill="#7C839B"/>
<path d="M26.0601 9.89305C22.1772 9.89305 18.8797 12.6205 16.1203 16.7925C12.2184 22.6878 9.82911 31.469 9.82911 39.9016C9.82911 43.3799 10.5918 46.0503 11.5886 47.6659L3.20886 53.1906C1.05696 49.6078 0 44.9068 0 39.55C0 29.809 2.67089 19.6562 7.75 11.8159C12.2563 4.86258 18.7595 0 26.2184 0L26.0601 9.89305Z" fill="#7C839B"/>
<path d="M110.108 1.91335H121.478L140.81 36.9239L160.146 1.91335H171.269V59.4407H161.994V15.3512L145.038 45.8825H136.335L119.383 15.3512V59.4407H110.108V1.91335ZM200.332 23.3625C193.68 23.3625 189.674 28.374 188.715 34.5797H211.291C210.826 28.1871 207.142 23.3625 200.332 23.3625ZM179.519 38.115C179.519 25.0573 187.949 15.5539 200.494 15.5539C212.832 15.5539 220.199 24.9369 220.199 38.8119V41.362H188.715C189.832 48.1126 194.307 52.6616 201.522 52.6616C207.278 52.6616 210.877 50.9034 214.288 47.6881L219.215 53.7291C214.573 58.0025 208.668 60.467 201.193 60.467C187.614 60.467 179.519 50.555 179.519 38.115ZM231.446 24.1862H222.908V16.5834H231.446V4.01044H240.396V16.5834H253.367V24.1862H240.396V43.4559C240.396 50.0354 242.497 52.3733 247.661 52.3733C250.019 52.3733 251.37 52.1705 253.367 51.8379V59.3583C250.88 60.0615 248.506 60.3847 245.937 60.3847C236.275 60.3847 231.446 55.1008 231.446 44.5235V24.1862ZM291.051 31.5798C289.253 27.0372 285.244 23.692 279.351 23.692C271.693 23.692 266.791 29.1311 266.791 37.9915C266.791 46.6301 271.304 52.3321 278.984 52.3321C285.022 52.3321 289.332 48.8158 291.051 44.4411V31.5798ZM300 59.4407H291.215V53.4408C288.76 56.9729 284.291 60.467 277.054 60.467C265.415 60.467 257.636 50.7134 257.636 37.9915C257.636 25.1492 265.601 15.5539 277.547 15.5539C283.453 15.5539 288.085 17.9171 291.215 22.0891V16.5834H300V59.4407Z" fill="#7C839B"/>
</g>
<defs>
<clipPath id="clip0_4_16">
<rect width="300" height="61" fill="white"/>
</clipPath>
</defs>
</svg>
