<svg width="217" height="64" viewBox="0 0 217 64" fill="none" xmlns="http://www.w3.org/2000/svg">
<g clip-path="url(#clip0_43_8)">
<path d="M41.426 22.9774C45.5044 25.9138 50.5006 27.6416 55.8967 27.6416V17.1827C54.8755 17.1829 53.8569 17.0756 52.8578 16.8624V25.095C47.4621 25.095 42.4665 23.3673 38.387 20.4311V41.7746C38.387 52.4517 29.7937 61.1066 19.1938 61.1066C15.2388 61.1066 11.5627 59.9023 8.50903 57.8368C11.9943 61.4262 16.8548 63.6529 22.2321 63.6529C32.8326 63.6529 41.4264 54.998 41.4264 44.3205V22.9774H41.426ZM45.1749 12.4256C43.0906 10.1321 41.7221 7.16811 41.426 3.89131V2.54607H38.5461C39.271 6.71089 41.7436 10.2691 45.1749 12.4256ZM15.2134 49.6435C14.0489 48.1056 13.4196 46.2243 13.4224 44.2899C13.4224 39.4066 17.353 35.4471 22.2022 35.4471C23.106 35.4469 24.0043 35.5863 24.8655 35.8615V25.1689C23.859 25.0299 22.8432 24.971 21.8279 24.9926V33.3152C20.966 33.04 20.0672 32.9002 19.1633 32.901C14.314 32.901 10.3837 36.8601 10.3837 41.744C10.3837 45.1973 12.3483 48.1871 15.2134 49.6435Z" fill="#FF004F"/>
<path d="M38.387 20.4308C42.4665 23.3671 47.4621 25.0948 52.8578 25.0948V16.8622C49.8459 16.216 47.1796 14.6307 45.1749 12.4256C41.7434 10.2688 39.271 6.71067 38.5462 2.54607H30.9816V44.32C30.9645 49.19 27.0406 53.1333 22.2018 53.1333C19.3504 53.1333 16.8171 51.7643 15.2128 49.6435C12.3479 48.1871 10.3833 45.1971 10.3833 41.7442C10.3833 36.8607 14.3136 32.9013 19.1629 32.9013C20.0919 32.9013 20.9874 33.047 21.8274 33.3154V24.9928C11.4138 25.2095 3.03876 33.7799 3.03876 44.3203C3.03876 49.5819 5.12434 54.3518 8.50927 57.8371C11.563 59.9023 15.239 61.1069 19.1941 61.1069C29.7941 61.1069 38.3873 52.4515 38.3873 41.7746L38.387 20.4308Z" fill="black"/>
<path d="M52.8578 16.8622V14.6362C50.1418 14.6403 47.4792 13.8742 45.1749 12.4254C47.2147 14.6748 49.9008 16.2258 52.8578 16.8622ZM38.5461 2.54607C38.477 2.14805 38.4239 1.74741 38.387 1.34524V0H27.9424V41.7744C27.9257 46.6437 24.0021 50.587 19.1628 50.587C17.7421 50.587 16.4007 50.2473 15.2128 49.6437C16.8171 51.7643 19.3503 53.1331 22.2018 53.1331C27.0402 53.1331 30.9647 49.1902 30.9816 44.3203V2.54607H38.5461ZM21.8279 24.9928V22.623C20.9551 22.5029 20.0752 22.4426 19.1943 22.443C8.59336 22.443 0 31.0981 0 41.7744C0 48.4678 3.37734 54.3667 8.50947 57.8366C5.12454 54.3516 3.03896 49.5815 3.03896 44.32C3.03896 33.7799 11.4138 25.2095 21.8279 24.9928Z" fill="#00F2EA"/>
<path d="M173.88 52.3543C181.465 52.3543 187.614 46.2079 187.614 38.6267C187.614 31.0457 181.465 24.8982 173.88 24.8982H171.811C179.396 24.8982 185.545 31.0455 185.545 38.6267C185.545 46.2079 179.396 52.3543 171.811 52.3543H173.88Z" fill="#FF004F"/>
<path d="M171.624 24.8982H169.555C161.97 24.8982 155.82 31.0455 155.82 38.6267C155.82 46.2079 161.97 52.3543 169.555 52.3543H171.624C164.038 52.3543 157.889 46.2079 157.889 38.6267C157.889 31.0457 164.038 24.8982 171.624 24.8982Z" fill="#00F2EA"/>
<path d="M112.928 18.6935V34.3L120.828 26.4023H130.422L120.451 36.182L131.551 52.3541H123.086L115.374 41.2582L112.928 43.5168V52.1662H105.026V18.6935H112.928ZM198.149 18.6935V34.3L206.051 26.4023H215.644L205.674 36.182L216.774 52.3541H208.308L200.594 41.2582L198.149 43.5168V52.1662H190.246V18.6935H198.149ZM171.81 24.8982C179.395 24.8982 185.545 31.0457 185.545 38.6267C185.545 46.2079 179.395 52.3543 171.81 52.3543H171.623C164.038 52.3543 157.889 46.2079 157.889 38.6267C157.889 31.0455 164.038 24.8982 171.623 24.8982H171.81ZM92.2342 18.6935L89.9767 25.8398H83.3928V52.1664H75.3015V25.6519H67.2134V18.6935H92.2342ZM158.454 18.6935L156.197 25.8398H149.613V52.1664H141.522V25.6519H133.434V18.6935H158.454ZM101.639 29.4128V52.1664H93.7405V29.4128H101.639ZM171.718 31.9519C168.029 31.9519 165.038 34.939 165.038 38.6267C165.038 42.3144 168.029 45.3026 171.718 45.3033C175.405 45.3033 178.396 42.3144 178.396 38.6267C178.396 34.939 175.405 31.9519 171.718 31.9519ZM97.688 18.6935C99.8716 18.6935 101.639 20.4619 101.639 22.6423C101.639 24.8229 99.8726 26.5912 97.688 26.5912C95.5064 26.5901 93.7405 24.8229 93.7405 22.6423C93.7405 20.4619 95.5064 18.6935 97.688 18.6935Z" fill="black"/>
</g>
<defs>
<clipPath id="clip0_43_8">
<rect width="216.774" height="64" fill="white"/>
</clipPath>
</defs>
</svg>
