<svg width="275" height="72" viewBox="0 0 275 72" fill="none" xmlns="http://www.w3.org/2000/svg">
<path d="M42.9687 51.0815L43.2036 51.7411C43.1664 51.6656 43.0804 51.4348 42.9687 51.0815ZM32.0604 46.3905C32.4729 42.8476 33.8737 40.8632 36.5134 38.829C40.2903 36.0739 45.0083 37.6323 45.0083 37.6323V28.3856C46.1553 28.3563 47.3027 28.4274 48.4372 28.5978V40.4943C48.4372 40.4943 43.7207 38.9358 39.9437 41.6909C37.3054 43.7251 35.9018 45.711 35.4907 49.2538C35.4778 51.1798 35.8259 53.6956 37.4286 55.8708C37.0324 55.66 36.6284 55.4197 36.2169 55.15C32.6863 52.6898 32.0432 49.0002 32.0604 46.3905ZM67.9178 11.291C65.3196 8.33648 64.3371 5.35347 63.9819 3.25796H67.2504C67.2504 3.25796 66.5987 8.75244 71.3482 14.1558L71.414 14.2284C70.134 13.3928 68.9601 12.4066 67.9178 11.291Z" fill="#EE1D52"/>
<path d="M83.663 19.6688V31.3259C83.663 31.3259 79.4922 31.1578 76.4056 30.3415C72.0958 29.2019 69.3258 27.4554 69.3258 27.4554C69.3258 27.4554 67.4122 26.2074 67.2575 26.122V50.204C67.2575 51.5431 66.9038 54.8908 65.8253 57.6843C64.4173 61.3368 62.2445 63.7344 61.8449 64.223C61.8449 64.223 59.2023 67.4653 54.5402 69.6477C50.3379 71.6164 46.6483 71.5665 45.5454 71.6164C45.5454 71.6164 39.1674 71.8785 33.4283 68.0066C32.1867 67.1547 31.0281 66.1889 29.9678 65.1219L29.9965 65.1418C35.7371 69.0137 42.1137 68.7516 42.1137 68.7516C43.218 68.7018 46.9075 68.7516 51.1085 66.7829C55.7677 64.6005 58.4131 61.3582 58.4131 61.3582C58.8085 60.8696 60.9913 58.4721 62.3935 54.8181C63.4691 52.026 63.8258 48.6783 63.8258 47.3378V23.2572C63.9805 23.3441 65.894 24.592 65.894 24.592C65.894 24.592 68.6641 26.3414 72.9738 27.4781C76.0618 28.293 80.2312 28.4625 80.2312 28.4625V19.3283C81.6578 19.6602 82.8738 19.7514 83.663 19.6688Z" fill="#EE1D52"/>
<path d="M80.2327 19.3283V28.4611C80.2327 28.4611 76.0633 28.2916 72.9753 27.4767C68.6655 26.3371 65.8955 24.5906 65.8955 24.5906C65.8955 24.5906 63.9819 23.3427 63.8272 23.2558V47.3321C63.8272 48.6726 63.4735 52.0203 62.3949 54.8124C60.987 58.4664 58.8142 60.8639 58.4146 61.3525C58.4146 61.3525 55.772 64.5948 51.1099 66.7772C46.909 68.7459 43.2194 68.6961 42.1151 68.7459C42.1151 68.7459 35.7386 69.008 29.9979 65.1361L29.9693 65.1162C29.3635 64.5069 28.793 63.8638 28.2606 63.1902C26.4287 60.871 25.3057 58.1316 25.0236 57.3495C25.0227 57.3463 25.0227 57.3428 25.0236 57.3396C24.5681 55.9791 23.6142 52.7169 23.7445 49.5558C23.9751 43.9773 25.8658 40.5555 26.3656 39.6965C27.6901 37.3583 29.4124 35.2665 31.456 33.514C33.2583 32.0003 35.3021 30.7966 37.5031 29.9526C38.8756 29.3854 40.3057 28.9674 41.7685 28.7061C42.8385 28.5159 43.9217 28.4087 45.0083 28.3856V37.6266C45.0083 37.6266 40.2904 36.0682 36.5134 38.8233C33.8737 40.8575 32.4729 42.8419 32.0604 46.3848C32.0432 48.9946 32.6863 52.6841 36.2141 55.1472C36.6247 55.4178 37.0286 55.6581 37.4258 55.868C38.0426 56.6964 38.7921 57.4183 39.6444 58.0048C43.0905 60.2684 45.978 60.4266 49.6705 58.9564C52.1354 57.9863 53.9817 55.7711 54.8568 53.3152C55.3968 51.7824 55.3896 50.2382 55.3896 48.6441V3.25938H63.9833C64.3386 5.3549 65.3211 8.3379 67.9193 11.2924C68.9615 12.408 70.1354 13.3943 71.4155 14.2298C71.7936 14.6358 73.7272 16.6416 76.2094 17.8753C77.4899 18.5118 78.8399 18.9994 80.2327 19.3283Z" fill="#7C839B"/>
<path d="M21.6033 54.5104V54.519L21.8153 55.1187C21.7923 55.0489 21.7121 54.8366 21.6033 54.5104Z" fill="#69C9D0"/>
<path d="M37.5031 29.9526C35.3021 30.7966 33.2583 32.0003 31.456 33.514C29.4123 35.2705 27.6909 37.3668 26.3685 39.7093C25.8686 40.5641 23.978 43.9901 23.7474 49.5687C23.6171 52.7297 24.571 55.992 25.0264 57.3524C25.0256 57.3557 25.0256 57.3591 25.0264 57.3624C25.3129 58.1373 26.4315 60.8767 28.2634 63.203C28.7959 63.8766 29.3664 64.5197 29.9722 65.129C28.0302 63.7932 26.2984 62.1782 24.8331 60.3368C23.0169 58.039 21.8969 55.3267 21.6047 54.5261L21.5975 54.509V54.4976C21.1421 53.1414 20.1853 49.8764 20.3185 46.711C20.5491 41.1325 22.4397 37.7107 22.9396 36.8517C24.2616 34.5089 25.9831 32.4126 28.0271 30.6563C29.829 29.1421 31.8729 27.9384 34.0742 27.095C35.4467 26.5277 36.8768 26.1098 38.3396 25.8485C40.5438 25.465 42.7952 25.4319 45.0098 25.7502V28.3856C43.9234 28.4054 42.8402 28.5093 41.7699 28.6962C40.3062 28.9606 38.8756 29.3819 37.5031 29.9526Z" fill="#69C9D0"/>
<path d="M63.9819 3.25939H55.3881V48.647C55.3881 50.241 55.3953 51.781 54.8553 53.3181C53.9874 55.7711 52.1411 57.9863 49.6805 58.9692C45.9866 60.4451 43.0991 60.2813 39.6544 58.0177C38.8021 57.4312 38.0526 56.7092 37.4358 55.8808C40.3706 57.4379 42.9974 57.4108 46.2515 56.1116C48.6979 55.1215 50.5599 52.9064 51.4193 50.4519C51.9607 48.919 51.9535 47.3748 51.9535 45.7822V0.391769H63.82C63.82 0.391769 63.6854 1.52144 63.9819 3.25939ZM80.2327 16.804V19.3283C78.8394 18.9995 77.4889 18.5119 76.2079 17.8753C73.7258 16.6416 71.7922 14.6358 71.4141 14.2298C71.8525 14.5164 72.3078 14.7766 72.7776 15.0091C75.7954 16.5077 78.7603 16.9564 80.2327 16.804Z" fill="#69C9D0"/>
<path d="M207.213 40.4729C207.212 41.1221 207.309 41.7678 207.499 42.3889C207.51 42.4329 207.523 42.4762 207.539 42.5185C207.997 43.9877 208.917 45.2724 210.162 46.1847C211.407 47.0969 212.913 47.5889 214.46 47.5885V54.8822C210.892 54.8822 208.335 55.0061 204.447 52.7183C200.007 50.1085 197.512 45.3363 197.512 40.3803C197.512 35.2719 200.302 30.1506 205.033 27.6847C208.461 25.8955 211.071 25.8826 214.46 25.8826V33.1721C212.538 33.1724 210.695 33.932 209.336 35.2837C207.977 36.6354 207.213 38.4687 207.213 40.3803V40.4729Z" fill="#69C9D0"/>
<path d="M221.763 40.4729C221.764 41.1222 221.668 41.768 221.477 42.3889C221.467 42.433 221.453 42.4764 221.437 42.5185C220.979 43.9879 220.06 45.2729 218.814 46.1852C217.569 47.0976 216.062 47.5893 214.516 47.5885V54.8822C218.085 54.8822 220.64 55.0061 224.529 52.7183C228.969 50.1085 231.465 45.3363 231.465 40.3803C231.465 35.2719 228.674 30.1506 223.945 27.6847C220.516 25.8955 217.905 25.8826 214.516 25.8826V33.1721C216.438 33.1721 218.282 33.9315 219.641 35.2832C221 36.635 221.764 38.4684 221.765 40.3803L221.763 40.4729Z" fill="#EE1D52"/>
<path d="M102.274 19.2685H129.117L126.636 26.6149H119.618V54.7269H110.971V26.6149H102.274V19.2685ZM173.416 19.2685V26.6149H182.113V54.7269H190.754V26.6149H197.772L200.259 19.2685H173.416ZM134.956 27.6406C135.783 27.6406 136.591 27.3967 137.279 26.9398C137.967 26.4828 138.502 25.8334 138.819 25.0736C139.135 24.3138 139.218 23.4777 139.057 22.6711C138.895 21.8644 138.497 21.1235 137.913 20.542C137.328 19.9604 136.583 19.5644 135.772 19.4039C134.961 19.2435 134.12 19.3258 133.356 19.6406C132.592 19.9553 131.939 20.4883 131.48 21.1721C131.021 21.8559 130.775 22.6599 130.775 23.4823C130.775 24.5851 131.216 25.6428 132 26.4226C132.784 27.2025 133.847 27.6406 134.956 27.6406ZM130.768 54.7269H139.243V30.5794H130.768V54.7269ZM169.727 27.4326H159.818L151.277 35.9357V19.2955H142.86L142.831 54.7269H151.333V45.4944L153.981 43.1112L162.231 54.7269H171.319L159.368 37.7392L169.727 27.4326ZM251.015 37.7392L261.378 27.4326H251.469L242.928 35.9357V19.2955H234.509L234.482 54.7269H242.984V45.4944L245.638 43.1112L253.889 54.7269H262.969L251.015 37.7392ZM229.23 40.3803C229.23 48.3877 222.615 54.8794 214.456 54.8794C206.296 54.8794 199.683 48.3877 199.683 40.3803C199.683 32.3729 206.297 25.8812 214.456 25.8812C222.614 25.8812 229.233 32.3743 229.233 40.3803H229.23ZM221.703 40.3803C221.703 38.9547 221.278 37.561 220.482 36.3756C219.685 35.1902 218.553 34.2663 217.229 33.7208C215.905 33.1752 214.448 33.0325 213.042 33.3106C211.636 33.5887 210.344 34.2752 209.331 35.2833C208.317 36.2914 207.627 37.5758 207.347 38.9741C207.068 40.3723 207.211 41.8216 207.76 43.1388C208.308 44.4559 209.237 45.5817 210.429 46.3737C211.621 47.1658 213.022 47.5885 214.456 47.5885C215.408 47.5891 216.35 47.403 217.23 47.041C218.11 46.679 218.909 46.1481 219.583 45.4787C220.256 44.8093 220.79 44.0145 221.154 43.1397C221.519 42.2648 221.706 41.3272 221.706 40.3803H221.703Z" fill="#7C839B"/>
</svg>
