<svg width="292" height="66" viewBox="0 0 292 66" fill="none" xmlns="http://www.w3.org/2000/svg">
<g clip-path="url(#clip0_4_28)">
<path d="M91.1868 10.2018C90.0984 6.18915 86.9564 3.0546 82.9342 1.96878C75.6983 0 46.5751 0 46.5751 0C46.5751 0 17.4519 0.0596599 10.216 2.02844C6.19379 3.11426 3.05182 6.24881 1.96343 10.2615C-0.225296 23.0884 -1.07447 42.633 2.02323 54.9468C3.11162 58.9595 6.25359 62.094 10.2758 63.1799C17.5117 65.1486 46.6349 65.1486 46.6349 65.1486C46.6349 65.1486 75.7581 65.1486 82.994 63.1799C87.0162 62.094 90.1582 58.9595 91.2466 54.9468C93.5549 42.102 94.2665 22.5694 91.1868 10.2018Z" fill="#7C839B"/>
<path d="M37.3059 46.5348L61.4656 32.5743L37.3059 18.6139V46.5348Z" fill="white"/>
<path d="M280.159 18.9122C283.328 18.9122 285.72 19.5088 287.394 20.6423C289.069 21.7759 290.265 23.5657 290.983 26.0117C291.7 28.4578 291.999 31.7987 291.999 36.0943V43.0745H276.63V45.2222L276.869 51.1286C277.049 52.4411 277.348 53.3956 277.826 53.9922C278.305 54.5888 279.082 54.8871 280.099 54.8871C281.474 54.8871 282.431 54.3502 282.909 53.2763C283.448 52.2024 283.687 50.4126 283.747 47.9666L291.7 48.4439C291.76 48.8018 291.76 49.2791 291.76 49.8757C291.76 53.6343 290.743 56.4383 288.65 58.2878C286.557 60.1372 283.687 61.0918 279.919 61.0918C275.374 61.0918 272.205 59.6599 270.411 56.8559C268.617 54.0519 267.66 49.6371 267.66 43.7307V36.5119C267.863 26.3697 269.651 18.942 280.159 18.9122ZM169.586 19.6878V49.5774C169.586 51.3672 169.766 52.6797 170.184 53.4553C171.033 55.1138 173.234 54.6903 174.43 53.8729C175.121 53.4073 175.677 52.7697 176.045 52.0235V19.6878H185.194V60.4355H178.018L177.241 55.4241H177.061C175.088 59.1827 172.158 61.0918 168.271 61.0918C162.288 61.0766 160.824 56.7768 160.476 52.4095L160.453 52.1012C160.407 51.4331 160.386 50.7658 160.377 50.1143V19.6878H169.586ZM216.769 19.6878V49.5774C216.769 51.3672 216.949 52.6797 217.367 53.4553C218.216 55.1138 220.417 54.6903 221.613 53.8729C222.304 53.4073 222.86 52.7697 223.228 52.0235V19.6878H232.377V60.4355H225.201L224.424 55.4241H224.244C222.271 59.1827 219.341 61.0918 215.454 61.0918C209.471 61.0766 208.007 56.7768 207.659 52.4095L207.636 52.1012C207.591 51.4331 207.569 50.7658 207.56 50.1143V19.6878H216.769ZM143.034 18.9122C146.024 18.9122 148.476 19.5088 150.27 20.7617C152.064 22.0145 153.44 23.9236 154.277 26.5487C155.114 29.1737 155.533 32.6936 155.533 37.0488V42.9552C155.533 47.3103 155.114 50.7706 154.277 53.3956C153.44 56.0207 152.124 57.9298 150.27 59.1827C148.417 60.3759 145.905 61.0321 142.795 61.0321C139.566 61.0918 137.054 60.4355 135.2 59.2423C133.347 57.9895 132.031 56.0803 131.254 53.4553C130.476 50.8303 130.117 47.37 130.117 43.0148V37.1085C130.117 32.7533 130.536 29.1737 131.433 26.5487C132.33 23.864 133.705 21.9549 135.619 20.7617C137.533 19.5685 139.985 18.9122 143.034 18.9122ZM246.73 2.56538V24.043H246.789C247.627 22.4918 248.703 21.2389 250.198 20.2844C251.594 19.3475 253.24 18.8488 254.922 18.8525C257.135 18.8525 258.809 19.4491 260.065 20.5827C261.321 21.7759 262.218 23.6253 262.756 26.1907C263.278 28.6759 263.575 32.1129 263.593 36.4476L263.594 36.8698V43.3131C263.594 49.3388 262.816 53.8133 261.381 56.6769C259.886 59.5406 257.613 60.9725 254.504 60.9725C252.77 60.9725 251.215 60.5548 249.78 59.7793C248.509 59.0407 247.457 57.9823 246.729 56.7117L246.61 56.498H246.431L245.474 60.3759H237.879V2.56538H246.73ZM210.131 4.65347V12.0513H201.042V60.4355H192.071V12.0513H182.922V4.65347H210.131ZM111.519 4.65347L111.524 4.67594C111.612 5.06396 112.821 10.4265 114.151 16.674L114.256 17.169C114.309 17.4173 114.361 17.6668 114.414 17.9173L114.52 18.4196C114.538 18.5035 114.556 18.5874 114.573 18.6715L114.679 19.1767C114.697 19.261 114.715 19.3454 114.732 19.4299L114.838 19.9371L114.993 20.6784C115.89 25.0047 116.747 29.3437 117.26 32.455H117.499C117.991 29.664 118.704 26.0925 119.465 22.4462L119.665 21.4938C119.765 21.0172 119.866 20.5403 119.966 20.0648L120.123 19.3265C121.587 12.4572 123.044 6.03987 123.315 4.85004L123.333 4.77321C123.35 4.69434 123.36 4.65347 123.36 4.65347H132.509L121.925 42.2989V60.3759H112.895V42.3586H112.835L102.37 4.65347H111.519ZM142.855 25.2362C141.599 25.2362 140.762 25.8924 140.224 27.2646C139.686 28.6368 139.446 30.7249 139.446 33.6482V46.3558C139.446 49.3388 139.686 51.5462 140.164 52.8587C140.642 54.1712 141.539 54.8275 142.855 54.8275C144.111 54.8275 145.008 54.1712 145.546 52.8587C146.084 51.5462 146.323 49.3388 146.323 46.3558V33.6482C146.323 30.7249 146.084 28.5771 145.546 27.2646C145.008 25.8924 144.111 25.2362 142.855 25.2362ZM248.344 26.4293C247.615 27.1005 247.097 27.929 246.789 28.9639L246.73 29.1737V52.3218C247.471 53.5746 248.524 54.4099 250.378 54.4695C251.334 54.4695 252.112 54.1116 252.71 53.3956C253.308 52.6797 253.726 51.4865 253.966 49.816C254.195 48.2124 254.315 46.0039 254.324 43.1906L254.324 42.8358V37.5261C254.324 34.3045 254.205 31.8584 254.025 30.1283C253.786 28.3981 253.487 27.1453 252.949 26.4293C251.908 24.9379 249.66 24.9557 248.344 26.4293ZM279.979 25.0572C278.962 25.1168 278.245 25.4151 277.826 25.9521C277.348 26.5487 277.049 27.4436 276.869 28.7561C276.694 30.0424 276.633 34.5373 276.63 34.7166L276.63 37.6454H283.328L283.327 35.0624L283.327 35.1121C283.324 36.0152 283.305 34.5879 283.264 32.8361L283.258 32.6008C283.221 31.0609 283.166 29.3442 283.089 28.7561C282.909 27.3839 282.61 26.4293 282.132 25.8924C281.654 25.3555 280.936 25.0572 279.979 25.0572Z" fill="#7C839B"/>
</g>
<defs>
<clipPath id="clip0_4_28">
<rect width="292" height="66" fill="white"/>
</clipPath>
</defs>
</svg>
