<svg width="283" height="64" viewBox="0 0 283 64" fill="none" xmlns="http://www.w3.org/2000/svg">
<g clip-path="url(#clip0_43_22)">
<path d="M88.2147 9.8927C87.1618 6.0016 84.1222 2.96204 80.2311 1.90912C73.231 0 45.0571 0 45.0571 0C45.0571 0 16.8831 0.057852 9.88302 1.96697C5.99191 3.01989 2.95235 6.05945 1.89943 9.95055C-0.217953 22.3887 -1.03945 41.3411 1.95728 53.2817C3.0102 57.1728 6.04977 60.2124 9.94087 61.2653C16.941 63.1744 45.1149 63.1744 45.1149 63.1744C45.1149 63.1744 73.2889 63.1744 80.289 61.2653C84.1801 60.2124 87.2196 57.1728 88.2726 53.2817C90.5056 40.8262 91.1941 21.8854 88.2147 9.8927Z" fill="#FF0000"/>
<path d="M36.09 45.1246L59.4622 31.5872L36.09 18.0498V45.1246Z" fill="white"/>
<path d="M271.027 18.3391C274.093 18.3391 276.407 18.9176 278.027 20.0168C279.647 21.116 280.804 22.8516 281.498 25.2235C282.193 27.5954 282.482 30.8351 282.482 35.0005V41.7692H267.614V43.8519L267.845 49.5792C268.019 50.852 268.308 51.7776 268.771 52.3561C269.234 52.9346 269.986 53.2239 270.969 53.2239C272.3 53.2239 273.226 52.7032 273.688 51.6619C274.209 50.6205 274.441 48.885 274.498 46.5131L282.193 46.9759C282.251 47.323 282.251 47.7858 282.251 48.3643C282.251 52.009 281.267 54.728 279.242 56.5215C277.217 58.3149 274.441 59.2405 270.796 59.2405C266.399 59.2405 263.333 57.8521 261.597 55.133C259.862 52.414 258.936 48.1329 258.936 42.4056V35.4055C259.133 25.5706 260.863 18.368 271.027 18.3391ZM164.059 19.0912V48.0751C164.059 49.8106 164.232 51.0834 164.637 51.8354C165.459 53.4437 167.588 53.033 168.745 52.2404C169.413 51.7889 169.951 51.1707 170.307 50.447V19.0912H179.158V58.6041H172.216L171.464 53.7446H171.29C169.381 57.3892 166.546 59.2405 162.786 59.2405C156.998 59.2257 155.583 55.0563 155.245 50.8214L155.223 50.5224C155.179 49.8746 155.159 49.2275 155.15 48.5957V19.0912H164.059ZM209.704 19.0912V48.0751C209.704 49.8106 209.878 51.0834 210.283 51.8354C211.104 53.4437 213.233 53.033 214.39 52.2404C215.058 51.7889 215.597 51.1707 215.952 50.447V19.0912H224.803V58.6041H217.861L217.109 53.7446H216.936C215.026 57.3892 212.192 59.2405 208.431 59.2405C202.644 59.2257 201.228 55.0563 200.891 50.8214L200.869 50.5224C200.825 49.8746 200.804 49.2275 200.795 48.5957V19.0912H209.704ZM138.372 18.3391C141.265 18.3391 143.637 18.9176 145.373 20.1325C147.108 21.3474 148.439 23.1987 149.249 25.7442C150.059 28.2897 150.464 31.7029 150.464 35.9261V41.6535C150.464 45.8767 150.059 49.2321 149.249 51.7776C148.439 54.3231 147.166 56.1743 145.373 57.3892C143.579 58.5463 141.149 59.1827 138.141 59.1827C135.017 59.2405 132.587 58.6041 130.794 57.4471C129 56.2322 127.728 54.3809 126.976 51.8354C126.224 49.29 125.876 45.9345 125.876 41.7113V35.984C125.876 31.7608 126.281 28.2897 127.149 25.7442C128.017 23.1408 129.348 21.2896 131.199 20.1325C133.05 18.9755 135.422 18.3391 138.372 18.3391ZM238.688 2.48764V23.3144H238.746C239.556 21.8102 240.597 20.5953 242.043 19.6697C243.394 18.7612 244.986 18.2777 246.614 18.2812C248.754 18.2812 250.374 18.8598 251.589 19.959C252.804 21.116 253.672 22.9094 254.192 25.3971C254.697 27.807 254.984 31.1398 255.001 35.3431L255.002 35.7526V42.0006C255.002 47.8437 254.25 52.1826 252.862 54.9594C251.415 57.7364 249.217 59.1248 246.209 59.1248C244.531 59.1248 243.027 58.7198 241.638 57.9678C240.409 57.2516 239.392 56.2252 238.687 54.9931L238.572 54.7859H238.399L237.473 58.5463H230.126V2.48764H238.688ZM203.282 4.51246V11.6861H194.489V58.6041H185.811V11.6861H176.96V4.51246H203.282ZM107.884 4.51246L107.889 4.53424C107.974 4.91051 109.144 10.1106 110.43 16.1687L110.532 16.6487C110.583 16.8895 110.634 17.1315 110.685 17.3744L110.788 17.8614C110.805 17.9427 110.822 18.0242 110.839 18.1057L110.942 18.5956C110.959 18.6774 110.976 18.7592 110.993 18.8411L111.095 19.3329L111.245 20.0518C112.113 24.247 112.942 28.4545 113.438 31.4715H113.67C114.145 28.7651 114.835 25.3018 115.571 21.766L115.764 20.8424C115.861 20.3803 115.959 19.9179 116.056 19.4568L116.208 18.7408C117.624 12.0797 119.034 5.85684 119.296 4.70307L119.313 4.62856C119.33 4.55209 119.339 4.51246 119.339 4.51246H128.191L117.951 41.0171V58.5463H109.215V41.075H109.157L99.0331 4.51246H107.884ZM138.199 24.4714C136.984 24.4714 136.174 25.1078 135.653 26.4384C135.133 27.769 134.901 29.7938 134.901 32.6286V44.951C134.901 47.8436 135.133 49.9842 135.596 51.2569C136.058 52.5297 136.926 53.166 138.199 53.166C139.414 53.166 140.282 52.5297 140.802 51.2569C141.323 49.9842 141.554 47.8436 141.554 44.951V32.6286C141.554 29.7938 141.323 27.7111 140.802 26.4384C140.282 25.1078 139.414 24.4714 138.199 24.4714ZM240.25 25.6285C239.545 26.2793 239.043 27.0827 238.745 28.0863L238.688 28.2897V50.7363C239.405 51.9511 240.423 52.7611 242.217 52.8189C243.143 52.8189 243.895 52.4718 244.473 51.7776C245.052 51.0834 245.457 49.9263 245.688 48.3065C245.91 46.7514 246.026 44.6099 246.035 41.8818L246.035 41.5378V36.3889C246.035 33.2649 245.919 30.893 245.746 29.2153C245.514 27.5376 245.225 26.3227 244.705 25.6285C243.698 24.1822 241.523 24.1995 240.25 25.6285ZM270.854 24.2979C269.87 24.3557 269.176 24.645 268.771 25.1656C268.308 25.7442 268.019 26.6119 267.845 27.8847C267.675 29.132 267.616 33.4907 267.614 33.6645L267.614 36.5046H274.093L274.093 33.9999L274.093 34.0481C274.09 34.9238 274.071 33.5398 274.031 31.8411L274.026 31.6129C273.99 30.1197 273.936 28.4549 273.862 27.8847C273.688 26.5541 273.399 25.6285 272.936 25.1078C272.474 24.5871 271.779 24.2979 270.854 24.2979Z" fill="#282828"/>
</g>
<defs>
<clipPath id="clip0_43_22">
<rect width="282.483" height="64" fill="white"/>
</clipPath>
</defs>
</svg>
