<svg xmlns="http://www.w3.org/2000/svg" xmlns:xlink="http://www.w3.org/1999/xlink" width="500" zoomAndPan="magnify" viewBox="0 0 375 374.999991" height="500" preserveAspectRatio="xMidYMid meet" version="1.0"><defs><clipPath id="abe2d59d9e"><path d="M 73 3.40625 L 302.148438 3.40625 L 302.148438 340.90625 L 73 340.90625 Z M 73 3.40625 " clip-rule="nonzero"/></clipPath></defs><g clip-path="url(#abe2d59d9e)"><path fill="#ffffff" d="M 236.96875 72.917969 C 212.097656 58.96875 186.824219 44.609375 162.425781 30.1875 L 140.183594 17.113281 L 92.734375 44.542969 L 126.703125 64.15625 L 194.304688 103.382812 L 194.710938 103.382812 L 235.6875 126.90625 L 248.359375 119.964844 L 248.765625 119.558594 L 283.207031 99.945312 Z M 298.4375 174.894531 L 247.886719 204.078125 L 238.722656 209.742188 L 238.316406 209.742188 L 229.152344 215 L 213.445312 224.164062 L 213.042969 224.570312 L 206.910156 228.074219 C 206.910156 263.390625 206.910156 298.640625 206.910156 334.429688 C 206.910156 335.308594 206.503906 336.585938 206.03125 337.464844 C 204.28125 340.496094 200.371094 341.375 197.339844 339.621094 L 137.621094 305.179688 C 135.464844 304.304688 134.117188 302.144531 134.117188 299.519531 C 134.117188 287.320312 134.117188 275.117188 134.117188 262.917969 L 77.027344 229.757812 C 73.996094 228.007812 72.648438 224.097656 74.402344 221.0625 C 75.277344 220.1875 76.152344 219.3125 77.027344 218.4375 L 102.304688 204.078125 L 134.117188 185.746094 L 134.117188 119.964844 C 134.117188 118.683594 134.117188 117.808594 134.992188 116.460938 C 136.746094 113.425781 140.25 112.550781 143.285156 114.300781 L 200.777344 147.394531 L 223.015625 134.320312 L 188.644531 114.707031 L 188.238281 114.300781 L 120.234375 75.074219 L 77.027344 50.207031 C 76.152344 49.800781 75.277344 48.925781 74.402344 47.578125 C 72.648438 44.949219 73.996094 41.039062 77.027344 39.285156 L 136.746094 4.507812 C 138.902344 3.226562 141.125 3.226562 143.285156 4.507812 L 168.960938 19.335938 L 187.699219 30.253906 L 298.84375 94.285156 L 299.246094 94.285156 L 299.246094 94.6875 L 300.054688 94.6875 L 300.054688 95.09375 L 300.460938 95.09375 L 300.460938 95.496094 L 300.863281 95.496094 L 300.863281 96.308594 L 301.269531 96.308594 L 301.269531 97.117188 L 301.671875 97.117188 L 301.671875 98.328125 L 302.078125 98.328125 L 302.078125 168.828125 C 302.347656 171.792969 300.59375 174.019531 298.4375 174.894531 Z M 241.753906 193.160156 L 289.273438 165.730469 L 289.273438 110.796875 L 254.832031 130.410156 L 254.832031 130.816406 L 194.304688 165.730469 L 187.363281 169.636719 L 186.957031 170.042969 L 183.453125 172.199219 L 144.160156 194.914062 C 143.753906 194.914062 143.285156 194.914062 142.878906 195.316406 L 108.910156 214.929688 L 92.800781 224.097656 L 140.316406 251.527344 L 197.40625 218.839844 L 197.808594 218.839844 L 206.503906 213.582031 L 206.910156 213.179688 L 223.015625 204.011719 L 232.183594 198.753906 L 232.589844 198.351562 Z M 194.304688 235.421875 L 166.402344 251.125 L 146.789062 262.917969 C 146.789062 273.839844 146.789062 284.691406 146.789062 295.609375 L 194.304688 323.039062 C 194.304688 293.855469 194.304688 264.671875 194.304688 235.421875 Z M 188.171875 154.808594 L 146.789062 130.882812 L 146.789062 178.398438 L 176.847656 160.945312 L 180.351562 158.785156 L 180.757812 158.785156 Z M 188.171875 154.808594 " fill-opacity="1" fill-rule="nonzero"/></g></svg>